<?xml version="1.0" standalone="no"?>
<!DOCTYPE svg PUBLIC "-//W3C//DTD SVG 1.1//EN" "http://www.w3.org/Graphics/SVG/1.1/DTD/svg11.dtd" >
<svg>
<metadata>
Created by FontForge 20120731 at Sun Jun 30 10:48:11 2019
 By ffonts
Typeface (c) Vi't Conda'k. 2017. All Rights Reserved
</metadata>
<defs>
<font id="IndianaJonas" horiz-adv-x="797" >
  <font-face 
    font-family="Indiana Jonas"
    font-weight="500"
    font-style="italic"
    font-stretch="normal"
    units-per-em="2048"
    panose-1="4 7 6 4 3 1 2 2 10 2"
    ascent="1638"
    descent="-410"
    x-height="1333"
    cap-height="1459"
    bbox="-273 -518 2541 1819"
    underline-thickness="150"
    underline-position="-142"
    slope="-10"
    unicode-range="U+001D-2265"
  />
<missing-glyph horiz-adv-x="831" 
d="M-7 124q97 521 253 1141l660 71q-123 -537 -198 -994zM462 463.5q-22 24.5 -65 28.5q-32 0 -61 -26.5t-29 -64.5q0 -37 22 -61.5t59 -27.5q39 0 67.5 26.5t28.5 63.5t-22 61.5zM771 978q0 77 -63 156t-208 79q-59 0 -117 -24t-151 -141l144 -172q66 181 139 181
q54 0 71 -22.5t17 -57.5q0 -60 -117 -176t-129 -253l145 32q22 90 145.5 188t123.5 210z" />
    <glyph glyph-name=".notdef" horiz-adv-x="831" 
d="M-7 124q97 521 253 1141l660 71q-123 -537 -198 -994zM462 463.5q-22 24.5 -65 28.5q-32 0 -61 -26.5t-29 -64.5q0 -37 22 -61.5t59 -27.5q39 0 67.5 26.5t28.5 63.5t-22 61.5zM771 978q0 77 -63 156t-208 79q-59 0 -117 -24t-151 -141l144 -172q66 181 139 181
q54 0 71 -22.5t17 -57.5q0 -60 -117 -176t-129 -253l145 32q22 90 145.5 188t123.5 210z" />
    <glyph glyph-name=".null" horiz-adv-x="0" 
 />
    <glyph glyph-name=".null" horiz-adv-x="0" 
 />
    <glyph glyph-name="nonmarkingreturn" horiz-adv-x="508" 
 />
    <glyph glyph-name="space" unicode=" " horiz-adv-x="508" 
 />
    <glyph glyph-name="space" unicode="&#xa0;" horiz-adv-x="508" 
 />
    <glyph glyph-name="equivalence" unicode="&#x2261;" horiz-adv-x="2480" 
d="M349 1140q96 0 113 96t-79 96t-113 -96t79 -96zM501 1236q-24 -136 -162 -136q-60 0 -88 29l-28 -157h-40l47 264q24 135 159 135q136 0 112 -135zM788 1280q-5 52 -81 52q-96 0 -113 -96l-1 -6zM779 1139q-46 -39 -113 -39q-135 0 -111 136q24 135 159 135
q124 0 114 -119l-236 -61q5 -51 81 -51q49 0 82 28zM1110 1303q-24 29 -72 29q-97 0 -114 -96l-24 -136h-39l48 271h39l-5 -29q37 29 102 29q67 0 99 -39zM1417 1322l-35 -26q-22 36 -77 36q-76 0 -99 -52l201 -60q-32 -120 -156 -120q-76 0 -104 49l35 26q21 -35 76 -35
q76 0 99 51l-201 61q32 119 156 119q76 0 105 -49zM1616 1332q-96 0 -113 -96t79 -96q97 0 114 96t-80 96zM1735 1236q-24 -136 -160 -136q-135 0 -111 136q24 135 159 135q136 0 112 -135zM1819 1371h39l-5 -29q37 29 101 29q136 0 112 -135l-24 -136h-39l24 136
q17 96 -80 96q-96 0 -113 -96l-24 -136h-39zM2350 1241l-194 -50q5 -51 81 -51q95 0 112 96zM2116 1219l235 61q-4 52 -80 52q-49 0 -82 -29l-24 29q46 39 113 39q136 0 112 -135l-24 -136h-40l5 29q-38 -29 -101 -29q-124 0 -114 119zM2502 1500h39l-58 -329q-5 -31 34 -31
l-7 -40q-78 0 -66 71zM419 497h-40l5 28q-36 -28 -101 -28q-135 0 -112 135l24 135h39l-24 -135q-16 -96 80 -96t112 96l24 135h40zM766 719l-36 -27q-22 36 -77 36q-75 0 -98 -52l201 -60q-31 -119 -155 -119q-76 0 -106 48l36 26q22 -35 77 -35q75 0 99 52l-202 60
q32 119 155 119q76 0 106 -48zM1046 676q-6 52 -82 52q-96 0 -113 -96l-1 -6zM1037 535q-45 -38 -113 -38q-135 0 -112 135q24 135 159 135q124 0 115 -119l-235 -60q5 -52 80 -52q49 0 82 28zM1461 728q-96 0 -113 -96q-16 -96 80 -96q97 0 113 96q17 96 -80 96zM1580 632
q-23 -135 -159 -135q-135 0 -112 135q24 135 159 135q136 0 112 -135zM1664 767h39l-5 -29q37 29 101 29q136 0 112 -135l-23 -135h-39l23 135q17 96 -80 96q-96 0 -113 -96l-23 -135h-39zM2025 896h39l-58 -328q-5 -32 34 -32l-7 -39q-78 0 -66 71zM2331 503
q-24 -135 -166 -135l7 39q103 0 120 96l4 22q-37 -28 -101 -28q-136 0 -113 135l24 135h39l-24 -135q-16 -96 81 -96q96 0 112 96l24 135h39zM26 155q13 73 95 73l-4 -22q-59 0 -68 -51h44l-4 -23h-44l-23 -132h-23l23 132h-29l4 23h29zM170 132q-55 0 -64 -55
q-10 -55 45 -55t65 55q9 55 -46 55zM238 77q-14 -77 -91 -77q-78 0 -64 77q13 78 91 78q77 0 64 -78zM285 155h23l-3 -17q21 17 58 17q77 0 64 -78l-14 -77h-22l14 77q9 55 -46 55t-64 -55l-14 -77h-23zM491 228h23l-13 -73h59l-4 -23h-59l-9 -55q-10 -55 49 -55l-4 -22
q-82 0 -68 77zM719 4q-14 -77 -95 -77l4 22q58 0 68 55l2 12q-21 -16 -58 -16q-77 0 -63 77l13 78h22l-13 -78q-10 -55 45 -55t65 55l13 78h23zM770 -4q-15 0 -12 15t18 15t12 -15t-18 -15zM957 18q-25 -18 -60 -18q-77 0 -63 77q13 78 90 78q35 0 54 -19l-19 -16
q-14 12 -39 12q-55 0 -64 -55q-10 -55 45 -55q25 0 43 13zM1085 132q-55 0 -64 -55q-10 -55 45 -55t65 55q9 55 -46 55zM1154 77q-14 -77 -92 -77q-77 0 -63 77q13 78 90 78q78 0 65 -78zM1201 155h22l-3 -17q22 17 58 17q78 0 65 -78l-14 -77h-22l14 77q9 55 -47 55
q-55 0 -64 -55l-14 -77h-22zM1464 132q-55 0 -64 -55q-10 -55 45 -55t65 55q9 55 -46 55zM1468 155q36 0 52 -17l16 90h22l-26 -151q-14 -77 -91 -77q-78 0 -64 77q13 78 91 78zM1694 80l-111 -28q3 -30 47 -30q54 0 64 55v3zM1561 68l133 35q-2 29 -45 29q-28 0 -48 -16
l-13 16q26 23 65 23q77 0 64 -78l-14 -77h-22l3 17q-22 -17 -58 -17q-71 0 -65 68zM1776 66l-12 -66h-23l40 228h23l-24 -140h55q55 0 64 55l2 12h22l-2 -12q-9 -52 -40 -66q26 -13 17 -66l-2 -11h-22l2 11q10 55 -45 55h-55zM1948 -4q-15 0 -12 15t18 15t12 -15t-18 -15z
M2136 18q-26 -18 -61 -18q-77 0 -63 77q13 78 90 78q35 0 55 -19l-20 -16q-14 12 -39 12q-55 0 -64 -55q-10 -55 45 -55q25 0 43 13zM2311 22l-4 -22h-140l3 19q9 51 42 60l73 18q18 5 23 35h-118l4 23h140l-3 -19q-9 -52 -42 -60l-73 -19q-18 -5 -23 -35h118z" />
    <glyph glyph-name="exclam" unicode="!" horiz-adv-x="394" 
d="M214.5 337.5q27.5 -27.5 27.5 -73.5q0 -45 -37.5 -82.5t-82.5 -37.5q-46 0 -73.5 27.5t-27.5 72.5q0 46 37.5 83.5t83.5 37.5q45 0 72.5 -27.5zM284 553l-182 -55q37 407 132 789l271 41q-136 -412 -221 -775z" />
    <glyph glyph-name="exclam.3" horiz-adv-x="359" 
d="M222.5 503q23.5 -25 23.5 -65t-32.5 -71t-70.5 -31q-40 0 -63.5 24.5t-23.5 64.5q0 41 32.5 72t71.5 31t62.5 -25zM283 691l-157 -44q33 357 115 691l234 31q-118 -360 -192 -678z" />
    <glyph glyph-name="exclam.4" horiz-adv-x="347" 
d="M231 603.5q22 -24.5 22 -62.5q0 -37 -30 -61.5t-66 -24.5q-37 0 -59 24.5t-22 61.5t30.5 62t66.5 25t58 -24.5zM287 775l-145 -32q30 331 107 637l217 15q-110 -328 -179 -620z" />
    <glyph glyph-name="exclam.5" horiz-adv-x="333" 
d="M231.5 652.5q20.5 -23.5 20.5 -59.5q-1 -35 -28.5 -58t-61.5 -23t-54 23.5t-20 58.5q0 36 28 59t62 23q33 0 53.5 -23.5zM284 816l-135 -30q29 315 101 606l200 12q-102 -311 -166 -588z" />
    <glyph glyph-name="exclam.6" horiz-adv-x="315" 
d="M226.5 698.5q19.5 -22.5 19.5 -56.5q-1 -33 -27 -55t-58 -22q-33 0 -52 22.5t-19 55.5q0 34 26.5 56t59.5 22q31 0 50.5 -22.5zM276 854l-128 -29q28 300 96 576l190 12q-97 -296 -158 -559z" />
    <glyph glyph-name="quotedbl" unicode="&#x22;" horiz-adv-x="674" 
d="M490 1373l-180 -416l-91 -9l31 401zM784 1403l-176 -407l-89 -9l30 392z" />
    <glyph glyph-name="quotedbl.3" horiz-adv-x="581" 
d="M448 1381l-156 -362l-78 -6l28 352zM701 1401l-152 -355l-77 -6l27 345z" />
    <glyph glyph-name="quotedbl.4" horiz-adv-x="547" 
d="M442 1394l-145 -328l-73 -1l26 326zM677 1397l-142 -321l-71 -1l25 320z" />
    <glyph glyph-name="quotedbl.5" horiz-adv-x="506" 
d="M428 1400l-135 -312h-67l25 311zM646 1401l-132 -304l-66 -1l24 304z" />
    <glyph glyph-name="quotedbl.6" horiz-adv-x="477" 
d="M420 1409l-128 -297h-64l24 296zM627 1410l-125 -289l-63 -1l23 289z" />
    <glyph glyph-name="numbersign" unicode="#" horiz-adv-x="897" 
d="M526 1062l112 21q12 45 34 121l234 33q-12 -42 -32 -113l76 14l-38 -181l-80 -18q-19 -88 -37 -174l95 23l-38 -181l-95 -27q-14 -71 -27 -141l-242 -72l28 146l-113 -32q-14 -73 -26 -147l-242 -72l28 152l-85 -24l48 212l76 19q19 95 40 189l-94 -20l48 212l93 17
q13 54 36 137l234 33q-22 -78 -33 -127zM480 860q-20 -91 -39 -181l114 28q19 88 38 177z" />
    <glyph glyph-name="dollar" unicode="$" horiz-adv-x="689" 
d="M479 254q-16 -86 -30 -171l-242 -75q13 74 25 145q-44 -13 -89 -21l-115 185q101 21 268 85t167 169q0 87 -160.5 146t-160.5 255q0 184 133 271q82 54 211 92q21 87 43 172l231 21q-29 -115 -56 -228l75 -121q-126 -12 -270.5 -48.5t-144.5 -152.5q0 -63 159.5 -144
t159.5 -264q-19 -208 -185 -305q-10 -6 -19 -11z" />
    <glyph glyph-name="percent" unicode="%" horiz-adv-x="974" 
d="M837 1329l157 -97q-255 -323 -743 -1029l-177 117q501 693 763 1009zM335 1147q-21 0 -38 -17t-17 -38q0 -20 12.5 -32.5t33.5 -12.5q20 0 37 17t17 37q0 21 -12.5 33.5t-32.5 12.5zM480.5 1247.5q49.5 -49.5 49.5 -132.5t-67.5 -150.5t-150.5 -67.5t-132.5 49.5
t-49.5 131.5q0 84 67.5 151.5t151.5 67.5q82 0 131.5 -49.5zM798 570q-21 0 -38 -17t-17 -38q0 -20 12.5 -32.5t33.5 -12.5q20 0 37 17t17 37q0 21 -12.5 33.5t-32.5 12.5zM943.5 670.5q49.5 -49.5 49.5 -132.5t-67.5 -150.5t-150.5 -67.5t-132.5 49.5t-49.5 131.5
q0 84 67.5 151.5t151.5 67.5q82 0 131.5 -49.5z" />
    <glyph glyph-name="ampersand" unicode="&#x26;" horiz-adv-x="1011" 
d="M712 375q-112 -125 -275 -159.5t-282 42t-124 218.5t107 267q29 33 63 60q-62 72 -54 175q9 130 123.5 233.5t267 119.5t253.5 -65l-148 -154q-40 36 -112 28.5t-122 -52.5t-55 -87q-6 -73 34.5 -105.5t201.5 8.5q21 88 53 193l173 -47q-13 -49 -24 -92l140 36l-37 -179
q-78 -21 -144 -39q-12 -63 -16 -105q-10 -115 66 -138t138 66l129 -149q-137 -127 -356 -75zM554 724q-124 -33 -166.5 -41.5t-100 -59t-58.5 -105.5q-1 -54 57 -85.5t143.5 -14t137.5 70.5q-14 30 -21.5 79t8.5 156z" />
    <glyph glyph-name="quotesingle" unicode="'" horiz-adv-x="380" 
d="M490 1373l-180 -416l-91 -9l31 401z" />
    <glyph glyph-name="quotesingle.3" horiz-adv-x="318" 
d="M438 1382l-155 -362l-79 -6l28 352z" />
    <glyph glyph-name="quotesingle.4" horiz-adv-x="281" 
d="M411 1391l-144 -328l-73 -1l25 327z" />
    <glyph glyph-name="quotesingle.5" horiz-adv-x="248" 
d="M388 1392l-134 -311h-68l25 310z" />
    <glyph glyph-name="quotesingle.6" horiz-adv-x="219" 
d="M369 1401l-127 -295h-64l23 294z" />
    <glyph glyph-name="parenleft" unicode="(" horiz-adv-x="663" 
d="M630.5 1166.5q-85.5 -74.5 -158 -249.5t-75.5 -350.5t26.5 -281.5t156.5 -156l-98 -179q-181 33 -251 201.5t-61.5 412t132 506.5t397.5 382l83 -188q-66 -23 -151.5 -97.5z" />
    <glyph glyph-name="parenright" unicode=")" horiz-adv-x="663" 
d="M189.5 335.5q85.5 74.5 158.5 249.5t75.5 350.5t-27 286.5t-155.5 151l97 179q181 -33 251 -201.5t61.5 -412t-132 -506.5t-397.5 -382l-82 188q65 23 150.5 97.5z" />
    <glyph glyph-name="asterisk" unicode="*" 
d="M635 1128q0 -3 4 -3l-56 -216l192 117l19 -196l-204 -90l100 -137v-9l-166 -155h-12l-67 154l-146 -222l-174 98l201 214l-224 6l112 240h10l172 -50l24 216z" />
    <glyph glyph-name="asterisk.3" horiz-adv-x="713" 
d="M593 1190q0 -3 4 -3l-49 -189l165 99l17 -173l-176 -74l86 -124l-1 -7l-143 -133h-10l-57 137l-126 -192l-150 90l173 184l-192 11l97 207h8l149 -47l20 189z" />
    <glyph glyph-name="asterisk.4" horiz-adv-x="679" 
d="M582 1222q0 -2 3 -3l-45 -173l153 82l16 -162l-164 -59l80 -120v-7l-133 -116l-10 1l-53 132l-117 -172l-139 93l161 161l-180 22l91 188l7 -1l139 -53l19 175z" />
    <glyph glyph-name="asterisk.5" horiz-adv-x="645" 
d="M559 1239q0 -2 4 -3l-43 -164l142 77l14 -154l-151 -55l73 -115v-7l-123 -109l-9 1l-49 126l-109 -163l-128 90l149 152l-166 21l85 178h6l128 -52l18 167z" />
    <glyph glyph-name="asterisk.6" horiz-adv-x="619" 
d="M541 1256q0 -2 4 -3l-41 -156l135 73l13 -146l-144 -52l70 -109v-7l-117 -104l-9 1l-46 120l-104 -155l-121 86l141 144l-157 20l80 169h6l122 -49l17 158z" />
    <glyph glyph-name="plus" unicode="+" 
d="M340 797q25 115 52 229l235 36q-26 -112 -50 -222l208 38l-38 -201l-213 -42q-21 -103 -39 -204l-241 -66q21 112 43 223l-194 -38l48 212z" />
    <glyph glyph-name="plus.3" horiz-adv-x="735" 
d="M343 906q22 101 45 201l202 27q-23 -98 -43 -195l179 29l-33 -176l-184 -32q-18 -90 -34 -179l-207 -53q18 98 37 195l-166 -29l41 186z" />
    <glyph glyph-name="plus.4" horiz-adv-x="711" 
d="M348 977q21 93 42 184l188 13q-21 -90 -41 -179l168 16l-31 -162l-171 -19q-17 -83 -32 -164l-192 -37q17 90 34 179l-155 -17l39 171z" />
    <glyph glyph-name="plus.5" horiz-adv-x="684" 
d="M347 1008q19 88 39 175l174 11q-20 -86 -38 -170l154 14l-28 -154l-158 -17q-16 -78 -30 -156l-178 -34q16 86 32 171l-143 -15l36 162z" />
    <glyph glyph-name="plus.6" horiz-adv-x="659" 
d="M340 1036q18 84 37 167l165 10q-19 -82 -36 -161l147 13l-27 -146l-150 -17q-15 -74 -29 -148l-169 -32q16 82 31 162l-136 -14l34 154z" />
    <glyph glyph-name="comma" unicode="," horiz-adv-x="364" 
d="M276 365l-180 -398h-91l31 398h240z" />
    <glyph glyph-name="comma.3" horiz-adv-x="348" 
d="M274 517l-156 -346l-78 2l28 349z" />
    <glyph glyph-name="comma.4" horiz-adv-x="344" 
d="M278 607l-145 -313l-73 7l26 324z" />
    <glyph glyph-name="comma.5" horiz-adv-x="338" 
d="M274 653l-135 -297l-67 7l24 308z" />
    <glyph glyph-name="comma.6" horiz-adv-x="328" 
d="M266 699l-129 -282l-63 7l23 292z" />
    <glyph glyph-name="hyphen" unicode="-" 
d="M798 898l-38 -201l-655 -167l46 232z" />
    <glyph glyph-name="hyphen" unicode="&#xad;" 
d="M798 898l-38 -201l-655 -167l46 232z" />
    <glyph glyph-name="hyphen.3" horiz-adv-x="713" 
d="M729 984l-34 -176l-563 -133l40 203z" />
    <glyph glyph-name="hyphen.4" horiz-adv-x="680" 
d="M704 1022l-31 -162l-525 -90l38 187z" />
    <glyph glyph-name="hyphen.5" horiz-adv-x="645" 
d="M671 1048l-29 -154l-485 -81l35 177z" />
    <glyph glyph-name="hyphen.6" horiz-adv-x="619" 
d="M647 1074l-27 -146l-461 -77l33 168z" />
    <glyph glyph-name="period" unicode="." horiz-adv-x="314" 
d="M214.5 337.5q27.5 -27.5 27.5 -73.5q0 -45 -37.5 -82.5t-82.5 -37.5q-46 0 -73.5 27.5t-27.5 72.5q0 46 37.5 83.5t83.5 37.5q45 0 72.5 -27.5z" />
    <glyph glyph-name="period.3" horiz-adv-x="291" 
d="M212.5 494.5q23.5 -24.5 23.5 -64.5q0 -41 -32 -72t-72 -31q-39 0 -62.5 25t-23.5 65q1 40 33 71t71 31t62.5 -24.5z" />
    <glyph glyph-name="period.4" horiz-adv-x="278" 
d="M221 590.5q22 -24.5 22 -61.5q0 -38 -30 -62.5t-67 -24.5q-36 0 -58 24.5t-22 61.5q1 37 30.5 62t66.5 25q36 0 58 -24.5z" />
    <glyph glyph-name="period.5" horiz-adv-x="257" 
d="M222 637q20 -23 20 -59t-28 -58.5t-62 -22.5q-33 0 -53 23t-20 59q0 35 27.5 58t61.5 23t54 -23z" />
    <glyph glyph-name="period.6" horiz-adv-x="241" 
d="M217 684q19 -22 19 -56t-26.5 -55.5t-59.5 -21.5q-31 0 -50 22t-19 56q0 33 26 55t59 22q32 0 51 -22z" />
    <glyph glyph-name="slash" unicode="/" horiz-adv-x="724" 
d="M777 1389l157 -97q-335 -423 -893 -1229l-177 117q571 793 913 1209z" />
    <glyph glyph-name="slash.3" horiz-adv-x="607" 
d="M687 1413l135 -89q-289 -365 -771 -1062l-152 107q493 685 788 1044z" />
    <glyph glyph-name="slash.4" horiz-adv-x="560" 
d="M653 1414l125 -91q-269 -323 -717 -944l-141 109q458 609 733 926z" />
    <glyph glyph-name="slash.5" horiz-adv-x="511" 
d="M612 1420l115 -87q-249 -306 -665 -893l-131 104q426 577 681 876z" />
    <glyph glyph-name="slash.6" horiz-adv-x="471" 
d="M580 1428l109 -83q-236 -291 -632 -848l-124 99q405 548 647 832z" />
    <glyph glyph-name="zero" unicode="0" horiz-adv-x="2480" 
d="M349 1140q96 0 113 96t-79 96t-113 -96t79 -96zM501 1236q-24 -136 -162 -136q-60 0 -88 29l-28 -157h-40l47 264q24 135 159 135q136 0 112 -135zM788 1280q-5 52 -81 52q-96 0 -113 -96l-1 -6zM779 1139q-46 -39 -113 -39q-135 0 -111 136q24 135 159 135
q124 0 114 -119l-236 -61q5 -51 81 -51q49 0 82 28zM1110 1303q-24 29 -72 29q-97 0 -114 -96l-24 -136h-39l48 271h39l-5 -29q37 29 102 29q67 0 99 -39zM1417 1322l-35 -26q-22 36 -77 36q-76 0 -99 -52l201 -60q-32 -120 -156 -120q-76 0 -104 49l35 26q21 -35 76 -35
q76 0 99 51l-201 61q32 119 156 119q76 0 105 -49zM1616 1332q-96 0 -113 -96t79 -96q97 0 114 96t-80 96zM1735 1236q-24 -136 -160 -136q-135 0 -111 136q24 135 159 135q136 0 112 -135zM1819 1371h39l-5 -29q37 29 101 29q136 0 112 -135l-24 -136h-39l24 136
q17 96 -80 96q-96 0 -113 -96l-24 -136h-39zM2350 1241l-194 -50q5 -51 81 -51q95 0 112 96zM2116 1219l235 61q-4 52 -80 52q-49 0 -82 -29l-24 29q46 39 113 39q136 0 112 -135l-24 -136h-40l5 29q-38 -29 -101 -29q-124 0 -114 119zM2502 1500h39l-58 -329q-5 -31 34 -31
l-7 -40q-78 0 -66 71zM419 497h-40l5 28q-36 -28 -101 -28q-135 0 -112 135l24 135h39l-24 -135q-16 -96 80 -96t112 96l24 135h40zM766 719l-36 -27q-22 36 -77 36q-75 0 -98 -52l201 -60q-31 -119 -155 -119q-76 0 -106 48l36 26q22 -35 77 -35q75 0 99 52l-202 60
q32 119 155 119q76 0 106 -48zM1046 676q-6 52 -82 52q-96 0 -113 -96l-1 -6zM1037 535q-45 -38 -113 -38q-135 0 -112 135q24 135 159 135q124 0 115 -119l-235 -60q5 -52 80 -52q49 0 82 28zM1461 728q-96 0 -113 -96q-16 -96 80 -96q97 0 113 96q17 96 -80 96zM1580 632
q-23 -135 -159 -135q-135 0 -112 135q24 135 159 135q136 0 112 -135zM1664 767h39l-5 -29q37 29 101 29q136 0 112 -135l-23 -135h-39l23 135q17 96 -80 96q-96 0 -113 -96l-23 -135h-39zM2025 896h39l-58 -328q-5 -32 34 -32l-7 -39q-78 0 -66 71zM2331 503
q-24 -135 -166 -135l7 39q103 0 120 96l4 22q-37 -28 -101 -28q-136 0 -113 135l24 135h39l-24 -135q-16 -96 81 -96q96 0 112 96l24 135h39zM26 155q13 73 95 73l-4 -22q-59 0 -68 -51h44l-4 -23h-44l-23 -132h-23l23 132h-29l4 23h29zM170 132q-55 0 -64 -55
q-10 -55 45 -55t65 55q9 55 -46 55zM238 77q-14 -77 -91 -77q-78 0 -64 77q13 78 91 78q77 0 64 -78zM285 155h23l-3 -17q21 17 58 17q77 0 64 -78l-14 -77h-22l14 77q9 55 -46 55t-64 -55l-14 -77h-23zM491 228h23l-13 -73h59l-4 -23h-59l-9 -55q-10 -55 49 -55l-4 -22
q-82 0 -68 77zM719 4q-14 -77 -95 -77l4 22q58 0 68 55l2 12q-21 -16 -58 -16q-77 0 -63 77l13 78h22l-13 -78q-10 -55 45 -55t65 55l13 78h23zM770 -4q-15 0 -12 15t18 15t12 -15t-18 -15zM957 18q-25 -18 -60 -18q-77 0 -63 77q13 78 90 78q35 0 54 -19l-19 -16
q-14 12 -39 12q-55 0 -64 -55q-10 -55 45 -55q25 0 43 13zM1085 132q-55 0 -64 -55q-10 -55 45 -55t65 55q9 55 -46 55zM1154 77q-14 -77 -92 -77q-77 0 -63 77q13 78 90 78q78 0 65 -78zM1201 155h22l-3 -17q22 17 58 17q78 0 65 -78l-14 -77h-22l14 77q9 55 -47 55
q-55 0 -64 -55l-14 -77h-22zM1464 132q-55 0 -64 -55q-10 -55 45 -55t65 55q9 55 -46 55zM1468 155q36 0 52 -17l16 90h22l-26 -151q-14 -77 -91 -77q-78 0 -64 77q13 78 91 78zM1694 80l-111 -28q3 -30 47 -30q54 0 64 55v3zM1561 68l133 35q-2 29 -45 29q-28 0 -48 -16
l-13 16q26 23 65 23q77 0 64 -78l-14 -77h-22l3 17q-22 -17 -58 -17q-71 0 -65 68zM1776 66l-12 -66h-23l40 228h23l-24 -140h55q55 0 64 55l2 12h22l-2 -12q-9 -52 -40 -66q26 -13 17 -66l-2 -11h-22l2 11q10 55 -45 55h-55zM1948 -4q-15 0 -12 15t18 15t12 -15t-18 -15z
M2136 18q-26 -18 -61 -18q-77 0 -63 77q13 78 90 78q35 0 55 -19l-20 -16q-14 12 -39 12q-55 0 -64 -55q-10 -55 45 -55q25 0 43 13zM2311 22l-4 -22h-140l3 19q9 51 42 60l73 18q18 5 23 35h-118l4 23h140l-3 -19q-9 -52 -42 -60l-73 -19q-18 -5 -23 -35h118z" />
    <glyph glyph-name="one" unicode="1" horiz-adv-x="679" 
d="M459 471l222 64l-33 -194l-662 -201l40 206l192 55q52 280 113 550q-46 -41 -99 -94l-98 176q52 60 280 264l231 21q-109 -436 -186 -847z" />
    <glyph glyph-name="two" unicode="2" horiz-adv-x="760" 
d="M340 434l352 104l-31 -190l-679 -214l59 212q52 216 304 426t264 256.5t-19 77.5t-115 17t-190 -222l-151 193q119 153 209 193t187 40q154 0 237 -92.5t48 -222.5q-31 -119 -216.5 -268t-258.5 -310z" />
    <glyph glyph-name="three" unicode="3" horiz-adv-x="811" 
d="M324 901l-195 193q157 153 256 195t203 47t204 -73t91 -209q-9 -130 -131 -241q63 -68 67 -172q5 -162 -132 -291.5t-316 -131.5q-158 8 -246.5 95t-129.5 149l150 159q32 -79 95 -138.5t165 -65.5q101 0 158 63.5t58 118.5q1 54 -56 86t-138 15l35 193q86 7 147.5 52.5
t66.5 87.5q6 53 -38.5 84t-138 6.5t-175.5 -222.5z" />
    <glyph glyph-name="four" unicode="4" horiz-adv-x="800" 
d="M690 596q-29 -140 -60 -304l-244 -75q34 177 64 324l-459 -118l408 940l187 -104l-214 -531l125 28q32 141 59 242l229 20q-23 -92 -49 -206l114 27l-38 -212z" />
    <glyph glyph-name="five" unicode="5" horiz-adv-x="803" 
d="M251 1074q-10 -2 -19 -4l-69 199q153 42 282.5 53t412.5 25l-40 -205q-251 -21 -346 -31q-17 -70 -33 -138q224 -11 309 -114t60 -270t-161 -267.5t-303 -101.5q-161 6 -244.5 93t-124.5 149l150 159q32 -79 85 -138.5t165 -59.5q93 0 155.5 53t75 123t-36 132t-218.5 57
l-164 -31q26 158 64 317z" />
    <glyph glyph-name="six" unicode="6" horiz-adv-x="811" 
d="M286.5 651q-57.5 -52 -56.5 -118.5t59 -99t144 -14t138 74.5t51 122t-58 94t-138.5 10.5t-139 -69.5zM292 891q56 28 119 41q164 35 285 -52.5t126 -231.5t-107 -270.5t-275 -161.5q-164 -34 -282.5 43.5t-139.5 277.5q20 282 93 464t221.5 273.5t289.5 58.5t286 -214
l-180 -161q-87 166 -160 193t-156.5 -54t-119.5 -206z" />
    <glyph glyph-name="seven" unicode="7" horiz-adv-x="659" 
d="M554 1112q-111 -9 -175 -16t-198 -36l-69 199q153 42 282.5 53t462.5 30l-34 -210q-71 -5 -130 -9l109 -28q-401 -438 -416 -847l-248 -79q75 576 416 943z" />
    <glyph glyph-name="eight" unicode="8" horiz-adv-x="811" 
d="M389 1088q-50 -45 -55 -87q-6 -43 37.5 -68.5t110 -19t118 42t56.5 77.5q6 43 -33.5 79t-111.5 28.5t-122 -52.5zM267.5 623.5q-57.5 -50.5 -58.5 -105.5q-1 -54 57 -85.5t144 -14t138 71.5t53 109q1 54 -56 81t-138.5 10.5t-139 -67zM732 813q63 -68 67 -172
q5 -142 -107 -266.5t-275 -159t-282 42t-124 218.5t107 267q29 33 63 60q-62 72 -54 175q9 130 123.5 233.5t267 119.5t253.5 -65t92 -212q-9 -130 -131 -241z" />
    <glyph glyph-name="nine" unicode="9" horiz-adv-x="811" 
d="M462 834q83 8 148.5 54t65.5 117t-52 109.5t-134 29.5q-93 -10 -150.5 -60t-62.5 -121t49 -104.5t136 -24.5zM610 674q-73 -34 -157 -43q-166 -17 -277.5 82.5t-101.5 243t135 258t291 131.5q166 18 276 -71.5t110 -292.5q-13 -229 -90.5 -415.5t-221 -278t-289.5 -58.5
t-291 214l210 181q57 -186 130 -213t156.5 54.5t119.5 207.5z" />
    <glyph glyph-name="colon" unicode=":" horiz-adv-x="382" 
d="M245.5 337.5q27.5 -27.5 27.5 -73.5q0 -45 -37.5 -82.5t-82.5 -37.5q-46 0 -73.5 27.5t-27.5 72.5q0 46 37.5 83.5t83.5 37.5q45 0 72.5 -27.5zM375.5 996.5q27.5 -27.5 27.5 -73.5q0 -45 -37.5 -82.5t-82.5 -37.5q-46 0 -73.5 27.5t-27.5 72.5q0 46 37.5 83.5t83.5 37.5
q45 0 72.5 -27.5z" />
    <glyph glyph-name="colon.3" horiz-adv-x="359" 
d="M222.5 503q23.5 -25 23.5 -65t-32.5 -71t-70.5 -31q-40 0 -63.5 24.5t-23.5 64.5q0 41 32.5 72t71.5 31t62.5 -25zM335.5 1080q23.5 -25 23.5 -65t-32 -71t-71 -31q-40 0 -63.5 25t-23.5 64q0 41 32.5 72t72.5 31q38 0 61.5 -25z" />
    <glyph glyph-name="colon.4" horiz-adv-x="349" 
d="M231 603.5q22 -24.5 22 -62.5q0 -37 -30 -61.5t-66 -24.5q-37 0 -59 24.5t-22 61.5t30.5 62t66.5 25t58 -24.5zM337 1134.5q22 -24.5 22 -62.5q0 -37 -30.5 -61.5t-66.5 -24.5t-58 24.5t-22 61.5t30 62t67 25q36 0 58 -24.5z" />
    <glyph glyph-name="colon.5" horiz-adv-x="330" 
d="M231.5 652.5q20.5 -23.5 20.5 -59.5q-1 -35 -28.5 -58t-61.5 -23t-54 23.5t-20 58.5q0 36 28 59t62 23q33 0 53.5 -23.5zM330 1157.5q20 -23.5 20 -59.5q0 -35 -28 -58t-61 -23q-34 0 -54 23.5t-20 58.5q0 36 28 59t62 23q33 0 53 -23.5z" />
    <glyph glyph-name="colon.6" horiz-adv-x="309" 
d="M226.5 698.5q19.5 -22.5 19.5 -56.5q-1 -33 -27 -55t-58 -22q-33 0 -52 22.5t-19 55.5q0 34 26.5 56t59.5 22q31 0 50.5 -22.5zM320 1178.5q19 -22.5 19 -56.5q0 -33 -26.5 -55t-57.5 -22q-33 0 -52 22.5t-19 55.5q0 34 26.5 56t59.5 22q31 0 50 -22.5z" />
    <glyph glyph-name="semicolon" unicode=";" horiz-adv-x="398" 
d="M307 365l-180 -398h-91l31 398h240zM375.5 996.5q27.5 -27.5 27.5 -73.5q0 -45 -37.5 -82.5t-82.5 -37.5q-46 0 -73.5 27.5t-27.5 72.5q0 46 37.5 83.5t83.5 37.5q45 0 72.5 -27.5z" />
    <glyph glyph-name="semicolon" unicode="&#x37e;" horiz-adv-x="398" 
d="M307 365l-180 -398h-91l31 398h240zM375.5 996.5q27.5 -27.5 27.5 -73.5q0 -45 -37.5 -82.5t-82.5 -37.5q-46 0 -73.5 27.5t-27.5 72.5q0 46 37.5 83.5t83.5 37.5q45 0 72.5 -27.5z" />
    <glyph glyph-name="semicolon.3" horiz-adv-x="367" 
d="M274 526l-156 -347l-78 2l28 350zM333.5 1080q23.5 -25 23.5 -65t-32 -71t-71 -31q-40 0 -63.5 25t-23.5 64q0 41 32.5 72t72.5 31q38 0 61.5 -25z" />
    <glyph glyph-name="semicolon.4" horiz-adv-x="356" 
d="M278 620l-145 -313l-73 6l26 325zM334 1134.5q22 -24.5 22 -62.5q0 -37 -30.5 -61.5t-66.5 -24.5t-58 24.5t-22 61.5t30 62t67 25q36 0 58 -24.5z" />
    <glyph glyph-name="semicolon.5" horiz-adv-x="336" 
d="M274 669l-135 -298l-67 7l24 308zM326 1157.5q20 -23.5 20 -59.5q0 -35 -28 -58t-61 -23q-34 0 -54 23.5t-20 58.5q0 36 28 59t62 23q33 0 53 -23.5z" />
    <glyph glyph-name="semicolon.6" horiz-adv-x="314" 
d="M266 714l-129 -283l-63 7l23 292zM315 1178.5q19 -22.5 19 -56.5q0 -33 -26.5 -55t-57.5 -22q-33 0 -52 22.5t-19 55.5q0 34 26.5 56t59.5 22q31 0 50 -22.5z" />
    <glyph glyph-name="less" unicode="&#x3c;" 
d="M171 807l674 371l-38 -181l-393 -231l341 -58l-38 -181l-594 68z" />
    <glyph glyph-name="equal" unicode="=" 
d="M825 1078l-38 -181l-644 -147l48 212zM775 808l-38 -181l-654 -187l48 212z" />
    <glyph glyph-name="equal.3" horiz-adv-x="713" 
d="M752 1142l-33 -158l-554 -116l42 186zM709 906l-34 -159l-562 -150l41 185z" />
    <glyph glyph-name="equal.4" horiz-adv-x="680" 
d="M725 1168l-31 -146l-516 -74l39 170zM684 950l-31 -146l-523 -106l38 171z" />
    <glyph glyph-name="equal.5" horiz-adv-x="645" 
d="M692 1187l-29 -139l-477 -67l36 162zM654 980l-29 -139l-485 -97l36 162z" />
    <glyph glyph-name="equal.6" horiz-adv-x="617" 
d="M666 1206l-27 -132l-454 -63l35 154zM630 1010l-28 -132l-460 -92l34 153z" />
    <glyph glyph-name="greater" unicode="&#x3e;" 
d="M539 795l-376 55l48 212l589 -119l-38 -181l-699 -422l48 212z" />
    <glyph glyph-name="question" unicode="?" horiz-adv-x="710" 
d="M432 334q0 -45 -37.5 -82.5t-82.5 -37.5q-46 0 -73.5 27.5t-27.5 72.5q0 46 37.5 83.5t83.5 37.5q45 0 72.5 -27.5t27.5 -73.5zM454 553l-182 -55q15 168 160.5 319t145.5 212q0 35 -29 68.5t-69 33.5q-61 0 -94.5 -36t-90.5 -194l-180 193q115 153 196 193t178 40
q154 0 227.5 -83t73.5 -177q0 -157 -155 -279.5t-181 -234.5z" />
    <glyph glyph-name="question.3" horiz-adv-x="646" 
d="M442 690l-157 -45q14 148 134 277.5t128.5 168t-12.5 75t-80 37.5q-100 -31 -149 -204l-154 174q99 132 168.5 164.5t153.5 32.5q132 -3 202.5 -86.5t51.5 -193.5t-141 -206t-145 -194zM398.5 563q23.5 -25 23.5 -65t-32.5 -71t-70.5 -31q-40 0 -63.5 24.5t-23.5 64.5
q0 41 32.5 72t71.5 31t62.5 -25z" />
    <glyph glyph-name="question.4" horiz-adv-x="622" 
d="M442 770l-145 -32q12 137 124 250.5t120 148.5t-12 70.5t-74 39.5q-93 -22 -139 -181l-144 172q93 117 157.5 142.5t142.5 25.5q123 -10 188.5 -94.5t48 -186t-131 -183.5t-135.5 -172zM402 657.5q22 -24.5 22 -62.5q0 -37 -30 -61.5t-66 -24.5q-37 0 -59 24.5t-22 61.5
t30.5 62t66.5 25t58 -24.5z" />
    <glyph glyph-name="question.5" horiz-adv-x="595" 
d="M434 810l-134 -29q11 130 115 237.5t111.5 140.5t-11 67t-68.5 39q-86 -21 -129 -172l-132 164q85 111 145.5 134.5t131.5 23.5q114 -11 174.5 -91.5t44 -177t-122 -173.5t-125.5 -163zM396.5 704.5q20.5 -23.5 20.5 -59.5q-1 -35 -28.5 -58t-61.5 -23t-54 23.5t-20 58.5
q0 36 28 59t62 23q33 0 53.5 -23.5z" />
    <glyph glyph-name="question.6" horiz-adv-x="569" 
d="M423 848l-127 -27q10 123 109 225t106 133.5t-10.5 64t-64.5 37.5q-82 -20 -123 -164l-125 156q80 105 137.5 127t125.5 22q108 -10 165.5 -86t42 -168t-116 -165t-119.5 -155zM387.5 747.5q19.5 -22.5 19.5 -56.5q-1 -33 -27 -55t-58 -22q-33 0 -52 22.5t-19 55.5
q0 34 26.5 56t59.5 22q31 0 50.5 -22.5z" />
    <glyph glyph-name="at" unicode="@" horiz-adv-x="1000" 
d="M740 1364q145 0 231 -86.5t86 -250.5q0 -191 -114.5 -329.5t-263.5 -138.5q-40 0 -76 30q-43 -48 -138 -48q-105 0 -149 135q-7 40 -7 57q0 145 88.5 261t215.5 116q59 0 77 -22l15 33l105 -133q-45 -92 -62 -157.5t-17 -74.5q0 -21 16 -21q47 0 103 88.5t56 216.5
q0 141 -109 167q-38 6 -80 6q-211 0 -348.5 -154.5t-137.5 -373.5q0 -204 162 -255q27 -6 46 -6q172 0 346 92l71 -184q-179 -75 -318 -78q-330 0 -440 242q-31 86 -31 172q0 295 192 495.5t481 200.5zM482 739q5 -54 25 -54q32 0 70.5 95t38.5 163q-3 27 -21 27
q-32 0 -72.5 -76t-40.5 -155z" />
    <glyph glyph-name="at.3" horiz-adv-x="895" 
d="M684 1396q124 -3 198 -81t74 -222q-1 -169 -99.5 -288t-227.5 -116q-34 1 -65 28q-37 -41 -119 -39q-90 2 -127 122q-6 35 -6 50q0 127 76.5 227.5t185.5 97.5q50 -1 66 -20l13 28l90 -119q-39 -80 -53.5 -137t-15.5 -66q0 -18 14 -18q41 -1 89 75.5t49 189.5
q0 124 -93 149q-33 6 -69 7q-182 5 -300.5 -128.5t-118.5 -326.5q-1 -179 138 -228q24 -5 40 -6q148 -3 298 74l60 -164q-154 -61 -274 -61q-283 7 -378 222q-26 76 -26 152q1 259 166.5 431.5t414.5 166.5zM460 852q5 -48 21 -49q28 0 61.5 82.5t33.5 142.5q-3 24 -18 24
q-27 1 -62.5 -65t-35.5 -135z" />
    <glyph glyph-name="at.4" horiz-adv-x="836" 
d="M663 1411q116 -11 184.5 -88.5t68.5 -211.5q0 -157 -92 -262t-212 -94q-32 3 -61 30q-34 -36 -110 -29q-84 7 -119 121q-5 33 -5 47q0 119 71 207.5t173 79.5q47 -4 61 -23l13 26l83 -117q-36 -72 -50 -124.5t-14 -59.5q0 -17 13 -18q38 -4 83 64.5t45 173.5
q0 116 -86 145q-31 8 -65 11q-169 15 -279 -102t-110 -297q-1 -167 128 -221q22 -6 37 -8q138 -12 277 51l56 -156q-143 -48 -254 -41q-264 24 -352 230q-24 73 -24 144q1 241 154.5 391.5t385.5 130.5zM455 917q4 -45 20 -47q25 -2 56.5 73t31.5 131q-3 22 -17 24
q-25 2 -58 -57.5t-33 -123.5z" />
    <glyph glyph-name="at.5" horiz-adv-x="778" 
d="M626 1418q108 -11 171.5 -85t62.5 -201q-1 -150 -86 -249t-196 -88q-30 3 -56 29q-32 -34 -103 -27q-77 7 -109 116q-5 31 -5 44q1 114 66.5 198t160.5 74q43 -4 56 -22l12 24l77 -112q-34 -68 -47 -117.5t-13 -56.5q0 -17 12 -18q35 -3 76.5 61.5t42.5 164.5
q0 110 -80 139q-28 7 -59 10q-156 16 -258.5 -94.5t-103.5 -281.5q0 -159 119 -211q20 -7 34 -8q127 -13 256 46l52 -149q-133 -44 -236 -37q-243 25 -324 222q-23 69 -22 136q1 230 143.5 372t356.5 121zM433 950q3 -43 18 -45q24 -2 53 69.5t29 124.5q-2 21 -16 22
q-23 2 -53.5 -54t-30.5 -117z" />
    <glyph glyph-name="at.6" horiz-adv-x="733" 
d="M603 1426q103 -11 163 -81t59 -191q-1 -142 -81.5 -236t-186.5 -84q-28 3 -53 28q-30 -33 -98 -26q-73 7 -103 110q-5 30 -5 42q1 108 63 188t153 70q41 -3 53 -21l11 23l73 -106q-32 -65 -44.5 -112t-12.5 -53q0 -17 12 -18q33 -2 72.5 59t40.5 156q0 105 -76 132
q-27 7 -56 10q-148 15 -245.5 -90t-98.5 -268q0 -151 113 -200q19 -7 32 -8q121 -12 243 44l50 -141q-126 -42 -224 -36q-231 24 -308 211q-22 66 -21 130q1 218 136.5 353t338.5 115zM420 981q2 -41 17 -42q23 -2 50.5 65.5t27.5 118.5q-2 20 -16 21q-21 2 -50 -51.5
t-29 -111.5z" />
    <glyph glyph-name="A" unicode="A" horiz-adv-x="838" 
d="M199 141q-71 -223 -82 -332l-288 -103q19 249 145 621.5t510 1055.5l202 32q104 -515 104 -892q0 -233 -28 -486l-258 -93q13 182 20 315zM323 495l211 57q-4 158 -29 306q-84 -114 -182 -363z" />
    <glyph glyph-name="B" unicode="B" horiz-adv-x="960" 
d="M258 1085q-27 -6 -55 -13l-75 269q185 60 424 69q194 -1 272.5 -40.5t135.5 -125.5t39 -282q-7 -83 -40.5 -164.5t-102.5 -151.5q49 -69 55.5 -118t4.5 -107q-6 -219 -157.5 -366t-855.5 -340q127 686 355 1370zM341 488q-52 -186 -90 -374q170 58 290 125.5t122 167.5
q2 51 -18 83.5t-56 32.5zM448 1116l90 -45q-63 -157 -116 -316l127 8q85 13 136 62t68 175q3 61 -44 91.5t-163 30.5q-45 0 -98 -6z" />
    <glyph glyph-name="C" unicode="C" horiz-adv-x="983" 
d="M795 46q-197 -210 -413 -174t-310.5 314.5t-4 640.5t308.5 508t398 96t347 -324l-260 -274q-61 281 -165.5 322t-222.5 -84.5t-165.5 -312.5t-17 -371t135 -218t190.5 60t127 206l174 -226q-52 -88 -122 -163z" />
    <glyph glyph-name="D" unicode="D" horiz-adv-x="943" 
d="M893.5 1256.5q109.5 -128.5 104.5 -308.5q-6 -212 -97.5 -457.5t-221 -397.5t-309 -247.5t-467.5 -130.5q127 687 356 1373q-27 -7 -56 -16l-75 269q145 47 250.5 58t136.5 9q269 -23 378.5 -151.5zM242 70q270 150 379.5 417t113.5 414q0 133 -60.5 177t-241.5 43
l105 -54q-196 -489 -296 -997z" />
    <glyph glyph-name="E" unicode="E" horiz-adv-x="857" 
d="M562 1418l473 41l-73 -281l-479 -56q-42 -176 -81 -349l342 68l-53 -285l-355 -85q-38 -174 -72 -346l560 195l-58 -291l-853 -314q127 689 305 1376l-16 -4l-64 254q185 60 424 77z" />
    <glyph glyph-name="F" unicode="F" horiz-adv-x="763" 
d="M376 657l293 56l-54 -285l-303 -71q-47 -218 -106 -536l-293 -106q124 668 294 1334q-9 -3 -19 -5l-75 283q186 59 341.5 75t495.5 35l-56 -291q-301 -30 -415 -44q-54 -225 -103 -445z" />
    <glyph glyph-name="G" unicode="G" horiz-adv-x="1015" 
d="M721 -7q-172 -151 -353 -114q-210 43 -310.5 314.5t0 633.5t318.5 508t398 96t346 -324l-259 -274q-61 281 -165.5 322t-222.5 -84.5t-170.5 -317.5t-21.5 -371t129.5 -220t254.5 149q35 220 81 419l253 -162q-92 -424 -117 -653z" />
    <glyph glyph-name="H" unicode="H" horiz-adv-x="974" 
d="M324 370q-61 -294 -108 -549l-293 -106q137 740 348 1620l274 36q-85 -368 -156 -694l259 58q68 331 144 661l274 40q-169 -763 -276 -1411l-294 -107q44 258 93 515z" />
    <glyph glyph-name="I" unicode="I" horiz-adv-x="857" 
d="M484 204l281 95l-47 -276l-802 -285l56 292l225 76q93 562 228 1020q-143 -20 -286 -59l29 304q92 30 332 47l472 41l-48 -270l-303 -38l83 -57q-142 -462 -172.5 -633.5t-47.5 -256.5z" />
    <glyph glyph-name="J" unicode="J" horiz-adv-x="853" 
d="M1078 1459l-48 -284l-181 -23l58 -44q-116 -283 -167.5 -495t-129 -573t-222.5 -459.5t-276 -98.5q-143 0 -233.5 79t-151.5 208l205 187q84 -169 205 -169q72 0 142.5 77t138 449t224.5 819q-112 -9 -265 -45l-75 268q185 60 424 77z" />
    <glyph glyph-name="K" unicode="K" horiz-adv-x="879" 
d="M569 529l247 -441l-220 -169l-272 506q-68 -325 -120 -604l-293 -106q137 740 348 1620l274 36q-80 -345 -147 -653l468 736l208 -166z" />
    <glyph glyph-name="L" unicode="L" horiz-adv-x="660" 
d="M270 153l454 153l-55 -313l-463 -170v-2l-293 -106q137 740 348 1620l274 36q-158 -681 -265 -1218z" />
    <glyph glyph-name="M" unicode="M" horiz-adv-x="1121" 
d="M320 409q-58 -274 -116 -588l-293 -106q114 618 269 1234l-62 240l214 209l210 -783l425 811l274 40q-176 -791 -269 -1369l-294 -107q43 261 97 536l-327 -609z" />
    <glyph glyph-name="N" unicode="N" horiz-adv-x="940" 
d="M339 495q-68 -313 -135 -674l-293 -106q123 663 292 1325l-58 234l236 124l219 -845q82 422 180 843l274 40q-169 -763 -276 -1411l-295 -108z" />
    <glyph glyph-name="O" unicode="O" horiz-adv-x="1042" 
d="M831 909q-69 214 -160 236q-99 24 -217 -94t-166.5 -331.5t-17.5 -371t130 -182.5t211 85.5t156 301t29 345.5zM904 931l122 38q52 -165 -1.5 -454.5t-267 -486.5t-429.5 -149t-293.5 287t13.5 631.5t315.5 537t398.5 97.5t340 -304z" />
    <glyph glyph-name="P" unicode="P" horiz-adv-x="898" 
d="M387 606q175 34 249 101q81 72 87 266q2 88 -66.5 118.5t-154.5 30.5q-20 0 -49 -3l89 -45q-83 -216 -155 -468zM512 1410q144 0 241.5 -40t160.5 -133.5t58 -261.5q-5 -184 -66 -329.5t-167 -218.5q-105 -72 -435 -139q-52 -222 -98 -467l-293 -106q127 686 355 1370
q-26 -6 -55 -13l-75 269q185 69 374 69z" />
    <glyph glyph-name="Q" unicode="Q" horiz-adv-x="1049" 
d="M916 931l122 38q52 -165 -1 -447q-33 -174 -122 -319q61 -113 107 -255l-223 -91q-25 75 -59 139q-182 -160 -376 -117q-216 48 -305 301t2 639t315 523t398 90t340 -304zM596 189q-68 64 -152 108l167 244q72 -46 135 -108q19 53 33 113q44 197 29 352l38 12
q-60 228 -156 264q-105 38 -223 -80t-166.5 -339t-12 -400t135.5 -218q83 -33 172 52z" />
    <glyph glyph-name="R" unicode="R" horiz-adv-x="898" 
d="M387 606q175 34 249 101q81 72 87 266q2 88 -66.5 118.5t-154.5 30.5q-20 0 -49 -3l89 -45q-83 -216 -155 -468zM731 422q32 -58 46 -91q26 -61 38 -270l-248 -146q0 158 -17 256.5t-47 147.5q-4 6 -11 12q-82 -22 -188 -43q-52 -222 -98 -467l-293 -106
q127 686 355 1370q-26 -6 -55 -13l-75 269q185 69 374 69q144 0 241.5 -40t160.5 -133.5t58 -261.5q-5 -184 -66 -329.5t-167 -218.5q-4 -3 -8 -5z" />
    <glyph glyph-name="S" unicode="S" horiz-adv-x="799" 
d="M919 1222q-152 -17 -352.5 -73.5t-200.5 -190.5q0 -120 182 -240t182 -370q0 -295 -218.5 -433.5t-505.5 -191.5l-131 263q122 30 357 122.5t235 231.5q0 123 -189.5 237t-189.5 352q0 261 171 379t521 193z" />
    <glyph glyph-name="T" unicode="T" horiz-adv-x="778" 
d="M590 1118l71 -31l-26 -110q-104 -436 -224 -1065l-293 -106q126 667 270 1291q-98 -15 -249 -53l-75 283q185 59 341 75t556 43l-49 -299q-197 -16 -322 -28z" />
    <glyph glyph-name="U" unicode="U" horiz-adv-x="889" 
d="M198 1335l273 36q-110 -479 -164 -828t22.5 -387.5t158 49.5t130 424.5t149.5 769.5l273 36q-98 -442 -132.5 -668t-104 -484t-232 -348.5t-318 -63.5t-213.5 150.5t-7 483t165 830.5z" />
    <glyph glyph-name="V" unicode="V" horiz-adv-x="855" 
d="M786 1403l274 46q-42 -220 -155.5 -564.5t-496.5 -1006.5l-202 -69q-103 629 -93 992q4 147 31 521l257 39q-7 -206 -24 -504.5t19 -474.5q98 162 223 475t167 546z" />
    <glyph glyph-name="W" unicode="W" horiz-adv-x="1098" 
d="M730 431q137 294 196 540t101 466l274 40q-42 -207 -119 -547t-374 -925l-202 -66q-41 87 -55 178q-66 -121 -167 -257l-202 -70q-79 634 -69 997q4 146 31 521l257 39q-7 -206 -24.5 -518.5t15.5 -474.5q58 99 144 352l183 34q4 -257 11 -309z" />
    <glyph glyph-name="X" unicode="X" horiz-adv-x="854" 
d="M531 950l313 504l220 -137l-423 -680l189 -534l-232 -169l-142 404l-376 -605l-233 115l499 803l-218 620l248 117z" />
    <glyph glyph-name="Y" unicode="Y" horiz-adv-x="840" 
d="M308 416q-112 394 -135.5 560t-31.5 342l265 37q4 -135 17 -275.5t63 -308.5q91 111 175.5 300t101.5 325l282 39q-18 -128 -95 -355.5t-367 -644.5q-58 -282 -104 -528l-293 -107q55 297 122 616z" />
    <glyph glyph-name="Z" unicode="Z" horiz-adv-x="871" 
d="M418 203l424 157l-58 -327l-818 -292l63 318l622 1061q-156 -14 -211 -21q-102 -14 -264 -55l-75 283q185 59 341 75t604 43l-73 -299q-86 -7 -160 -13l110 -36z" />
    <glyph glyph-name="bracketleft" unicode="[" horiz-adv-x="557" 
d="M473 1277q-62 -256 -128.5 -560.5t-110.5 -556.5l224 78l-43 -236l-472 -167q117 669 305 1416l-16 -4l-74 194q185 60 384 72l145 13l-41 -229z" />
    <glyph glyph-name="backslash" unicode="\" horiz-adv-x="734" 
d="M152 1323l190 70q136 -346 354 -1144l-200 -70q-218 798 -344 1144z" />
    <glyph glyph-name="backslash.3" horiz-adv-x="691" 
d="M190 1375l163 57q116 -307 302 -1014l-172 -58q-186 707 -293 1015z" />
    <glyph glyph-name="backslash.4" horiz-adv-x="675" 
d="M209 1425l152 44q108 -293 281 -964l-160 -43q-173 671 -273 963z" />
    <glyph glyph-name="backslash.5" horiz-adv-x="657" 
d="M223 1436l141 40q99 -280 257 -918l-148 -40q-158 639 -250 918z" />
    <glyph glyph-name="backslash.6" horiz-adv-x="637" 
d="M225 1443l134 38q94 -266 244 -872l-141 -38q-150 607 -237 872z" />
    <glyph glyph-name="bracketright" unicode="]" horiz-adv-x="557" 
d="M415 102l-472 -157q21 118 44 239l223 68q102 537 249 1123q-88 -9 -192 -38l-74 194q185 60 362 73l177 12q-101 -435 -166.5 -734t-150.5 -780z" />
    <glyph glyph-name="asciicircum" unicode="^" horiz-adv-x="718" 
d="M727 793l-102 -39l-118 132l-191 -132l-100 32l215 236l182 7z" />
    <glyph glyph-name="underscore" unicode="_" horiz-adv-x="718" 
d="M-87 -282q19 105 41 209q416 163 764 267l-36 -195q-327 -102 -769 -281z" />
    <glyph glyph-name="underscore.3" horiz-adv-x="615" 
d="M-62 -15q17 89 36 196q361 122 663 199l-35 -175q-307 -89 -664 -220z" />
    <glyph glyph-name="underscore.4" horiz-adv-x="573" 
d="M-42 199q16 84 33 177q319 84 616 137l-33 -159q-299 -61 -616 -155z" />
    <glyph glyph-name="underscore.5" horiz-adv-x="529" 
d="M-30 349q15 79 31 159q278 51 568 61l-31 -157q-292 -12 -568 -63z" />
    <glyph glyph-name="underscore.6" horiz-adv-x="499" 
d="M-28 410q15 75 30 151q264 49 539 58l-29 -149q-277 -11 -540 -60z" />
    <glyph glyph-name="grave" unicode="`" horiz-adv-x="718" 
d="M847 1416l-130 3l-189 168l198 112z" />
    <glyph glyph-name="grave.3" horiz-adv-x="706" 
d="M837 1430l-112 5l-162 152l171 94z" />
    <glyph glyph-name="grave.4" horiz-adv-x="704" 
d="M838 1429l-104 11l-151 152l159 77z" />
    <glyph glyph-name="grave.5" horiz-adv-x="700" 
d="M831 1435l-96 12l-139 145l147 72z" />
    <glyph glyph-name="grave.6" horiz-adv-x="688" 
d="M821 1442l-91 11l-132 138l140 69z" />
    <glyph glyph-name="a" unicode="a" horiz-adv-x="720" 
d="M217 424q-54 -157 -61 -234l-237 -72q10 175 106.5 437.5t400.5 743.5l168 22q79 -301 94.5 -465t15.5 -245q0 -129 -15 -260l-213 -66q6 128 9 222zM312 673l175 41q-7 111 -31 215q-68 -80 -144 -256z" />
    <glyph glyph-name="a.3" horiz-adv-x="612" 
d="M211 577q-47 -138 -53 -205l-204 -58q9 154 92.5 383t346.5 646l144 15q66 -242 79.5 -397.5t13.5 -224.5q0 -116 -13 -233l-183 -54q6 113 8 196zM294 794l150 32q-6 98 -26 190q-59 -69 -124 -222z" />
    <glyph glyph-name="a.4" horiz-adv-x="571" 
d="M213 667q-44 -126 -50 -188l-189 -42q8 143 85.5 351.5t322.5 580.5l134 6q61 -246 74 -383t13 -200q0 -109 -13 -219l-170 -39q5 105 8 182zM289 864l141 20q-6 93 -25 180q-55 -61 -116 -200z" />
    <glyph glyph-name="a.5" horiz-adv-x="529" 
d="M208 713q-41 -119 -46 -178l-176 -39q8 136 80.5 333.5t299.5 550.5l124 4q55 -232 67 -363t12 -189q0 -106 -12 -211l-158 -36q5 99 8 172zM279 900l130 19v10q-5 77 -22 160q-51 -58 -108 -189z" />
    <glyph glyph-name="a.6" horiz-adv-x="499" 
d="M206 756q-39 -113 -44 -169l-167 -37q8 129 77 316.5t284 523.5l118 4q52 -221 63.5 -345.5t11.5 -179.5q0 -101 -11 -200l-150 -34q4 94 7 163zM273 934l123 18v9q-5 73 -21 152q-48 -55 -102 -179z" />
    <glyph glyph-name="b" unicode="b" horiz-adv-x="831" 
d="M248 1089q-23 -4 -46 -9l-69 189q153 42 352 49q162 -1 228 -29t115.5 -88.5t39.5 -198.5q-4 -58 -30 -115.5t-82 -106.5q42 -49 48.5 -83.5t6.5 -75.5q0 -154 -123 -257.5t-705 -239.5q90 483 265 965zM330 668q-39 -130 -67 -263q141 41 231 81q107 48 107 104
q0 57 -17.5 80t-47.5 23zM405 1111l76 -32q-49 -111 -89 -223l105 6q71 9 112.5 43.5t52.5 123.5q1 43 -39 64.5t-136 21.5q-38 0 -82 -4z" />
    <glyph glyph-name="b.3" horiz-adv-x="719" 
d="M248 1163q-20 -3 -40 -7l-58 168q131 33 302 35q140 -4 196.5 -30t99 -80.5t33.5 -175.5q-4 -51 -26.5 -101t-70.5 -92q36 -44 41.5 -74.5t5.5 -66.5q0 -136 -106 -224t-607 -196q79 424 230 844zM318 791q-34 -114 -58 -230q120 33 198 66q92 40 93 89q0 50 -15 71
t-41 21zM382 1179l66 -30q-42 -96 -77 -194l91 3q61 6 96.5 35.5t45.5 107.5q1 38 -33.5 58t-116.5 22q-33 1 -72 -2z" />
    <glyph glyph-name="b.4" horiz-adv-x="672" 
d="M252 1214q-18 -2 -37 -4l-55 160q123 24 282 15q130 -12 182.5 -40t92 -81t31.5 -166q-4 -47 -24.5 -92t-65.5 -82q33 -43 38.5 -71.5t4.5 -62.5q0 -126 -98.5 -202t-564.5 -146q73 389 214 772zM317 864q-32 -105 -54 -212q112 24 184 51q86 31 86 77q0 47 -13.5 67
t-37.5 22zM377 1221l61 -32q-39 -87 -71 -176l84 -3q57 3 90 28t42 97q1 36 -31 56.5t-109 26.5q-30 3 -66 3z" />
    <glyph glyph-name="b.5" horiz-adv-x="633" 
d="M250 1234l-34 -4l-51 153q114 21 261 12q120 -13 168.5 -39.5t85 -77.5t28.5 -158q-3 -45 -22.5 -88t-60.5 -77q30 -41 35 -68.5t5 -59.5q-1 -120 -92.5 -191.5t-522.5 -134.5q69 370 200 733zM308 900q-29 -99 -50 -201q104 22 171 47q80 29 80 72q0 45 -12.5 64
t-35.5 22zM366 1239l56 -30q-37 -83 -67 -168l78 -3q53 2 84 26t39 92q1 34 -28.5 53.5t-100.5 26.5q-28 3 -61 3z" />
    <glyph glyph-name="b.6" horiz-adv-x="590" 
d="M242 1251l-32 -4l-48 146q108 20 248 11q114 -12 160 -37.5t80.5 -74t27.5 -149.5q-3 -43 -21.5 -84t-57.5 -73q28 -39 33 -65t5 -57q-1 -114 -88 -181.5t-497 -127.5q66 351 190 696zM298 934q-28 -94 -48 -191q99 21 162 44q76 28 76 69q0 43 -11.5 61t-33.5 21z
M353 1256l53 -29q-35 -79 -64 -159l74 -3q51 2 80.5 24.5t36.5 87.5q1 32 -27 50.5t-95 25.5q-27 3 -58 3z" />
    <glyph glyph-name="c" unicode="c" horiz-adv-x="815" 
d="M701 357q-159 -148 -345 -122.5t-266 221.5t-13 451t245.5 358t329.5 67.5t296 -228.5l-210 -193q-57 198 -145 227t-183.5 -59.5t-131 -220t-6 -261t117.5 -153.5t157.5 42t101.5 145l150 -159q-41 -62 -98 -115z" />
    <glyph glyph-name="c.3" horiz-adv-x="706" 
d="M629 510q-137 -127 -297.5 -101t-228 200.5t-9.5 397.5t212 310t283.5 52.5t253.5 -207.5l-181 -166q-48 176 -123.5 203.5t-158 -48.5t-113.5 -191t-6 -229.5t101 -137.5t136 33.5t87 125.5l129 -143q-35 -54 -85 -99z" />
    <glyph glyph-name="c.4" horiz-adv-x="657" 
d="M608 583q-127 -109 -277 -75.5t-212.5 200.5t-8.5 371.5t197 276t264 31.5t236 -209l-168 -143q-45 167 -115.5 197t-147 -36t-105.5 -171t-5.5 -213.5t94 -134.5t126 23t81.5 112l120 -141q-33 -48 -79 -88z" />
    <glyph glyph-name="c.5" horiz-adv-x="605" 
d="M569 631q-118 -103 -257 -70t-196 192t-6.5 353t183 261.5t244 28.5t218.5 -200l-156 -135q-42 158 -107 187.5t-136 -32.5t-97.5 -162t-5.5 -203.5t86 -128.5t117 21.5t76 105.5l110 -135q-30 -46 -73 -83z" />
    <glyph glyph-name="c.6" horiz-adv-x="567" 
d="M545 678q-112 -98 -244 -66.5t-186 182.5t-6 335.5t173.5 248.5t231.5 27t208 -190l-148 -128q-40 150 -102 178t-129.5 -31t-92.5 -154t-5 -193.5t81.5 -122t111 20.5t72.5 100l105 -128q-29 -44 -70 -79z" />
    <glyph glyph-name="d" unicode="d" 
d="M249 1091q-23 -5 -47 -11l-69 189q153 42 310 49q219 -1 321.5 -100t102.5 -226q0 -149 -70.5 -322t-175 -280t-252 -174t-386.5 -92q90 484 266 967zM392 1115l89 -39q-152 -344 -224 -702q222 106 307 294t85 291q-3 94 -54.5 125t-202.5 31z" />
    <glyph glyph-name="d.3" horiz-adv-x="690" 
d="M685 1267.5q90 -91.5 90 -203.5q0 -131 -61 -281.5t-151 -242.5t-217 -148t-333 -73q79 425 231 846q-20 -4 -41 -9l-58 168q113 35 279 35q171 0 261 -91.5zM249 535l5 4q186 83 259.5 246.5t74.5 254.5q-3 83 -46.5 111t-175.5 31l77 -36q-131 -299 -194 -611z" />
    <glyph glyph-name="d.4" horiz-adv-x="650" 
d="M690.5 1265.5q54.5 -71.5 54.5 -175.5q0 -122 -57 -258.5t-140.5 -217t-202 -125t-309.5 -47.5q73 390 215 774l-38 -6l-55 160q86 17 215 17q72 0 167.5 -25t150 -96.5zM256 627l5 5q173 66 241 214t69 233q-3 77 -44 106t-161 40l70 -38q-122 -272 -180 -560z" />
    <glyph glyph-name="d.5" horiz-adv-x="608" 
d="M491 1377.5q84 -20.5 148 -93.5t64 -172q-1 -116 -54 -245.5t-130.5 -205.5t-187 -117.5t-286.5 -42.5q69 371 200 734q-16 -2 -34 -5l-51 153q78 14 145 15q102 0 186 -20.5zM248 676l5 4q160 62 224 202t64 221q-2 73 -39.5 100.5t-149.5 39.5l65 -37
q-114 -256 -169 -530z" />
    <glyph glyph-name="d.6" horiz-adv-x="573" 
d="M471 1387.5q80 -19.5 141 -89t61 -163.5q-1 -110 -51.5 -233t-124 -195t-177.5 -111.5t-273 -40.5q66 352 190 697q-15 -2 -32 -5l-48 146q74 13 137 14q97 0 177 -19.5zM240 721l5 4q152 59 213 192t61 210q-2 69 -38 95t-142 38l62 -36q-108 -243 -161 -503z" />
    <glyph glyph-name="e" unicode="e" horiz-adv-x="728" 
d="M277 413l461 137l-41 -205l-704 -221q90 485 223 969q-7 -1 -14 -3l-59 179q153 42 352 54l393 29l-54 -198l-398 -39q-31 -124 -60 -246l284 48l-38 -201l-294 -59q-27 -123 -51 -244z" />
    <glyph glyph-name="e.3" horiz-adv-x="626" 
d="M452 1364l338 17l-46 -173l-343 -26q-27 -108 -52 -215l244 36l-33 -176l-253 -46q-24 -108 -45 -213l398 110l-36 -179l-606 -180q79 425 194 848l-12 -2l-50 159q131 33 302 40z" />
    <glyph glyph-name="e.4" horiz-adv-x="589" 
d="M757 1385l-44 -159l-319 -3q-25 -100 -48 -198l227 19l-31 -162l-235 -27q-21 -99 -41 -196l369 79l-33 -165l-564 -131q74 391 181 778q-6 0 -12 -1l-47 151q102 20 228 20q27 0 369 -5z" />
    <glyph glyph-name="e.5" horiz-adv-x="550" 
d="M717 1392l-41 -150l-294 -1q-24 -95 -46 -188l211 17l-29 -154l-218 -25q-21 -94 -39 -186l342 73l-31 -157l-522 -120q69 371 169 739q-6 0 -11 -1l-43 144q92 17 206 17q27 0 346 -8z" />
    <glyph glyph-name="e.6" horiz-adv-x="517" 
d="M686 1401l-39 -142l-279 -1q-23 -91 -44 -179l201 16l-28 -146l-207 -24q-20 -89 -37 -176l325 69l-30 -149l-496 -114q66 352 161 702q-6 0 -10 -1l-41 137q87 16 195 16q26 0 329 -8z" />
    <glyph glyph-name="f" unicode="f" horiz-adv-x="648" 
d="M357 787l243 40l-38 -201l-251 -49q-41 -191 -76 -378l-242 -75q88 470 215 939q-8 -1 -16 -3l-69 199q153 42 282.5 53t412.5 25l-40 -205q-251 -21 -346 -31q-39 -159 -75 -314z" />
    <glyph glyph-name="f.3" horiz-adv-x="555" 
d="M332 895l210 30l-34 -176l-213 -39q-32 -132 -69 -330l-208 -61q77 413 187 823q-7 -2 -14 -3l-59 176q132 34 243.5 41t354.5 13l-35 -179q-216 -13 -297 -20q-35 -139 -66 -275z" />
    <glyph glyph-name="f.4" horiz-adv-x="523" 
d="M331 959l194 16l-31 -162l-201 -24q-33 -153 -61 -303l-194 -44q71 379 174 755q-6 -1 -13 -2l-55 169q120 23 227 23q103 -1 329 -10l-32 -165q-225 0 -276 -1q-32 -127 -61 -252z" />
    <glyph glyph-name="f.5" horiz-adv-x="488" 
d="M322 991l180 13l-29 -154l-187 -21q-25 -117 -57 -288l-179 -40q67 360 163 717l-12 -2l-50 160q108 21 209 21q96 -1 305 -11l-30 -157q-123 1 -256 1q-30 -120 -57 -239z" />
    <glyph glyph-name="f.6" horiz-adv-x="458" 
d="M311 1020l171 13l-28 -147l-177 -20q-24 -111 -55 -273l-170 -38q64 342 155 681q-5 -1 -11 -2l-48 152q103 20 199 20q91 -1 290 -11l-29 -149q-121 1 -243 1q-29 -114 -54 -227z" />
    <glyph glyph-name="g" unicode="g" horiz-adv-x="888" 
d="M667 320q-139 -107 -291 -80q-176 30 -266 221t-18 446t250.5 358t329.5 67.5t296 -228.5l-210 -193q-57 198 -145 227t-183.5 -59.5t-136 -220t-6 -261t117.5 -158.5t209 105q24 155 57 295l215 -114q-67 -299 -83 -460z" />
    <glyph glyph-name="g.3" horiz-adv-x="753" 
d="M591 478q-120 -91 -250 -64q-151 30 -228 200t-14 393t216.5 310t283.5 52.5t254 -207.5l-181 -166q-48 176 -124 203.5t-158 -48.5t-118 -191t-6.5 -229.5t101 -142t145.5 44.5q19 21 34 44q21 136 50 258l185 -105q-59 -262 -73 -403z" />
    <glyph glyph-name="g.4" horiz-adv-x="701" 
d="M567 556q-111 -77 -233 -44q-141 37 -212.5 200t-12.5 367.5t202 276t264 31.5t236 -209l-168 -143q-45 167 -115.5 197t-152 -36t-110 -171t-1.5 -214t93.5 -138.5t135.5 33.5q17 17 31 37q20 126 47 239l172 -109q-54 -241 -67 -372z" />
    <glyph glyph-name="g.5" horiz-adv-x="654" 
d="M541 606q-104 -73 -216 -41q-130 36 -196 191.5t-12.5 349.5t186 261.5t244 28.5t217.5 -200l-156 -135q-41 158 -106 187.5t-136 -32.5t-100.5 -162t-4.5 -203.5t86.5 -132.5t125.5 30q16 17 29 37q19 119 44 225l159 -105q-51 -228 -64 -352z" />
    <glyph glyph-name="g.6" horiz-adv-x="621" 
d="M519 654q-98 -69 -205 -38q-123 34 -186 181.5t-12 332t177 248.5t232 27t206 -190l-148 -128q-39 150 -100.5 178t-131.5 -31t-95.5 -154t-2 -193.5t82 -126t119.5 28.5q15 17 27 36q18 113 42 213l151 -99q-48 -217 -61 -335z" />
    <glyph glyph-name="h" unicode="h" horiz-adv-x="831" 
d="M312 586q-44 -207 -77 -387l-242 -75q97 521 253 1141l227 25q-62 -259 -114 -488l215 41q49 232 105 465l227 28q-123 -537 -198 -994l-242 -75q30 181 65 363z" />
    <glyph glyph-name="h.3" horiz-adv-x="726" 
d="M303 719q-38 -181 -67 -339l-208 -61q85 457 220 999l195 17q-54 -226 -99 -427l185 31q43 204 92 408l195 19q-107 -470 -173 -870l-208 -61q26 159 57 318z" />
    <glyph glyph-name="h.4" horiz-adv-x="678" 
d="M305 798q-36 -167 -63 -312l-194 -44q79 420 205 918l181 4q-50 -208 -91 -393l171 19q39 187 85 374l182 6q-100 -431 -161 -801l-193 -44q24 147 53 293z" />
    <glyph glyph-name="h.5" horiz-adv-x="639" 
d="M298 837q-33 -159 -59 -296l-179 -40q74 399 192 871l168 3q-47 -198 -86 -373l159 16q37 178 79 355l168 5q-93 -409 -150 -760l-179 -41q23 139 50 278z" />
    <glyph glyph-name="h.6" horiz-adv-x="605" 
d="M289 874q-32 -151 -57 -281l-170 -38q71 379 183 827l159 3q-44 -188 -81 -354l151 15q35 169 75 337l159 5q-88 -389 -142 -722l-170 -39q22 132 47 264z" />
    <glyph glyph-name="i" unicode="i" horiz-adv-x="395" 
d="M254 263l-242 -75q97 567 232 1099l231 21q-136 -542 -221 -1045z" />
    <glyph glyph-name="i.3" horiz-adv-x="357" 
d="M255 437l-208 -61q84 497 202 962l198 13q-118 -474 -192 -914z" />
    <glyph glyph-name="i.4" horiz-adv-x="337" 
d="M261 539l-194 -44q79 458 188 884l185 1q-110 -435 -179 -841z" />
    <glyph glyph-name="i.5" horiz-adv-x="325" 
d="M259 591l-180 -40q74 435 176 840l171 -1q-103 -413 -167 -799z" />
    <glyph glyph-name="i.6" horiz-adv-x="308" 
d="M252 640l-171 -38q71 413 168 798l162 -1q-98 -392 -159 -759z" />
    <glyph glyph-name="j" unicode="j" horiz-adv-x="647" 
d="M827 1352l-34 -200l-151 -16l50 -31q-90 -199 -128 -348.5t-84.5 -398.5t-165 -323.5t-247.5 -74.5q-119 0 -196.5 55.5t-130.5 146.5l166 132q74 -119 175 -119q60 0 117 54t104.5 316t168.5 577q-94 -6 -220 -32l-69 189q153 42 352 54z" />
    <glyph glyph-name="j.3" horiz-adv-x="518" 
d="M713 1377l-30 -176l-130 -10l43 -29q-78 -173 -111 -303.5t-77 -343t-146 -280t-205 -67.5t-169.5 52t-112.5 133l143 112q64 -107 152 -108q50 0 99 45.5t90.5 275t146.5 504.5q-81 -3 -189 -23l-59 167q132 34 303 40z" />
    <glyph glyph-name="j.4" horiz-adv-x="470" 
d="M-90 339q-72 56 -114 134l133 97q59 -103 140 -111q52 0 95.5 38t82 249.5t136.5 461.5q-89 0 -176 -11l-55 160q101 20 227 20q27 0 289 -6l-28 -162l-121 -2l40 -29q-72 -157 -102.5 -276.5t-71.5 -319t-128.5 -249t-171.5 -50.5q-103 0 -175 56z" />
    <glyph glyph-name="j.5" horiz-adv-x="419" 
d="M-96 406q-57 49 -96 124l123 91q54 -98 129 -106q49 0 89 36t76.5 236.5t126.5 437.5q-83 0 -163 -9l-50 153q92 17 206 17q27 0 272 -8l-26 -153l-112 -2l37 -28q-68 -148 -96.5 -262t-64.5 -303t-118.5 -235.5t-161.5 -46.5q-114 9 -171 58z" />
    <glyph glyph-name="j.6" horiz-adv-x="379" 
d="M-98.5 464.5q-54.5 46.5 -91.5 117.5l117 87q51 -93 123 -101q46 0 84 34t73 224.5t120 416.5q-79 0 -155 -9l-47 145q87 16 195 16q26 0 259 -7l-25 -145l-106 -2l35 -27q-65 -141 -92 -249t-63.5 -287.5t-112.5 -224t-151 -44.5q-108 9 -162.5 55.5z" />
    <glyph glyph-name="k" unicode="k" horiz-adv-x="734" 
d="M511 697l216 -310l-180 -119l-238 356q-50 -229 -86 -425l-242 -75q97 521 253 1141l227 25q-59 -243 -107 -460l373 519l177 -117z" />
    <glyph glyph-name="k.3" horiz-adv-x="638" 
d="M473 813l185 -278l-155 -101l-204 319q-43 -201 -75 -373l-208 -61q85 457 220 999l195 17q-51 -213 -94 -404l323 450l152 -106z" />
    <glyph glyph-name="k.4" horiz-adv-x="599" 
d="M461 874l172 -270l-144 -85l-190 309q-39 -184 -69 -342l-194 -44q79 420 205 918l181 4q-47 -196 -87 -370l300 399l142 -109z" />
    <glyph glyph-name="k.5" horiz-adv-x="559" 
d="M442 908l159 -257l-134 -80l-175 295q-37 -175 -65 -325l-179 -40q74 399 192 871l168 3q-45 -186 -82 -353l279 379l130 -104z" />
    <glyph glyph-name="k.6" horiz-adv-x="525" 
d="M425 941l151 -244l-128 -76l-166 280q-35 -166 -62 -308l-170 -38q71 379 183 827l159 3q-42 -177 -77 -335l265 360l123 -99z" />
    <glyph glyph-name="l" unicode="l" horiz-adv-x="568" 
d="M270 432l375 108l-38 -220l-624 -196q97 521 253 1141l227 25q-116 -480 -193 -858z" />
    <glyph glyph-name="l.3" horiz-adv-x="508" 
d="M265 584l323 87l-33 -192l-537 -160q85 457 220 999l195 17q-101 -419 -168 -751z" />
    <glyph glyph-name="l.4" horiz-adv-x="486" 
d="M269 674l299 62l-30 -178l-500 -116q79 420 205 918l181 4q-93 -385 -155 -690z" />
    <glyph glyph-name="l.5" horiz-adv-x="461" 
d="M264 719l278 57l-29 -169l-463 -106q74 399 192 871l168 3q-88 -366 -146 -656z" />
    <glyph glyph-name="l.6" horiz-adv-x="437" 
d="M256 762l264 54l-28 -161l-440 -100q71 379 183 827l159 3q-83 -348 -138 -623z" />
    <glyph glyph-name="m" unicode="m" horiz-adv-x="952" 
d="M306 613q-42 -193 -83 -414l-242 -75q81 435 196 869l-57 169l173 147l193 -552l336 572l227 28q-128 -557 -193 -964l-242 -75q30 183 68 376l-258 -428z" />
    <glyph glyph-name="m.3" horiz-adv-x="830" 
d="M297 743q-37 -169 -73 -363l-208 -61q71 382 171 762l-49 149l149 126l165 -490l290 496l195 20q-111 -488 -168 -845l-208 -60q26 161 59 330l-223 -372z" />
    <glyph glyph-name="m.4" horiz-adv-x="778" 
d="M297 820q-34 -156 -67 -334l-194 -44q66 350 159 698l-46 143l139 108l153 -466l270 445l182 6q-104 -447 -156 -776l-194 -44q24 148 55 303l-207 -332z" />
    <glyph glyph-name="m.5" horiz-adv-x="720" 
d="M291 858q-33 -148 -64 -317l-179 -40q62 333 149 663l-42 136l129 102l140 -445l251 421l168 5q-97 -425 -146 -737l-180 -41q23 141 52 289l-193 -315z" />
    <glyph glyph-name="m.6" horiz-adv-x="681" 
d="M281 894q-31 -141 -61 -301l-170 -38q59 316 142 630l-40 129l123 97l133 -423l238 400l160 5q-92 -404 -139 -701l-171 -38q22 133 49 274l-183 -299z" />
    <glyph glyph-name="n" unicode="n" 
d="M320 673q-50 -220 -97 -474l-242 -75q87 467 213 933l-54 165l194 87l202 -595q59 297 131 594l227 28q-123 -537 -198 -994l-243 -76z" />
    <glyph glyph-name="n.3" horiz-adv-x="702" 
d="M308 795q-43 -192 -84 -415l-208 -61q76 409 185 816l-46 147l167 73l173 -528q51 260 114 520l195 19q-107 -470 -173 -870l-209 -62z" />
    <glyph glyph-name="n.4" horiz-adv-x="654" 
d="M308 867q-40 -176 -78 -381l-194 -44q71 376 173 748l-44 141l156 57l160 -502q48 240 106 478l182 6q-100 -431 -161 -801l-194 -44z" />
    <glyph glyph-name="n.5" horiz-adv-x="605" 
d="M301 904q-38 -168 -74 -363l-179 -40q66 357 161 711l-39 133l144 54l147 -479q45 227 99 453l168 5q-93 -409 -150 -760l-178 -41l-2 -1z" />
    <glyph glyph-name="n.6" horiz-adv-x="571" 
d="M291 938q-36 -160 -71 -345l-170 -38q63 339 153 675l-37 127l137 51l140 -455q43 215 94 430l159 5q-88 -389 -142 -722l-169 -39l-2 -1z" />
    <glyph glyph-name="o" unicode="o" horiz-adv-x="873" 
d="M728 965q-63 150 -142.5 166.5t-175 -66.5t-131 -233.5t-6 -266.5t112.5 -133.5t173.5 65.5t123 217t16.5 243zM788 981l101 26q47 -116 9 -320t-211.5 -347.5t-354.5 -110t-251 207t-3 450t250.5 378t329.5 68.5t291 -214z" />
    <glyph glyph-name="o.3" horiz-adv-x="754" 
d="M654 1044q-54 133 -119 149q-71 17 -153.5 -54t-113.5 -202.5t-6 -235t96.5 -120.5t149.5 54.5t106.5 188.5t14.5 214zM706 1057l87 21q40 -103 7 -282t-183 -302t-305.5 -89.5t-215 188t-1.5 396.5t216 327.5t283.5 53t249.5 -194.5z" />
    <glyph glyph-name="o.4" horiz-adv-x="703" 
d="M626 1080q-50 128 -111 146q-66 20 -142.5 -41t-105.5 -182t-5.5 -219t90 -118.5t139 42t98.5 170t14 198.5zM675 1089l80 14q37 -98 6.5 -263t-170 -271t-284 -65.5t-200 189t-1.5 370t201 292t263.5 32.5t232.5 -196z" />
    <glyph glyph-name="o.5" horiz-adv-x="652" 
d="M593 1103q-46 122 -102 141q-62 19 -133 -39t-98 -172.5t-5.5 -208.5t83 -113.5t128.5 39.5t91.5 161t13.5 188zM636 1110l76 14q34 -94 5 -250t-158 -256.5t-262.5 -60.5t-185 181.5t-0.5 352t187 276t244 29t215 -188.5z" />
    <glyph glyph-name="o.6" horiz-adv-x="612" 
d="M566 1127q-44 116 -97 134q-59 18 -126.5 -37.5t-93 -164t-5 -198t79 -108t122 37.5t87 153t12.5 179zM607 1133l72 14q32 -90 4.5 -238t-150 -243.5t-249 -57.5t-175.5 172.5t-0.5 334.5t177.5 262t231.5 27.5t204.5 -179.5z" />
    <glyph glyph-name="p" unicode="p" horiz-adv-x="767" 
d="M357 751q145 24 208.5 73t63.5 186q0 62 -58 83.5t-129 21.5q-17 0 -41 -2l75 -32q-64 -152 -119 -330zM443 1318q120 0 202.5 -28.5t137 -94t54.5 -184.5q0 -129 -47.5 -231.5t-134 -153.5t-359.5 -99q-39 -156 -71 -328l-242 -75q90 483 265 965q-22 -4 -46 -9l-69 189
q153 49 310 49z" />
    <glyph glyph-name="p.3" horiz-adv-x="675" 
d="M341 863q125 19 179.5 60.5t55.5 161.5q0 55 -50 75t-111 22q-15 0 -36 -1l65 -30q-56 -132 -103 -288zM406 1360q113 -2 184 -29t117.5 -86t46.5 -161q0 -116 -41 -205t-115.5 -132t-309.5 -79q-34 -137 -62 -288l-208 -61q79 424 230 844q-19 -3 -40 -7l-58 168
q131 36 256 36z" />
    <glyph glyph-name="p.4" horiz-adv-x="638" 
d="M339 929q116 10 166.5 45.5t51.5 147.5q0 51 -46.5 73t-103.5 27q-14 1 -34 1l61 -32q-51 -120 -95 -262zM388 1393q116 -4 182 -38t109.5 -91.5t43.5 -155.5q0 -106 -38.5 -186.5t-107.5 -116.5t-287 -55q-32 -125 -58 -264l-194 -44q73 389 214 772q-18 -2 -37 -4
l-55 160q123 23 228 23z" />
    <glyph glyph-name="p.5" horiz-adv-x="595" 
d="M329 962q108 8 155 41.5t47 140.5q0 48 -42.5 69t-94.5 27q-13 1 -31 1l56 -30q-49 -114 -90 -249zM545 1360.5q61 -28.5 100.5 -83.5t39.5 -143q0 -105 -35.5 -181.5t-99.5 -110.5t-267 -50q-30 -118 -54 -251l-179 -40q69 370 200 733q-16 -2 -34 -4l-51 153
q79 19 159 19q35 0 97.5 -6.5t123.5 -35z" />
    <glyph glyph-name="p.6" horiz-adv-x="556" 
d="M317 993q103 7 147.5 39t44.5 134q0 45 -40 65t-90 26q-12 1 -29 1l53 -29q-47 -108 -86 -236zM523 1371q58 -27 95.5 -79t37.5 -137q0 -99 -34 -171.5t-94.5 -105t-253.5 -47.5q-29 -112 -52 -238l-170 -38q66 351 190 696q-15 -2 -32 -4l-48 146q75 17 151 17
q33 0 92.5 -6t117.5 -33z" />
    <glyph glyph-name="q" unicode="q" horiz-adv-x="878" 
d="M787 981l101 26q47 -116 9 -315q-23 -123 -94 -224q54 -80 95 -180l-184 -64q-23 53 -52 98q-149 -113 -311 -82q-181 33 -261 211.5t-13 450t250.5 368t329.5 63.5t291 -214zM537 457q-58 46 -129 77l134 172q61 -32 115 -76q15 37 25 79q32 139 16 248l31 8
q-55 161 -139.5 187t-180 -57t-131 -238.5t-1 -281.5t117.5 -153q70 -24 142 35z" />
    <glyph glyph-name="q.3" horiz-adv-x="745" 
d="M697 1057l87 21q40 -103 7 -277q-20 -108 -82 -196q47 -72 82 -160l-159 -53q-19 47 -45 87q-127 -96 -266 -65q-156 33 -224.5 192t-10.5 396.5t216 318.5t283.5 48.5t249.5 -194.5zM481 602q-50 41 -111 70l115 148q53 -30 99 -70q13 33 22 70q28 121 14 218l26 6
q-46 143 -115 167q-76 25 -158.5 -46t-113.5 -207t-1.5 -247.5t101.5 -137.5q60 -22 122 29z" />
    <glyph glyph-name="q.4" horiz-adv-x="699" 
d="M671 1089l80 14q37 -98 7 -258q-19 -100 -77 -178q43 -70 76 -154l-147 -40q-18 45 -42 85q-119 -82 -248 -45q-145 40 -208.5 192t-9.5 370t201 284t263.5 28t232.5 -196zM469 678q-46 41 -103 72l107 131q49 -31 92 -71q12 29 20 64q26 111 14 202l25 4
q-44 136 -109 163q-70 28 -146.5 -33.5t-105.5 -186t-1.5 -230.5t94.5 -134q56 -25 113 19z" />
    <glyph glyph-name="q.5" horiz-adv-x="657" 
d="M636 1110l76 14q34 -94 5 -246q-18 -94 -71 -167q40 -67 70 -148l-136 -36q-17 43 -38 80q-111 -77 -230 -41q-134 39 -193 184t-8 352t187 268.5t244 25t215 -188.5zM450 722q-43 39 -95 69l99 124q45 -30 85 -68q11 28 19 60q24 106 13 192l23 4q-40 130 -100 156
q-65 27 -136 -30.5t-98 -176.5t-2 -219.5t87 -127.5q51 -24 105 17z" />
    <glyph glyph-name="q.6" horiz-adv-x="619" 
d="M609 1133l73 14q32 -90 4 -234q-17 -89 -67 -159q38 -63 66 -140l-129 -35q-16 41 -36 76q-105 -73 -218 -39q-128 38 -184 175.5t-7.5 334t178 255t232 24t203.5 -179.5zM433 765q-41 37 -90 65l94 118q42 -28 80 -65q11 27 18 57q23 101 13 183l22 4q-38 123 -95 148
q-62 25 -129.5 -29.5t-93 -167.5t-2 -208.5t82.5 -120.5q48 -23 100 16z" />
    <glyph glyph-name="r" unicode="r" horiz-adv-x="767" 
d="M357 751q145 24 208.5 73t63.5 186q0 62 -58 83.5t-129 21.5q-17 0 -41 -2l75 -32q-64 -152 -119 -330zM648 622q29 -41 46.5 -74t32.5 -180l-204 -103q-3 111 -19.5 180.5t-51.5 112.5q-69 -16 -156 -31q-39 -156 -71 -328l-242 -75q90 483 265 965q-22 -4 -46 -9
l-69 189q153 49 310 49q120 0 202.5 -28.5t137 -94t54.5 -184.5q0 -129 -47.5 -231.5t-141.5 -157.5z" />
    <glyph glyph-name="r.3" horiz-adv-x="680" 
d="M341 863q125 19 179.5 60.5t55.5 161.5q0 55 -50 75t-111 22q-15 0 -36 -1l65 -30q-56 -132 -103 -288zM591 743q24 -36 39.5 -65.5t27.5 -159.5l-175 -86q-3 98 -17 159.5t-44 100.5q-59 -13 -134 -24q-34 -137 -62 -288l-208 -61q79 424 230 844q-19 -3 -40 -7l-58 168
q122 37 250 37q119 -3 190 -30t118 -85.5t47 -168.5q-1 -109 -42 -198t-122 -136z" />
    <glyph glyph-name="r.4" horiz-adv-x="638" 
d="M339 929q116 10 166.5 45.5t51.5 147.5q0 51 -46.5 73t-82 25t-55.5 3l61 -32q-51 -120 -95 -262zM571 802q23 -35 33 -55q18 -37 30 -158l-164 -70q-2 91 -15 149t-41 96q-55 -7 -124 -14q-32 -125 -58 -264l-194 -44q73 389 214 772q-18 -2 -37 -4l-55 160
q112 23 201 23q25 0 89 -5t125 -36t104.5 -88.5t43.5 -155.5q0 -106 -38.5 -186.5t-113.5 -119.5z" />
    <glyph glyph-name="r.5" horiz-adv-x="598" 
d="M329 962q108 8 155 41.5t48 111.5v1q0 76 -43 97t-75.5 24.5t-50.5 3.5l56 -30q-49 -114 -90 -249zM544 839q21 -33 30 -52q17 -35 28 -151l-152 -65q-2 86 -14 141.5t-38 91.5q-50 -7 -115 -12q-30 -118 -54 -251l-179 -40q69 370 200 733q-16 -2 -34 -4l-51 153
q82 19 158 19q30 0 95.5 -6.5t126.5 -35t104 -83.5q39 -51 39 -151q-3 -97 -38.5 -173.5t-105.5 -113.5z" />
    <glyph glyph-name="r.6" horiz-adv-x="559" 
d="M317 993q103 7 147.5 39t45.5 106v1q0 72 -40.5 92t-71.5 23.5t-48 3.5l53 -29q-47 -108 -86 -236zM522 876q20 -32 28 -50q16 -33 27 -143l-145 -62q-1 82 -12.5 134.5t-36.5 87.5q-47 -7 -109 -12q-29 -112 -52 -238l-170 -38q66 351 190 696q-15 -2 -32 -4l-48 146
q78 18 150 18q28 0 90.5 -6.5t120.5 -33.5t98 -79q38 -49 38 -144q-3 -92 -37 -164.5t-100 -107.5z" />
    <glyph glyph-name="s" unicode="s" horiz-adv-x="659" 
d="M739 1179q-126 -12 -270.5 -48.5t-144.5 -152.5q0 -63 159.5 -144t159.5 -264q-19 -208 -185.5 -305.5t-354.5 -132.5l-115 185q101 21 268 85t167 169q0 87 -160.5 146t-160.5 255q0 184 132.5 270.5t382.5 133.5z" />
    <glyph glyph-name="s.3" horiz-adv-x="561" 
d="M698 1235q-108 -8 -249.5 -39t-142.5 -133q0 -56 137 -130.5t137 -235.5q-17 -183 -160.5 -265t-347.5 -110l-99 166q87 16 252 69t166 145q0 77 -137.5 132.5t-137.5 227.5q0 162 114 235.5t364 113.5z" />
    <glyph glyph-name="s.4" horiz-adv-x="521" 
d="M668 1252q-101 -1 -232.5 -21.5t-132.5 -115.5q0 -52 127.5 -130t127.5 -228q-16 -169 -149.5 -237t-323.5 -81l-92 160q81 10 234.5 49.5t154.5 125.5q0 71 -128 131t-128 221q0 151 106 212t339 84z" />
    <glyph glyph-name="s.5" horiz-adv-x="475" 
d="M621 1266q-93 0 -215 -18.5t-122 -109.5q0 -49 117 -124t117 -208q0 -160 -131 -229t-307 -80l-84 153q74 9 216.5 45.5t143.5 117.5q0 68 -118 126t-118 211q0 143 98.5 201t313.5 78z" />
    <glyph glyph-name="s.6" horiz-adv-x="443" 
d="M591 1281q-88 0 -204 -17.5t-116 -103.5q0 -47 111.5 -118t111.5 -198q0 -152 -124.5 -217.5t-291.5 -75.5l-80 145q70 9 205.5 43.5t136.5 111.5q0 65 -112 120t-112 200q0 136 93.5 191t297.5 74z" />
    <glyph glyph-name="t" unicode="t" horiz-adv-x="659" 
d="M514 1112l61 -22q-96 -384 -181 -827l-242 -75q90 469 195 909q-82 -10 -206 -37l-69 199q153 42 282.5 53t462.5 30l-34 -210q-164 -12 -269 -20z" />
    <glyph glyph-name="t.3" horiz-adv-x="537" 
d="M461 1179l51 -20l-17 -68q-67 -268 -141 -656l-208 -61q78 411 169 795q-70 -7 -177 -27l-59 176q132 34 243.5 41t397.5 16l-30 -184q-140 -7 -229 -12z" />
    <glyph glyph-name="t.4" horiz-adv-x="503" 
d="M442 1221l49 -23l-15 -62q-62 -246 -131 -603l-194 -44q73 379 158 731q-65 -2 -165 -15l-55 168q123 23 227 23q103 0 370 -9l-28 -169q-132 2 -216 3z" />
    <glyph glyph-name="t.5" horiz-adv-x="451" 
d="M419 1239l45 -22l-14 -59q-58 -234 -123 -573l-179 -40q68 359 147 694q-60 -2 -152 -13l-50 160q108 20 200 20q105 -1 351 -10l-26 -162q-121 3 -199 5z" />
    <glyph glyph-name="t.6" horiz-adv-x="424" 
d="M405 1256l43 -21l-13 -56q-56 -222 -117 -544l-170 -38q64 341 139 659q-57 -2 -144 -13l-48 152q103 19 190 19q100 0 334 -9l-25 -154q-115 3 -189 5z" />
    <glyph glyph-name="u" unicode="u" horiz-adv-x="768" 
d="M463.5 478.5q55.5 52.5 88.5 289.5t107 542l227 25q-72 -311 -95.5 -470t-75.5 -341t-170 -238t-219 -56q-120 0 -195.5 56t-76.5 206q0 86 24 263.5t108 509.5l227 25q-81 -337 -106 -506t-25 -231q0 -76 20.5 -101.5t59.5 -25.5q46 0 101.5 52.5z" />
    <glyph glyph-name="u.3" horiz-adv-x="673" 
d="M436 628q43 50 72 252.5t93 469.5l196 17q-63 -272 -83.5 -411.5t-65.5 -293.5t-142 -204.5t-183 -50.5q-114 0 -178.5 52t-65.5 184q0 76 21.5 231.5t93.5 446.5l196 17q-71 -295 -92.5 -443t-22.5 -203q0 -67 17.5 -90.5t51.5 -23.5q49 0 92 50z" />
    <glyph glyph-name="u.4" horiz-adv-x="637" 
d="M348 667q45 0 83 42.5t65 229.5t87 432l182 4q-59 -250 -78 -378.5t-58.5 -264t-123 -179.5t-167.5 -44q-100 0 -170 56t-71 179q1 70 20.5 214t87.5 410l181 4q-65 -270 -85.5 -407t-20.5 -187q0 -63 16 -85.5t52 -25.5z" />
    <glyph glyph-name="u.5" horiz-adv-x="595" 
d="M340 712q44 0 78.5 36t60 218.5t80.5 414.5l169 3q-55 -238 -73 -360t-54.5 -250t-113.5 -169.5t-154 -41.5q-113 0 -168.5 54t-55.5 171q0 67 18.5 203.5t81.5 389.5l168 3q-61 -257 -80 -387t-19 -179q0 -59 15 -81t47 -25z" />
    <glyph glyph-name="u.6" horiz-adv-x="564" 
d="M330 755q42 0 75 34.5t57 207.5t76 394l161 3q-52 -227 -69.5 -342.5t-52 -237.5t-107.5 -161t-146 -39q-108 0 -160.5 51t-52.5 162q0 64 17.5 193.5t77.5 370.5l159 3q-57 -245 -75.5 -368.5t-18.5 -169.5q0 -56 14.5 -77t44.5 -24z" />
    <glyph glyph-name="v" unicode="v" horiz-adv-x="720" 
d="M663 1313l227 32q-30 -155 -116.5 -397.5t-390.5 -708.5l-167 -49q-100 443 -100 699q0 103 14 367l213 27q-1 -145 -8.5 -355t26.5 -334q78 114 175 334.5t127 384.5z" />
    <glyph glyph-name="v.3" horiz-adv-x="595" 
d="M584 1354l195 23q-26 -135 -101 -347t-337 -615l-144 -40q-85 392 -84 618q0 90 13 322l183 19q-1 -127 -8 -311.5t22 -294.5q67 98 151 290t110 336z" />
    <glyph glyph-name="v.4" horiz-adv-x="555" 
d="M561 1378l182 10q-25 -125 -94.5 -318t-313.5 -553l-134 -28q-79 371 -78 580q0 85 12 300l170 7q-1 -119 -7.5 -290.5t20.5 -275.5q63 88 141 261.5t102 306.5z" />
    <glyph glyph-name="v.5" horiz-adv-x="514" 
d="M532 1388l168 8q-22 -119 -87 -301.5t-292 -523.5l-124 -26q-72 353 -71 552q0 81 12 286l157 5q-1 -113 -7.5 -276.5t18.5 -262.5q58 83 130.5 248t95.5 291z" />
    <glyph glyph-name="v.6" horiz-adv-x="476" 
d="M514 1397l160 8q-21 -113 -83 -286.5t-277 -497.5l-118 -24q-69 335 -68 524q0 77 12 272l149 4q-1 -107 -7 -262.5t17 -249.5q55 79 124 236t91 276z" />
    <glyph glyph-name="w" unicode="w" horiz-adv-x="883" 
d="M628 628q108 217 151.5 380.5t73.5 328.5l227 28q-30 -156 -86.5 -385.5t-290.5 -651.5l-167 -46q-36 61 -50 125q-52 -85 -133 -181l-167 -49q-80 446 -80 702q0 103 14 367l213 27q-1 -145 -8.5 -365t23.5 -334q46 70 112 248l152 24q9 -181 16 -218z" />
    <glyph glyph-name="w.3" horiz-adv-x="730" 
d="M541 752q93 180 131 331.5t64 287.5l195 20q-26 -128 -75 -337.5t-251 -567.5l-144 -37q-31 55 -42 111q-45 -73 -115 -156l-144 -40q-68 395 -67 620q0 90 13 322l183 20q-1 -128 -8 -321.5t19 -294.5q40 61 97 216l131 18q7 -160 13 -192z" />
    <glyph glyph-name="w.4" horiz-adv-x="678" 
d="M520 818q87 162 122 301t59 264l182 7q-24 -118 -70 -310.5t-234 -513.5l-134 -25q-28 52 -39 106q-42 -66 -107 -139l-134 -28q-63 371 -62 581q0 85 12 300l170 7q-1 -119 -7.5 -299t18.5 -275q37 54 90 195l121 9q7 -149 13 -180z" />
    <glyph glyph-name="w.5" horiz-adv-x="635" 
d="M501 855q81 154 114 286t55 251l169 5q-23 -112 -66 -294.5t-217 -486.5l-124 -24q-27 50 -37 101q-39 -62 -99 -131l-124 -26q-57 354 -56 554q0 80 12 285l157 5q-1 -113 -7.5 -284t16.5 -262q34 51 84 185l112 7q6 -141 11 -171z" />
    <glyph glyph-name="w.6" horiz-adv-x="599" 
d="M484 891q77 146 108.5 271.5t51.5 238.5l161 5q-22 -106 -63 -279.5t-206 -462.5l-118 -23q-25 48 -35 96q-37 -59 -94 -124l-118 -25q-54 336 -53 526q0 76 12 271l149 5q-1 -108 -7.5 -270t15.5 -249q33 49 80 176l106 6q6 -133 11 -162z" />
    <glyph glyph-name="x" unicode="x" horiz-adv-x="744" 
d="M458 994l249 355l187 -97l-337 -479l170 -376l-190 -119l-128 285l-299 -426l-197 81l397 566l-195 436l204 82z" />
    <glyph glyph-name="x.3" horiz-adv-x="632" 
d="M418 1073l215 307l161 -89l-291 -414l145 -335l-164 -100l-109 253l-258 -368l-169 75l343 490l-167 388l175 67z" />
    <glyph glyph-name="x.4" horiz-adv-x="580" 
d="M405 1116l200 273l150 -93l-271 -368l135 -321l-152 -83l-101 242l-241 -327l-157 80l319 435l-156 372l164 53z" />
    <glyph glyph-name="x.5" horiz-adv-x="537" 
d="M386 1139l186 258l138 -89l-251 -349l124 -306l-141 -78l-93 231l-224 -310l-145 78l296 412l-143 355l152 48z" />
    <glyph glyph-name="x.6" horiz-adv-x="501" 
d="M378 1161l176 245l132 -85l-239 -331l118 -291l-134 -74l-88 219l-213 -294l-138 74l281 391l-136 338l145 45z" />
    <glyph glyph-name="y" unicode="y" horiz-adv-x="710" 
d="M289 618q-102 277 -125.5 394t-33.5 241l220 26q6 -95 20 -194t60 -217q73 78 139 211t77 229l234 27q-12 -90 -70.5 -250t-290.5 -453q-43 -200 -75 -373l-242 -75q39 209 87 434z" />
    <glyph glyph-name="y.3" horiz-adv-x="598" 
d="M273 751q-88 246 -108 349.5t-28 212.5l189 18q5 -84 17 -171t51 -192q63 67 120 182.5t67 199.5l201 19q-10 -79 -60.5 -218.5t-251.5 -391.5q-36 -175 -65 -328l-208 -60q34 183 76 380z" />
    <glyph glyph-name="y.4" horiz-adv-x="550" 
d="M269 835q-82 235 -100.5 333t-25.5 200l176 5q4 -78 15 -160t48 -182q58 58 111.5 162.5t62.5 182.5l187 5q-10 -73 -57 -200t-234 -351q-34 -160 -60 -300l-194 -44q32 169 71 349z" />
    <glyph glyph-name="y.5" horiz-adv-x="510" 
d="M263 875q-75 223 -92 316t-24 190l163 4q4 -74 14 -152.5t44 -173.5q54 55 103.5 154t57.5 173l174 4q-10 -70 -53.5 -190.5t-217.5 -331.5q-32 -153 -56 -285l-180 -41q30 161 67 333z" />
    <glyph glyph-name="y.6" horiz-adv-x="472" 
d="M253 910q-71 212 -87 300.5t-23 180.5l155 4q4 -71 13.5 -145.5t41.5 -164.5q51 52 98 146t55 164l165 4q-9 -66 -50.5 -180.5t-206.5 -315.5q-31 -145 -53 -270l-171 -39q28 153 63 316z" />
    <glyph glyph-name="z" unicode="z" horiz-adv-x="749" 
d="M392 467l350 111l-41 -230l-675 -206l45 224l495 747q-130 -9 -195.5 -16.5t-199.5 -36.5l-69 199q153 42 282.5 53t502.5 30l-54 -210q-72 -5 -133 -9l93 -26z" />
    <glyph glyph-name="z.3" horiz-adv-x="642" 
d="M367 614l301 90l-36 -202l-581 -167l40 196l426 648q-111 -6 -151 -9q-73 -7 -188 -30l-59 177q132 33 243.5 40t432.5 16l-47 -184q-62 -3 -115 -5l80 -25z" />
    <glyph glyph-name="z.4" horiz-adv-x="597" 
d="M351 1391q103 -1 401 -12l-43 -168q-58 1 -107 2l75 -28l-323 -488l281 66l-33 -186l-541 -120l37 180l397 578h-141q-68 -2 -175 -16l-55 168q117 23 227 24z" />
    <glyph glyph-name="z.5" horiz-adv-x="550" 
d="M715 1387l-41 -160q-53 2 -98 3l68 -27l-299 -462l260 61l-32 -177l-500 -110l34 171l370 546q-77 2 -131 2q-63 -1 -162 -14l-50 160q109 21 202 21q103 -1 379 -14z" />
    <glyph glyph-name="z.6" horiz-adv-x="508" 
d="M675 1396l-39 -152q-50 2 -93 3l64 -25l-284 -439l247 58l-30 -168l-475 -105l32 162l352 519q-72 2 -125 2q-60 -1 -154 -13l-47 152q102 20 191 20q99 -1 361 -14z" />
    <glyph glyph-name="braceleft" unicode="{" horiz-adv-x="663" 
d="M282.5 906.5q-10.5 123.5 46 290t330.5 255.5l83 -188q-66 -23 -138.5 -67t-84.5 -134t-6 -191t-82 -181q94 -75 23.5 -204t-82 -174t14.5 -94.5t153 -89.5l-98 -179q-161 33 -232.5 123t-69.5 174t55.5 197t-98.5 86l46 232q150 21 139.5 144.5z" />
    <glyph glyph-name="braceleft.3" horiz-adv-x="606" 
d="M303.5 1004q-8.5 109 40.5 254.5t285 217.5l71 -167q-57 -19 -119.5 -56t-73 -116t-5.5 -168t-71 -158q80 -68 19.5 -180t-70.5 -151.5t12 -83.5t131 -82l-84 -155q-139 32 -200 113t-59.5 155t48 172t-84.5 78l40 203q129 15 120.5 124z" />
    <glyph glyph-name="braceleft.4" horiz-adv-x="584" 
d="M312 1070q-8 102 37.5 234.5t264.5 186.5l66 -160q-53 -15 -111 -45.5t-67.5 -103.5t-5 -156.5t-66.5 -142.5q75 -68 18.5 -169t-66 -137t11.5 -78.5t122 -84.5l-78 -139q-129 38 -186 117t-55.5 148t44.5 157.5t-78 77.5l37 187q120 6 112 108z" />
    <glyph glyph-name="braceleft.5" horiz-adv-x="561" 
d="M315.5 1097q-7.5 97 35 223t245.5 175l61 -153q-49 -13 -103 -42t-63 -98t-5 -148.5t-62 -135.5q70 -65 17 -160.5t-61.5 -130t10.5 -75t113 -80.5l-73 -133q-119 38 -172 113.5t-51 141t42 149.5t-72 74l34 178q112 5 104.5 102z" />
    <glyph glyph-name="braceleft.6" horiz-adv-x="537" 
d="M311 1121q-7 92 33 211.5t233 166.5l58 -145q-46 -13 -97.5 -40.5t-60 -93t-4.5 -141t-59 -128.5q66 -62 16 -152.5t-58 -123.5t10 -71.5t107 -76.5l-69 -126q-113 36 -163.5 107.5t-48.5 134t40 142t-69 70.5l33 169q106 5 99 97z" />
    <glyph glyph-name="bar" unicode="|" horiz-adv-x="386" 
d="M294 1487l231 21q-96 -384 -175 -745t-136 -700l-242 -75q67 394 149.5 768.5t172.5 730.5z" />
    <glyph glyph-name="braceright" unicode="}" horiz-adv-x="663" 
d="M458.5 595.5q10.5 -123.5 -46 -290t-330.5 -255.5l-83 188q66 23 138.5 67t85 134t6 191.5t81.5 180.5q-94 75 -23.5 204t82 174t-14.5 94.5t-153 89.5l98 179q161 -33 232.5 -123t69.5 -174t-55.5 -197t98.5 -86l-46 -232q-150 -21 -139.5 -144.5z" />
    <glyph glyph-name="braceright.3" horiz-adv-x="606" 
d="M430.5 724.5q8.5 -108.5 -40.5 -254t-284 -217.5l-71 167q56 19 118.5 56t73.5 116t6 168.5t70 156.5q-80 68 -19 180t71 151.5t-12.5 83.5t-131.5 82l85 156q138 -33 199.5 -113.5t59.5 -154.5t-48.5 -172.5t84.5 -77.5l-40 -203q-129 -16 -120.5 -124.5z" />
    <glyph glyph-name="braceright.4" horiz-adv-x="584" 
d="M423 796q8 -102 -37.5 -234.5t-264.5 -185.5l-66 160q52 14 110.5 44.5t68.5 103.5t5 157t66 142q-75 68 -18.5 169t65.5 137t-11.5 78.5t-121.5 84.5l78 140q129 -39 186 -118t55 -147.5t-45 -157.5t79 -78l-37 -187q-120 -6 -112 -108z" />
    <glyph glyph-name="braceright.5" horiz-adv-x="560" 
d="M408.5 834.5q7.5 -97.5 -35 -223t-245.5 -174.5l-61 153q49 13 102.5 42t63.5 98t5.5 148.5t60.5 134.5q-69 66 -16.5 161.5t61.5 129.5t-10 74.5t-113 81.5l73 132q119 -37 171.5 -112.5t51 -141t-42 -149.5t72.5 -75l-35 -177q-111 -5 -103.5 -102.5z" />
    <glyph glyph-name="braceright.6" horiz-adv-x="536" 
d="M393.5 871.5q7.5 -92.5 -33 -212t-233.5 -165.5l-58 145q47 13 97.5 40.5t60 93t5.5 141t57 127.5q-65 63 -15 153.5t58.5 123t-9.5 71t-108 77.5l70 125q113 -35 162.5 -106.5t48.5 -134t-39.5 -142t68.5 -71.5l-33 -168q-106 -5 -98.5 -97.5z" />
    <glyph glyph-name="asciitilde" unicode="~" horiz-adv-x="718" 
d="M428.5 788.5q45.5 -43.5 81.5 -43.5q37 0 137 94l100 -32q-165 -216 -266 -216q-71 0 -116.5 44t-80.5 44q-38 0 -138 -95l-100 32q165 216 266 216q71 0 116.5 -43.5z" />
    <glyph glyph-name="exclamdown" unicode="&#xa1;" horiz-adv-x="394" 
d="M251.5 1106.5q-27.5 27.5 -27.5 73.5q0 45 37.5 82.5t82.5 37.5q46 0 73.5 -27.5t27.5 -72.5q0 -46 -37.5 -83.5t-83.5 -37.5q-45 0 -72.5 27.5zM182 891l182 55q-37 -407 -132 -789l-271 -41q136 412 221 775z" />
    <glyph glyph-name="exclamdown.3" horiz-adv-x="359" 
d="M247.5 1177q-23.5 25 -23.5 65t32.5 71t70.5 31q40 0 63.5 -24.5t23.5 -64.5q0 -41 -32.5 -72t-71.5 -31t-62.5 25zM187 989l157 44q-33 -357 -115 -691l-234 -31q118 360 192 678z" />
    <glyph glyph-name="exclamdown.4" horiz-adv-x="347" 
d="M239 1226.5q-22 24.5 -22 62.5q0 37 30 61.5t66 24.5q37 0 59 -24.5t22 -61.5t-30.5 -62t-66.5 -25t-58 24.5zM183 1055l145 32q-30 -331 -107 -637l-217 -15q110 328 179 620z" />
    <glyph glyph-name="exclamdown.5" horiz-adv-x="333" 
d="M231.5 1246.5q-20.5 23.5 -20.5 59.5q1 35 28.5 58t61.5 23t54 -23.5t20 -58.5q0 -36 -28 -59t-62 -23q-33 0 -53.5 23.5zM179 1083l135 30q-29 -315 -101 -606l-200 -12q102 311 166 588z" />
    <glyph glyph-name="exclamdown.6" horiz-adv-x="315" 
d="M242.5 1263.5q-19.5 22.5 -19.5 56.5q1 33 27 55t58 22q33 0 52 -22.5t19 -55.5q0 -34 -26.5 -56t-59.5 -22q-31 0 -50.5 22.5zM193 1108l128 29q-28 -300 -96 -576l-190 -12q97 296 158 559z" />
    <glyph glyph-name="cent" unicode="&#xa2;" horiz-adv-x="835" 
d="M489 237q-14 -78 -27 -154l-242 -75q22 131 46 260q-103 54 -161 188q-85 196 -18 451t246 358q86 50 166 67q21 88 43 175l231 21q-27 -109 -53 -215q121 -53 238 -209l-210 -193q-57 198 -145 227t-183.5 -59.5t-131 -220t-6 -261t117.5 -153.5t157.5 42t101.5 145
l150 -159q-41 -62 -98 -115q-106 -99 -222 -120z" />
    <glyph glyph-name="sterling" unicode="&#xa3;" horiz-adv-x="783" 
d="M411 868l284 60l-38 -201l-299 -76q-5 -25 -9 -48q-19 -106 -32 -171l475 138l-38 -220l-482 -150v-1l-242 -75q50 267 92 467l-120 -31l46 232l125 26q12 49 23 92q69 264 242 356t279 46.5t161 -178.5l-207 -110q-36 163 -128 77q-91 -85 -132 -233z" />
    <glyph glyph-name="currency" unicode="&#xa4;" horiz-adv-x="794" 
d="M634 888q-49 85 -112 94.5t-138 -37.5t-103 -133t-4.5 -149t88.5 -73t136.5 34.5t97 120.5t12.5 138zM203 1069l-68 151l204 82l59 -131q107 31 198 14q7 -1 14 -3l117 167l187 -97l-118 -168q29 -25 59 -55l-143 -101l90 19q42 -84 8 -233q-25 -111 -118 -196l55 -121
l-190 -119l-57 126q-96 -31 -194 -16l-176 -251l-197 81l185 264q-20 24 -35 53q-62 123 -2 325q38 131 122 209z" />
    <glyph glyph-name="yen" unicode="&#xa5;" horiz-adv-x="730" 
d="M228 820q-41 123 -54 192q-24 117 -34 241l220 26q6 -95 20 -194t60 -217q73 78 139 211t77 229l234 27q-12 -90 -70 -250q-26 -70 -84 -165l38 8l-38 -181l-145 -35q-29 -39 -62 -80l-6 -26l201 52l-38 -181l-202 -61q-16 -81 -30 -157l-242 -75q15 79 31 159l-211 -63
l48 212l203 52l16 74q-4 10 -8 21l-199 -49l48 212z" />
    <glyph glyph-name="yenbig" horiz-adv-x="890" 
d="M281 587q-70 262 -88 389q-24 166 -32 342l265 37q4 -135 17 -275.5t63 -308.5q91 111 175.5 300t101.5 325l282 39q-18 -128 -95 -355q-42 -125 -148 -305q36 11 71 21l-36 -195q-87 -27 -181 -59q-35 -52 -73 -107q-10 -48 -19 -95q123 42 238 76l-36 -195
q-114 -36 -242 -81q-24 -120 -45 -233l-293 -107q21 115 44 232q-112 -43 -233 -92q19 105 41 209q119 47 233 88q18 88 37 178q-116 -45 -240 -95q19 105 41 209q77 30 152 58z" />
    <glyph glyph-name="brokenbar" unicode="&#xa6;" horiz-adv-x="386" 
d="M131 799q78 352 163 688l231 21q-86 -342 -158 -666zM323 637q-62 -295 -109 -574l-242 -75q52 307 114 602z" />
    <glyph glyph-name="section" unicode="&#xa7;" horiz-adv-x="689" 
d="M265 1040q-73 70 -73 202q0 184 132.5 270.5t382.5 133.5l122 -197q-126 -12 -270.5 -48.5t-144.5 -152.5q0 -63 159.5 -144t159.5 -264q-19 -208 -185 -305q-14 -8 -27 -15q72 -77 72 -200q-19 -208 -185.5 -305.5t-354.5 -132.5l-115 185q101 21 268 85t167 169
q0 87 -160.5 146t-160.5 255q0 184 133 271q40 26 80 47zM315 659q14 7 31 13q167 64 167 169q0 30 -19 57q-37 -8 -75 -17q-145 -37 -145 -153q0 -32 41 -69z" />
    <glyph glyph-name="dieresis" unicode="&#xa8;" horiz-adv-x="687" 
d="M491.5 1626.5q27.5 -27.5 27.5 -73.5q0 -45 -37.5 -82.5t-82.5 -37.5q-46 0 -73.5 27.5t-27.5 72.5q0 46 37.5 83.5t83.5 37.5q45 0 72.5 -27.5zM792 1619q25 -25 25 -66q0 -40 -34 -74t-74 -34q-41 0 -66 25t-25 65q0 41 34 75t75 34q40 0 65 -25z" />
    <glyph glyph-name="dieresis.3" horiz-adv-x="648" 
d="M500.5 1618q23.5 -25 23.5 -66q0 -39 -32.5 -71t-71.5 -32t-62.5 25.5t-23.5 64.5q0 41 32 72.5t72 31.5q39 0 62.5 -25zM758.5 1607.5q21.5 -22.5 21.5 -58.5t-29.5 -64.5t-63.5 -28.5q-35 0 -56.5 23t-21.5 58q0 36 29 65t65 29q34 -1 55.5 -23.5z" />
    <glyph glyph-name="dieresis.4" horiz-adv-x="633" 
d="M507 1612q23 -26 23 -64q0 -37 -28.5 -63t-64.5 -26q-37 0 -60.5 26t-23.5 63t29 63.5t66 26.5q36 0 59 -26zM745.5 1602q21.5 -24 21.5 -57t-24.5 -57t-56.5 -24q-33 0 -55 24t-22 56q0 34 25 58t58 24q32 0 53.5 -24z" />
    <glyph glyph-name="dieresis.5" horiz-adv-x="617" 
d="M506.5 1610q22.5 -25 22.5 -61q0 -35 -24.5 -59.5t-60.5 -24.5t-57.5 25t-21.5 60q0 36 26 60.5t60 24.5q33 0 55.5 -25zM731 1598q18 -21 18 -53t-21.5 -54.5t-54.5 -22.5q-30 0 -50.5 23t-20.5 54q0 32 23.5 54.5t57.5 22.5q30 -3 48 -24z" />
    <glyph glyph-name="dieresis.6" horiz-adv-x="598" 
d="M501.5 1606.5q21.5 -23.5 21.5 -58.5q0 -33 -23.5 -56t-57.5 -23t-54.5 23.5t-20.5 56.5q0 34 25 57.5t57 23.5q31 0 52.5 -23.5zM715 1595q17 -20 17 -50q0 -31 -20.5 -52.5t-51.5 -21.5q-29 0 -48.5 22t-19.5 52t22.5 51.5t54.5 21.5q29 -3 46 -23z" />
    <glyph glyph-name="copyright" unicode="&#xa9;" horiz-adv-x="1013" 
d="M897 1021q-83 121 -206 145t-263.5 -60.5t-193 -249t8 -294.5t179.5 -154.5t253 49.5t181.5 222t10.5 333zM1012 1034q40 -241 -27.5 -433t-250 -277.5t-359 -54.5t-262.5 212.5t-11 421t278.5 336t364.5 65t306 -224.5zM668 578q-79 -73 -170.5 -60t-133.5 109.5
t-10 218.5t119.5 172.5t163 33t155.5 -124.5l-131 -121q-32 110 -61 119.5t-65.5 -24.5t-51 -88t-3 -104t39.5 -57.5t53.5 16.5t50.5 85l100 -106q-29 -43 -56 -69z" />
    <glyph glyph-name="ordfeminine" unicode="&#xaa;" horiz-adv-x="507" 
d="M-29 377q22 88 48 193q263 84 519 148l-42 -183q-212 -54 -525 -158zM372 988q-3 40 -6 52q-10 -10 -34 -61zM253 795q-27 -72 -33 -126l-186 -52q8 130 66.5 275t246.5 415l129 15q58 -205 68 -319q3 -41 3 -84q0 -78 -11 -163l-171 -49q6 101 7 121z" />
    <glyph glyph-name="guillemotleft" unicode="&#xab;" horiz-adv-x="879" 
d="M546 936l-37 -51l-197 -268l108 -155l39 -56l-132 -186l-50 75l-36 54l-35 54l-143 214l233 326l116 163l11 16l28 -43l36 -54zM898 982l-33 -45l-177 -242l97 -139l35 -51l-119 -167l-45 68l-32 48l-32 49l-128 192l209 294l105 146l10 15l25 -39l32 -48z" />
    <glyph glyph-name="guillemotleft.3" horiz-adv-x="785" 
d="M515 1022l-32 -44l-170 -232l92 -138l34 -51l-114 -160l-43 67l-31 48l-30 48l-122 192l201 282l100 141l9 13l24 -38l31 -48zM818 1055l-29 -39l-153 -209l84 -125l30 -45l-103 -145l-39 61l-27 43l-27 44l-111 172l181 254l91 127l8 12l22 -35l27 -43z" />
    <glyph glyph-name="guillemotleft.4" horiz-adv-x="747" 
d="M501 1068l-30 -39l-158 -206l86 -135l31 -48l-106 -143l-39 65l-29 47l-28 46l-114 186l187 251l93 125l9 12l22 -37l29 -47zM783 1081l-27 -36l-142 -185l77 -121l28 -44l-95 -129l-36 59l-26 42l-25 42l-102 167l168 226l84 113l8 11l20 -34l26 -42z" />
    <glyph glyph-name="guillemotleft.5" horiz-adv-x="708" 
d="M482 1093l-28 -37l-146 -195l79 -129l29 -46l-99 -135l-37 62l-26 44l-26 45l-105 178l174 237l87 118l8 12l20 -36l27 -44zM743 1103l-25 -33l-132 -175l71 -116l26 -42l-88 -122l-33 56l-24 40l-23 40l-95 160l157 213l77 107l8 11l18 -32l24 -41z" />
    <glyph glyph-name="guillemotleft.6" horiz-adv-x="677" 
d="M466 1117l-26 -35l-139 -185l75 -123l28 -44l-94 -128l-36 59l-24 42l-25 43l-100 169l166 225l82 112l8 11l19 -34l25 -42zM714 1127l-24 -32l-125 -166l68 -110l24 -40l-83 -116l-32 53l-23 38l-21 38l-91 152l150 203l73 101l7 11l17 -31l23 -39z" />
    <glyph glyph-name="registered" unicode="&#xae;" horiz-adv-x="489" 
d="M238 918q35 133 79 255q-7 -1 -13 -1l-15 44q-42 -31 -66.5 -86t-24.5 -97q0 -40 20 -81q9 -20 20 -34zM348 1067q42 3 61 16q18 13 18 55q0 19 -16.5 27t-29.5 9.5t-20 1.5l22 -12q-19 -44 -35 -97zM249 906q7 -7 15 -12q26 -17 72 -17q45 0 103.5 32t82.5 106
q13 41 13 89q0 37 -8 78l15 4q-41 61 -99 73q-15 3 -31 3q-43 0 -88 -24q10 1 20 1q15 0 40 -2.5t48.5 -14t39 -33t15.5 -57.5q0 -39 -14 -69t-41 -44q8 -13 13 -23.5t10 -55.5l-60 -26q-1 34 -5.5 55.5t-14.5 35.5q-20 -3 -45 -5q-9 -35 -27 -84zM600 1193q7 -45 7 -86
q0 -71 -21 -131q-25 -72 -98.5 -121t-158.5 -49q-64 0 -110.5 33t-68.5 78q-23 48 -23 105q0 49 18 105q37 110 126.5 157t154.5 47q21 0 41 -3q80 -16 152 -113z" />
    <glyph glyph-name="registered.3" horiz-adv-x="421" 
d="M247 998q31 116 69 223q-6 -1 -11 -1l-13 39q-36 -26 -57.5 -74t-21.5 -85q0 -35 17 -71q8 -18 17 -31zM342 1127q36 2 53 13q15 11 15 48q0 16 -14 23.5t-25 9t-17 2.5l19 -11q-17 -39 -31 -85zM257 987q6 -6 13 -11q22 -15 62 -16q38 -1 88.5 26t71.5 91q11 36 11 78
q0 33 -6 69l12 3q-35 55 -85 67q-12 3 -26 3q-37 1 -76 -19q9 1 17 0q13 0 34.5 -2.5t42 -13.5t33.5 -30t13 -51q0 -34 -12 -60t-36 -38q7 -12 11.5 -21t8.5 -49l-52 -22q0 30 -4 49t-13 32q-17 -2 -38 -4q-8 -30 -24 -73zM559 1232q6 -39 6 -75q0 -63 -18 -115
q-22 -63 -85 -104.5t-137 -39.5q-55 1 -94.5 31t-58.5 70q-20 43 -20 93q0 43 16 92q32 96 109 135.5t133 38.5q18 -1 35 -4q69 -16 131 -103z" />
    <glyph glyph-name="registered.4" horiz-adv-x="398" 
d="M258 1059q28 106 63 203h-10l-12 38q-34 -23 -53.5 -66.5t-19.5 -77.5q0 -33 16 -68q7 -17 16 -29zM346 1173q34 0 49 9q14 9 14 44q0 15 -13 23t-23.5 10t-15.5 3l17 -12q-15 -35 -28 -77zM266 1048q6 -6 12 -11q21 -16 58 -19q36 -3 83 19t66 81q11 33 11 72
q0 30 -7 65l12 2q-32 53 -79 67q-12 3 -24 4q-35 3 -71 -13q8 0 16 -1q12 -1 32 -4.5t39 -15t31 -30t12 -48.5q0 -32 -11 -55.5t-33 -32.5q6 -12 10 -20.5t8 -46.5l-48 -17q-1 28 -4.5 46t-11.5 30q-16 -1 -36 -1q-7 -28 -21 -66zM548 1258q5 -37 5 -71q0 -58 -17 -106
q-20 -57 -79 -92t-127 -29q-51 5 -88 35.5t-55 68.5q-18 41 -18 88q0 40 15 85q29 87 101 119.5t124 27.5q17 -2 33 -5q64 -19 121 -104z" />
    <glyph glyph-name="registered.5" horiz-adv-x="369" 
d="M261 1096q26 101 60 193h-10l-11 36q-31 -21 -49.5 -62t-18.5 -74q0 -31 14 -65q7 -16 15 -28zM343 1204q31 -1 45 8t14 42q0 15 -12.5 22.5t-22 9.5t-14.5 2l16 -11q-14 -33 -26 -73zM269 1086q5 -6 11 -10q19 -16 53 -19t77.5 17.5t61.5 76.5q9 31 10 68q0 29 -6 62
l11 2q-30 50 -73 64q-11 3 -23 5q-32 3 -65 -13h15q11 -1 29.5 -5t36 -14.5t28.5 -28.5t11 -46q0 -31 -10.5 -53.5t-30.5 -30.5q6 -11 9.5 -19.5t7.5 -44.5l-45 -16q0 27 -3.5 44t-10.5 29q-15 -1 -34 -1q-6 -26 -20 -63zM530 1284q5 -36 5 -68q0 -55 -16 -100
q-19 -55 -73.5 -87.5t-117.5 -26.5q-47 5 -81.5 34t-50.5 66q-17 39 -17 83q1 39 14 81q28 83 94.5 113t114.5 25q15 -1 30 -5q59 -18 112 -99z" />
    <glyph glyph-name="registered.6" horiz-adv-x="343" 
d="M255 1120q24 96 57 183h-10l-10 35q-30 -20 -47.5 -59t-17.5 -71q0 -29 13 -61q7 -16 15 -27zM332 1223q30 -1 43 7q13 9 13 40q0 14 -11.5 21.5t-20.5 9t-14 1.5l15 -10q-13 -31 -25 -69zM262 1110q5 -5 11 -9q18 -15 50 -18t73.5 16.5t58.5 72.5q9 30 9 65q0 27 -5 59
l10 2q-28 47 -69 60q-11 3 -22 5q-30 3 -62 -12h15q10 -1 27.5 -5t34 -14t27 -27t10.5 -43q0 -30 -10 -51.5t-29 -28.5q6 -11 9.5 -19t6.5 -42l-42 -15q0 25 -3.5 41.5t-10.5 27.5q-14 -1 -32 -1q-6 -25 -19 -60zM510 1299q5 -35 5 -65q0 -52 -15 -95q-18 -52 -70 -83
t-112 -25q-44 4 -77 32t-48 63q-16 37 -16 79q1 37 13 76q27 79 90 107.5t108 24.5q15 -1 29 -5q56 -17 106 -94z" />
    <glyph glyph-name="macron" unicode="&#xaf;" horiz-adv-x="687" 
d="M328 1438l30 159l442 9l-23 -143z" />
    <glyph glyph-name="degree" unicode="&#xb0;" horiz-adv-x="394" 
d="M334 1219q-23 0 -42 -19t-19 -42q0 -22 14 -36t37 -14q22 0 41 19t19 41q0 23 -14 37t-36 14zM453 1288q41 -41 41 -110q0 -68 -56 -124t-124 -56q-69 0 -110 41t-41 109q0 69 56 125t125 56q68 0 109 -41z" />
    <glyph glyph-name="plusminus" unicode="&#xb1;" 
d="M370 1047q25 115 52 229l235 36q-26 -112 -50 -222l208 38l-38 -201l-213 -42q-21 -103 -39 -204l-241 -66q21 112 43 223l-194 -38l48 212zM705 578l-38 -201l-644 -127l48 212z" />
    <glyph glyph-name="acute" unicode="&#xb4;" horiz-adv-x="718" 
d="M677 1699l170 -112l-230 -168l-131 -3z" />
    <glyph glyph-name="acute.3" horiz-adv-x="700" 
d="M685 1681l146 -102l-198 -143h-112z" />
    <glyph glyph-name="acute.4" horiz-adv-x="696" 
d="M695 1670l136 -104l-185 -121l-105 7z" />
    <glyph glyph-name="acute.5" horiz-adv-x="689" 
d="M696 1660l125 -100l-171 -114l-97 7z" />
    <glyph glyph-name="acute.6" horiz-adv-x="675" 
d="M691 1656l118 -95l-162 -109l-92 7z" />
    <glyph glyph-name="mu" unicode="&#xb5;" horiz-adv-x="979" 
d="M836 396q-65 13 -99 31q-54 -104 -167.5 -158t-207 -40.5t-135.5 35.5q-55 -178 -129.5 -221.5t-125.5 -60.5l-98 194q54 4 108 55.5t118.5 365.5t84.5 409l233 43q-50 -255 -75 -421.5t40 -193.5t130.5 35t92 253.5t62.5 363.5l31 5l200 33q-34 -159 -44 -228
t-25.5 -173t23.5 -126t87 12l69 -190q-108 -36 -173 -23z" />
    <glyph glyph-name="paragraph" unicode="&#xb6;" horiz-adv-x="993" 
d="M1083 1350q-96 -384 -170 -735t-141 -740l-242 -75q77 444 160 834q48 227 105 463q-55 -7 -127 -21q-63 -262 -118 -513q-89 -411 -156 -800l-242 -75q77 444 170 869q5 26 11 52q-29 14 -65 28q-161 59 -161 255q0 184 132.5 270.5t372.5 126.5t471 61z" />
    <glyph glyph-name="periodcentered" unicode="&#xb7;" horiz-adv-x="197" 
d="M211.319 770.867q23.375 -23.375 23.375 -62.4736q0 -38.249 -31.874 -70.123t-70.123 -31.874q-39.0996 0 -62.4736 23.374q-23.374 23.375 -23.374 61.624q0 39.0986 31.874 70.9727t70.9727 31.874q38.249 0 61.623 -23.374z" />
    <glyph glyph-name="periodcentered" unicode="&#x2219;" horiz-adv-x="197" 
d="M211.319 770.867q23.375 -23.375 23.375 -62.4736q0 -38.249 -31.874 -70.123t-70.123 -31.874q-39.0996 0 -62.4736 23.374q-23.374 23.375 -23.374 61.624q0 39.0986 31.874 70.9727t70.9727 31.874q38.249 0 61.623 -23.374z" />
    <glyph glyph-name="cedilla" unicode="&#xb8;" horiz-adv-x="394" 
d="M81 -56q74 24 104 48t30 54q0 16 -13.5 33t-47.5 17q-28 0 -49 -8l80 123l160 49l-59 -70q20 -13 41 -41.5t21 -71.5q0 -75 -45.5 -116t-113.5 -41q-24 0 -51 4t-57 20z" />
    <glyph glyph-name="cedilla.3" horiz-adv-x="389" 
d="M116 161q63 20 89 40.5t26 46.5q0 14 -11.5 29t-40.5 16q-24 0 -42 -6l69 107l137 39l-50 -60q17 -12 35 -37.5t18 -63.5q-1 -66 -40 -100t-97 -34q-21 0 -44.5 4t-48.5 19z" />
    <glyph glyph-name="cedilla.4" horiz-adv-x="391" 
d="M136 295q60 14 84 31.5t24 42.5q0 13 -11 27.5t-38 17.5q-22 0 -39 -3l64 95l128 29l-47 -53q16 -13 32.5 -37.5t16.5 -60.5q0 -56 -34 -86.5t-93 -30.5q-19 2 -41 7t-46 21z" />
    <glyph glyph-name="cedilla.5" horiz-adv-x="390" 
d="M148 360q55 13 77.5 29.5t22.5 40.5q0 12 -10 26.5t-35 16.5q-21 0 -36 -2l59 90l119 26l-44 -50q15 -12 30 -35.5t15 -57.5q0 -38 -29 -74t-89 -36q-18 1 -38 6.5t-42 19.5z" />
    <glyph glyph-name="cedilla.6" horiz-adv-x="380" 
d="M150 421q52 13 73 28.5t21 37.5q0 12 -9.5 25.5t-32.5 15.5q-20 0 -35 -2l57 86l112 25l-41 -48q14 -11 28.5 -33.5t14.5 -54.5q0 -36 -27.5 -70.5t-85.5 -34.5q-16 1 -35 6t-40 19z" />
    <glyph glyph-name="ordmasculine" unicode="&#xba;" horiz-adv-x="580" 
d="M485 1115q-22 46 -58.5 53t-86 -32.5t-69 -114t-4.5 -125t52.5 -57.5t84 29.5t64.5 103t6 140.5zM647 1154l-22 -5q38 -86 14 -204t-134.5 -198.5t-228.5 -60.5t-163.5 120t-3.5 258t159 217t211 39.5t201 -140.5zM21 377q22 88 48 193q263 84 519 148l-42 -183
q-212 -54 -525 -158z" />
    <glyph glyph-name="guillemotright" unicode="&#xbb;" horiz-adv-x="881" 
d="M73 536l37 51l197 268l-108 155l-39 56l132 186l50 -75l36 -54l35 -54l143 -214l-233 -326l-116 -163l-11 -16l-28 43l-36 54zM476 632l33 46l177 242l-97 139l-35 50l119 168l45 -68l32 -48l32 -49l128 -192l-209 -294l-105 -147l-10 -14l-25 39l-32 48z" />
    <glyph glyph-name="guillemotright.3" horiz-adv-x="790" 
d="M101 681l32 44l170 232l-92 138l-34 50l114 161l43 -67l31 -48l30 -48l122 -192l-201 -282l-100 -141l-9 -13l-24 38l-31 48zM448 757l29 40l153 208l-84 125l-30 45l103 145l38 -60l28 -44l27 -43l110 -173l-181 -253l-90 -127l-8 -13l-22 35l-28 43z" />
    <glyph glyph-name="guillemotright.4" horiz-adv-x="753" 
d="M118 776l29 39l158 206l-86 135l-31 48l106 143l40 -65l29 -47l28 -46l114 -186l-187 -251l-94 -125l-8 -12l-23 37l-28 47zM440 826l27 35l142 185l-77 122l-28 44l95 128l36 -58l26 -42l25 -42l102 -168l-168 -225l-84 -113l-8 -11l-20 33l-26 43z" />
    <glyph glyph-name="guillemotright.5" horiz-adv-x="715" 
d="M127 818l27 37l147 195l-79 128l-29 47l99 135l36 -62l27 -45l25 -44l105 -178l-173 -237l-87 -119l-8 -11l-21 35l-26 45zM425 863l25 34l132 175l-71 116l-26 42l88 121l33 -56l24 -40l23 -40l95 -160l-156 -213l-78 -107l-8 -10l-18 32l-24 40z" />
    <glyph glyph-name="guillemotright.6" horiz-adv-x="684" 
d="M129 856l26 35l140 185l-76 122l-27 45l94 128l34 -59l26 -43l24 -42l99 -169l-164 -225l-83 -113l-7 -10l-20 33l-25 43zM412 899l24 32l125 166l-67 110l-25 40l84 115l31 -53l23 -38l22 -38l90 -152l-148 -202l-74 -102l-8 -9l-17 30l-23 38z" />
    <glyph glyph-name="questiondown" unicode="&#xbf;" horiz-adv-x="710" 
d="M370 1180q0 45 37.5 82.5t82.5 37.5q46 0 73.5 -27.5t27.5 -72.5q0 -46 -37.5 -83.5t-83.5 -37.5q-45 0 -72.5 27.5t-27.5 73.5zM348 961l182 55q-15 -168 -160.5 -319t-145.5 -212q0 -35 29 -68.5t69 -33.5q61 0 94.5 36t90.5 194l180 -193q-115 -153 -196 -193
t-178 -40q-154 0 -227.5 83t-73.5 177q0 157 155 279.5t181 234.5z" />
    <glyph glyph-name="questiondown.3" horiz-adv-x="646" 
d="M308 1047l157 45q-14 -148 -134 -277.5t-128.5 -168t12.5 -75t80 -37.5q100 31 149 204l154 -174q-99 -132 -168.5 -164.5t-153.5 -32.5q-132 3 -202.5 86.5t-51.5 193.5t141 206t145 194zM351.5 1174q-23.5 25 -23.5 65t32.5 71t70.5 31q40 0 63.5 -24.5t23.5 -64.5
q0 -41 -32.5 -72t-71.5 -31t-62.5 25z" />
    <glyph glyph-name="questiondown.4" horiz-adv-x="622" 
d="M295 1101l145 32q-12 -137 -124 -250.5t-120 -148.5t12 -70.5t74 -39.5q93 22 139 181l144 -172q-93 -117 -157.5 -142.5t-142.5 -25.5q-123 10 -188.5 94.5t-48 186t131 183.5t135.5 172zM335 1213.5q-22 24.5 -22 62.5q0 37 30 61.5t66 24.5q37 0 59 -24.5t22 -61.5
t-30.5 -62t-66.5 -25t-58 24.5z" />
    <glyph glyph-name="questiondown.5" horiz-adv-x="595" 
d="M277 1127l134 29q-11 -130 -115 -237.5t-111.5 -140.5t11 -67t68.5 -39q86 21 129 172l132 -164q-85 -111 -145.5 -134.5t-131.5 -23.5q-114 11 -174.5 91.5t-44 177t122 173.5t125.5 163zM314.5 1232.5q-20.5 23.5 -20.5 59.5q1 35 28.5 58t61.5 23t54 -23.5t20 -58.5
q0 -36 -28 -59t-62 -23q-33 0 -53.5 23.5z" />
    <glyph glyph-name="questiondown.6" horiz-adv-x="570" 
d="M281 1152l127 27q-10 -123 -109 -225t-106 -133.5t10.5 -64t64.5 -37.5q82 20 123 164l125 -156q-80 -105 -137.5 -127t-125.5 -22q-108 10 -165.5 86t-42 168t116 165t119.5 155zM316.5 1252.5q-19.5 22.5 -19.5 56.5q1 33 27 55t58 22q33 0 52 -22.5t19 -55.5
q0 -34 -26.5 -56t-59.5 -22q-31 0 -50.5 22.5z" />
    <glyph glyph-name="Agrave" unicode="&#xc0;" horiz-adv-x="838" 
d="M194 141q-71 -223 -82 -332l-288 -103q19 249 145 621.5t510 1055.5l202 32q104 -515 104 -892q0 -233 -28 -486l-258 -93q13 182 20 315zM318 495l211 57q-4 158 -29 306q-84 -114 -182 -363zM699 1516l-130 3l-189 168l198 112z" />
    <glyph glyph-name="Aacute" unicode="&#xc1;" horiz-adv-x="838" 
d="M194 141q-71 -223 -82 -332l-288 -103q19 249 145 621.5t510 1055.5l202 32q104 -515 104 -892q0 -233 -28 -486l-258 -93q13 182 20 315zM318 495l211 57q-4 158 -29 306q-84 -114 -182 -363zM762 1793l170 -112l-230 -168l-131 -3z" />
    <glyph glyph-name="Acircumflex" unicode="&#xc2;" horiz-adv-x="838" 
d="M194 141q-71 -223 -82 -332l-288 -103q19 249 145 621.5t510 1055.5l202 32q104 -515 104 -892q0 -233 -28 -486l-258 -93q13 182 20 315zM318 495l211 57q-4 158 -29 306q-84 -114 -182 -363zM875 1553l-102 -39l-108 112l-161 -112l-100 32l195 216l182 7z" />
    <glyph glyph-name="Atilde" unicode="&#xc3;" horiz-adv-x="838" 
d="M194 141q-71 -223 -82 -332l-288 -103q19 249 145 621.5t510 1055.5l202 32q104 -515 104 -892q0 -233 -28 -486l-258 -93q13 182 20 315zM318 495l211 57q-4 158 -29 306q-84 -114 -182 -363zM691.5 1758.5q45.5 -43.5 81.5 -43.5q37 0 137 94l100 -32
q-165 -216 -266 -216q-71 0 -116.5 44t-80.5 44q-38 0 -138 -95l-100 32q165 216 266 216q71 0 116.5 -43.5z" />
    <glyph glyph-name="Adieresis" unicode="&#xc4;" horiz-adv-x="838" 
d="M194 141q-71 -223 -82 -332l-288 -103q19 249 145 621.5t510 1055.5l202 32q104 -515 104 -892q0 -233 -28 -486l-258 -93q13 182 20 315zM318 495l211 57q-4 158 -29 306q-84 -114 -182 -363zM594.5 1726.5q27.5 -27.5 27.5 -73.5q0 -45 -37.5 -82.5t-82.5 -37.5
q-46 0 -73.5 27.5t-27.5 72.5q0 46 37.5 83.5t83.5 37.5q45 0 72.5 -27.5zM895 1719q25 -25 25 -66q0 -40 -34 -74t-74 -34q-41 0 -66 25t-25 65q0 41 34 75t75 34q40 0 65 -25z" />
    <glyph glyph-name="Aring" unicode="&#xc5;" horiz-adv-x="838" 
d="M194 141q-71 -223 -82 -332l-288 -103q19 249 145 621.5t510 1055.5l202 32q104 -515 104 -892q0 -233 -28 -486l-258 -93q13 182 20 315zM318 495l211 57q-4 158 -29 306q-84 -114 -182 -363zM676 1709q-23 0 -42 -19t-19 -42q0 -22 14 -36t37 -14q22 0 41 19t19 41
q0 23 -14 37t-36 14zM795 1778q41 -41 41 -110q0 -68 -56 -124t-124 -56q-69 0 -110 41t-41 109q0 69 56 125t125 56q68 0 109 -41z" />
    <glyph glyph-name="AE" unicode="&#xc6;" horiz-adv-x="1207" 
d="M199 141q-71 -223 -82 -332l-288 -103q19 249 145 621.5t486 1055.5l202 32q4 -17 7 -34q162 46 717 113l-67 -258l-356 -57q-39 -166 -76 -329l243 62l-50 -264l-255 -77q-33 -157 -64 -311l430 158l-53 -269l-701 -261q28 154 58 293q3 41 5 78zM323 494l188 58v19
q-5 139 -30 287q-84 -114 -158 -364z" />
    <glyph glyph-name="Ccedilla" unicode="&#xc7;" horiz-adv-x="983" 
d="M795 46q-197 -210 -413 -174t-310.5 314.5t-4 640.5t308.5 508t398 96t347 -324l-260 -274q-61 281 -165.5 322t-222.5 -84.5t-165.5 -312.5t-17 -371t135 -218t190.5 60t127 206l174 -226q-52 -88 -122 -163zM312 -396q74 24 104 48t30 54q0 16 -13.5 33t-47.5 17
q-28 0 -49 -8l80 123l160 49l-59 -70q20 -13 41 -41.5t21 -71.5q0 -75 -45.5 -116t-113.5 -41q-24 0 -51 4t-57 20z" />
    <glyph glyph-name="Egrave" unicode="&#xc8;" horiz-adv-x="857" 
d="M562 1418l473 41l-73 -281l-479 -56q-42 -176 -81 -349l342 68l-53 -285l-355 -85q-38 -174 -72 -346l560 195l-58 -291l-853 -314q127 689 305 1376l-16 -4l-64 254q185 60 424 77zM759 1516l-130 3l-189 168l198 112z" />
    <glyph glyph-name="Eacute" unicode="&#xc9;" horiz-adv-x="857" 
d="M562 1418l473 41l-73 -281l-479 -56q-42 -176 -81 -349l342 68l-53 -285l-355 -85q-38 -174 -72 -346l560 195l-58 -291l-853 -314q127 689 305 1376l-16 -4l-64 254q185 60 424 77zM724 1799l170 -112l-230 -168l-131 -3z" />
    <glyph glyph-name="Ecircumflex" unicode="&#xca;" horiz-adv-x="857" 
d="M562 1418l473 41l-73 -281l-479 -56q-42 -176 -81 -349l342 68l-53 -285l-355 -85q-38 -174 -72 -346l560 195l-58 -291l-853 -314q127 689 305 1376l-16 -4l-64 254q185 60 424 77zM885 1553l-102 -39l-108 112l-161 -112l-100 32l195 216l182 7z" />
    <glyph glyph-name="Edieresis" unicode="&#xcb;" horiz-adv-x="857" 
d="M562 1418l473 41l-73 -281l-479 -56q-42 -176 -81 -349l342 68l-53 -285l-355 -85q-38 -174 -72 -346l560 195l-58 -291l-853 -314q127 689 305 1376l-16 -4l-64 254q185 60 424 77zM594.5 1726.5q27.5 -27.5 27.5 -73.5q0 -45 -37.5 -82.5t-82.5 -37.5q-46 0 -73.5 27.5
t-27.5 72.5q0 46 37.5 83.5t83.5 37.5q45 0 72.5 -27.5zM895 1719q25 -25 25 -66q0 -40 -34 -74t-74 -34q-41 0 -66 25t-25 65q0 41 34 75t75 34q40 0 65 -25z" />
    <glyph glyph-name="Igrave" unicode="&#xcc;" horiz-adv-x="857" 
d="M484 204l281 95l-47 -276l-802 -285l56 292l225 76q93 562 228 1020q-143 -20 -286 -59l29 304q92 30 332 47l472 41l-48 -270l-303 -38l83 -57q-142 -462 -172.5 -633.5t-47.5 -256.5zM790 1516l-130 3l-189 168l198 112z" />
    <glyph glyph-name="Iacute" unicode="&#xcd;" horiz-adv-x="857" 
d="M484 204l281 95l-47 -276l-802 -285l56 292l225 76q93 562 228 1020q-143 -20 -286 -59l29 304q92 30 332 47l472 41l-48 -270l-303 -38l83 -57q-142 -462 -172.5 -633.5t-47.5 -256.5zM745 1799l170 -112l-230 -168l-131 -3z" />
    <glyph glyph-name="Icircumflex" unicode="&#xce;" horiz-adv-x="857" 
d="M484 204l281 95l-47 -276l-802 -285l56 292l225 76q93 562 228 1020q-143 -20 -286 -59l29 304q92 30 332 47l472 41l-48 -270l-303 -38l83 -57q-142 -462 -172.5 -633.5t-47.5 -256.5zM916 1553l-102 -39l-108 112l-161 -112l-100 32l195 216l182 7z" />
    <glyph glyph-name="Idieresis" unicode="&#xcf;" horiz-adv-x="857" 
d="M484 204l281 95l-47 -276l-802 -285l56 292l225 76q93 562 228 1020q-143 -20 -286 -59l29 304q92 30 332 47l472 41l-48 -270l-303 -38l83 -57q-142 -462 -172.5 -633.5t-47.5 -256.5zM625.5 1726.5q27.5 -27.5 27.5 -73.5q0 -45 -37.5 -82.5t-82.5 -37.5
q-46 0 -73.5 27.5t-27.5 72.5q0 46 37.5 83.5t83.5 37.5q45 0 72.5 -27.5zM926 1719q25 -25 25 -66q0 -40 -34 -74t-74 -34q-41 0 -66 25t-25 65q0 41 34 75t75 34q40 0 65 -25z" />
    <glyph glyph-name="Eth" unicode="&#xd0;" horiz-adv-x="943" 
d="M332 453q-52 -190 -90 -383q270 150 379.5 417t113.5 414q0 133 -60.5 177t-242.5 44l106 -55q-63 -158 -117 -317l115 25l-53 -285zM135 689q58 200 125 399q-28 -7 -57 -16l-75 269q185 60 374 69q262 -1 381.5 -141.5t114.5 -320.5q-6 -212 -97.5 -457.5t-221 -397.5
t-309 -247.5t-467.5 -130.5q62 336 149 671l-109 -26l66 301z" />
    <glyph glyph-name="Ntilde" unicode="&#xd1;" horiz-adv-x="940" 
d="M339 495q-68 -313 -135 -674l-293 -106q123 663 292 1325l-58 234l236 124l219 -845q82 422 180 843l274 40q-169 -763 -276 -1411l-295 -108zM722.5 1758.5q45.5 -43.5 81.5 -43.5q37 0 137 94l100 -32q-165 -216 -266 -216q-71 0 -116.5 44t-80.5 44q-38 0 -138 -95
l-100 32q165 216 266 216q71 0 116.5 -43.5z" />
    <glyph glyph-name="Ograve" unicode="&#xd2;" horiz-adv-x="1042" 
d="M831 909q-69 214 -160 236q-99 24 -217 -94t-166.5 -331.5t-17.5 -371t130 -182.5t211 85.5t156 301t29 345.5zM904 931l122 38q52 -165 -1.5 -454.5t-267 -486.5t-429.5 -149t-293.5 287t13.5 631.5t315.5 537t398.5 97.5t340 -304zM808 1516l-130 3l-189 168l198 112z
" />
    <glyph glyph-name="Oacute" unicode="&#xd3;" horiz-adv-x="1042" 
d="M831 909q-69 214 -160 236q-99 24 -217 -94t-166.5 -331.5t-17.5 -371t130 -182.5t211 85.5t156 301t29 345.5zM904 931l122 38q52 -165 -1.5 -454.5t-267 -486.5t-429.5 -149t-293.5 287t13.5 631.5t315.5 537t398.5 97.5t340 -304zM832 1799l170 -112l-230 -168
l-131 -3z" />
    <glyph glyph-name="Ocircumflex" unicode="&#xd4;" horiz-adv-x="1042" 
d="M831 909q-69 214 -160 236q-99 24 -217 -94t-166.5 -331.5t-17.5 -371t130 -182.5t211 85.5t156 301t29 345.5zM904 931l122 38q52 -165 -1.5 -454.5t-267 -486.5t-429.5 -149t-293.5 287t13.5 631.5t315.5 537t398.5 97.5t340 -304zM984 1553l-102 -39l-108 112
l-161 -112l-100 32l195 216l182 7z" />
    <glyph glyph-name="Otilde" unicode="&#xd5;" horiz-adv-x="1042" 
d="M831 909q-69 214 -160 236q-99 24 -217 -94t-166.5 -331.5t-17.5 -371t130 -182.5t211 85.5t156 301t29 345.5zM904 931l122 38q52 -165 -1.5 -454.5t-267 -486.5t-429.5 -149t-293.5 287t13.5 631.5t315.5 537t398.5 97.5t340 -304zM790.5 1747.5q45.5 -43.5 81.5 -43.5
q37 0 137 94l100 -32q-165 -216 -266 -216q-71 0 -116.5 44t-80.5 44q-38 0 -138 -95l-100 32q165 216 266 216q71 0 116.5 -43.5z" />
    <glyph glyph-name="Odieresis" unicode="&#xd6;" horiz-adv-x="1042" 
d="M831 909q-69 214 -160 236q-99 24 -217 -94t-166.5 -331.5t-17.5 -371t130 -182.5t211 85.5t156 301t29 345.5zM904 931l122 38q52 -165 -1.5 -454.5t-267 -486.5t-429.5 -149t-293.5 287t13.5 631.5t315.5 537t398.5 97.5t340 -304zM673.5 1726.5q27.5 -27.5 27.5 -73.5
q0 -45 -37.5 -82.5t-82.5 -37.5q-46 0 -73.5 27.5t-27.5 72.5q0 46 37.5 83.5t83.5 37.5q45 0 72.5 -27.5zM974 1719q25 -25 25 -66q0 -40 -34 -74t-74 -34q-41 0 -66 25t-25 65q0 41 34 75t75 34q40 0 65 -25z" />
    <glyph glyph-name="multiply" unicode="&#xd7;" 
d="M478 887l118 121l191 -91l-201 -206l111 -182l-197 -87l-68 111l-122 -125l-183 100l197 202l-108 178l193 91z" />
    <glyph glyph-name="multiply.3" horiz-adv-x="713" 
d="M443 981l102 104l164 -84l-173 -177l95 -162l-170 -73l-58 99l-105 -107l-158 92l171 174l-93 159l166 75z" />
    <glyph glyph-name="multiply.4" horiz-adv-x="680" 
d="M436 1036l95 91l152 -89l-161 -154l89 -157l-158 -57l-54 96l-98 -94l-146 95l158 152l-86 153l154 61z" />
    <glyph glyph-name="multiply.5" horiz-adv-x="645" 
d="M422 1063l88 86l141 -85l-150 -146l82 -150l-146 -54l-50 92l-90 -88l-135 91l146 143l-79 147l143 57z" />
    <glyph glyph-name="multiply.6" horiz-adv-x="621" 
d="M411 1089l84 81l134 -80l-143 -139l78 -143l-138 -51l-48 87l-85 -83l-129 86l139 136l-75 140l136 54z" />
    <glyph glyph-name="Oslash" unicode="&#xd8;" horiz-adv-x="1047" 
d="M1063 1191q21 -30 43 -63l-199 -196l122 37q52 -165 -1.5 -454.5t-267 -486.5t-429.5 -149q-47 10 -87 30q-69 -111 -140 -228l-208 166q84 133 165 258q-13 29 -23 61q-78 239 13.5 631.5t315.5 537t398 97.5q67 -18 133 -67q74 106 141 199l184 -138
q-76 -109 -160 -235zM264 420q253 389 461 694q-26 24 -55 32q-95 23 -212.5 -95t-160.5 -308t-33 -323zM803 796q-183 -284 -399 -630q99 -25 210.5 85.5t148.5 271t40 273.5z" />
    <glyph glyph-name="Ugrave" unicode="&#xd9;" horiz-adv-x="889" 
d="M198 1335l273 36q-110 -479 -164 -828t22.5 -387.5t158 49.5t130 424.5t149.5 769.5l273 36q-98 -442 -132.5 -668t-104 -484t-232 -348.5t-318 -63.5t-213.5 150.5t-7 483t165 830.5zM783 1516l-130 3l-189 168l198 112z" />
    <glyph glyph-name="Uacute" unicode="&#xda;" horiz-adv-x="889" 
d="M198 1335l273 36q-110 -479 -164 -828t22.5 -387.5t158 49.5t130 424.5t149.5 769.5l273 36q-98 -442 -132.5 -668t-104 -484t-232 -348.5t-318 -63.5t-213.5 150.5t-7 483t165 830.5zM735 1799l170 -112l-230 -168l-131 -3z" />
    <glyph glyph-name="Ucircumflex" unicode="&#xdb;" horiz-adv-x="889" 
d="M198 1335l273 36q-110 -479 -164 -828t22.5 -387.5t158 49.5t130 424.5t149.5 769.5l273 36q-98 -442 -132.5 -668t-104 -484t-232 -348.5t-318 -63.5t-213.5 150.5t-7 483t165 830.5zM909 1553l-102 -39l-108 112l-161 -112l-100 32l195 216l182 7z" />
    <glyph glyph-name="Udieresis" unicode="&#xdc;" horiz-adv-x="889" 
d="M198 1335l273 36q-110 -479 -164 -828t22.5 -387.5t158 49.5t130 424.5t149.5 769.5l273 36q-98 -442 -132.5 -668t-104 -484t-232 -348.5t-318 -63.5t-213.5 150.5t-7 483t165 830.5zM618.5 1726.5q27.5 -27.5 27.5 -73.5q0 -45 -37.5 -82.5t-82.5 -37.5
q-46 0 -73.5 27.5t-27.5 72.5q0 46 37.5 83.5t83.5 37.5q45 0 72.5 -27.5zM919 1719q25 -25 25 -66q0 -40 -34 -74t-74 -34q-41 0 -66 25t-25 65q0 41 34 75t75 34q40 0 65 -25z" />
    <glyph glyph-name="Yacute" unicode="&#xdd;" horiz-adv-x="840" 
d="M308 416q-112 394 -135.5 560t-31.5 342l265 37q4 -135 17 -275.5t63 -308.5q91 111 175.5 300t101.5 325l282 39q-18 -128 -95 -355.5t-367 -644.5q-58 -282 -104 -528l-293 -107q55 297 122 616zM727 1799l170 -112l-230 -168l-131 -3z" />
    <glyph glyph-name="Thorn" unicode="&#xde;" horiz-adv-x="934" 
d="M255 31q-18 -98 -39 -210l-293 -106q98 532 235 1137l-65 233q64 24 128 40q25 104 50 210l274 36q-26 -113 -50 -216q125 -4 218 -42.5t166 -131.5t63 -289t-81 -321.5t-178 -198.5t-428 -141zM431 865q-16 -72 -47 -215t-65 -304q193 34 273 105.5t86 265.5
q2 89 -66.5 119.5t-154.5 30.5q-11 0 -26 -2z" />
    <glyph glyph-name="germandbls" unicode="&#xdf;" horiz-adv-x="855" 
d="M296 542q-31 -163 -64 -343l-242 -75q97 521 166 785.5t247 361.5t359 46.5t136 -323.5l-101 -36q-102 -36 -102 -83q0 -23 34 -57l34 -33q67 -68 67 -181q-15 -171 -149 -249.5t-255 -108.5l-111 178q94 22 195 68t101 113q0 53 -68 118.5t-68 139.5q0 133 108 204
q49 31 118 57q-116 43 -203.5 -33.5t-129 -231t-72.5 -317.5z" />
    <glyph glyph-name="germandbls.3" horiz-adv-x="755" 
d="M289 680.5q-27 -142.5 -56 -300.5l-208 -61q85 457 145 688.5t213 312.5t308.5 33t116.5 -287l-88 -30q-87 -29 -87 -71q0 -20 29 -51l29 -30q58 -61 57 -160q-13 -150 -128.5 -216.5t-219.5 -90.5l-95 159q81 18 168 56t87 97q0 47 -58 106t-58 124q0 117 93 177
q42 27 102 48q-100 40 -175.5 -25.5t-111.5 -200.5t-63 -277.5z" />
    <glyph glyph-name="germandbls.4" horiz-adv-x="714" 
d="M291 762.5q-25 -131.5 -52 -276.5l-194 -44q79 420 134.5 632t198 279t287.5 12.5t108 -275.5l-81 -22q-81 -22 -81 -61q-1 -19 26 -49l27 -30q54 -60 54 -153q-12 -139 -119.5 -193.5t-204.5 -70.5l-88 154q75 11 156 41.5t81 85.5q0 43 -54.5 102t-53.5 119
q0 109 86 159q39 23 95 39q-93 44 -163.5 -13t-103.5 -180.5t-58 -255z" />
    <glyph glyph-name="germandbls.5" horiz-adv-x="672" 
d="M285 804q-24 -125 -49 -263l-179 -40q74 399 126 600t184 263.5t266 10t99 -262.5l-75 -21q-75 -20 -75 -57q0 -18 24 -47l25 -28q50 -58 49 -146q-11 -132 -110.5 -183.5t-189.5 -65.5l-81 147q69 10 144 38.5t75 80.5q1 41 -49.5 97t-49.5 114q0 104 80 151
q37 21 88 36q-86 42 -151 -11t-96 -170.5t-55 -242.5z" />
    <glyph glyph-name="germandbls.6" horiz-adv-x="636" 
d="M275.5 842.5q-22.5 -118.5 -46.5 -249.5l-170 -38q70 379 119.5 570t175 250t252.5 9.5t94 -249.5l-71 -20q-71 -19 -71 -54q0 -17 22 -45l24 -26q48 -55 47 -139q-11 -125 -105.5 -174t-179.5 -62l-77 139q65 10 136.5 37t71.5 76q1 39 -47 92.5t-47 108.5q0 99 76 143
q35 20 83 34q-81 40 -143 -10t-91.5 -162t-52 -230.5z" />
    <glyph glyph-name="agrave" unicode="&#xe0;" horiz-adv-x="720" 
d="M217 424q-54 -157 -61 -234l-237 -72q10 175 106.5 437.5t400.5 743.5l168 22q79 -301 94.5 -465t15.5 -245q0 -129 -15 -260l-213 -66q6 128 9 222zM312 673l175 41q-7 111 -31 215q-68 -80 -144 -256zM632 1416l-130 3l-189 168l198 112z" />
    <glyph glyph-name="agrave.3" horiz-adv-x="612" 
d="M211 577q-47 -138 -53 -205l-204 -58q9 154 92.5 383t346.5 646l144 15q66 -242 79.5 -397.5t13.5 -224.5q0 -116 -13 -233l-183 -54q6 113 8 196zM294 794l150 32q-6 98 -26 190q-59 -69 -124 -222zM647 1430l-112 5l-162 152l171 94z" />
    <glyph glyph-name="agrave.4" horiz-adv-x="571" 
d="M213 667q-44 -126 -50 -188l-189 -42q8 143 85.5 351.5t322.5 580.5l134 6q61 -246 74 -383t13 -200q0 -109 -13 -219l-170 -39q5 105 8 182zM289 864l141 20q-6 93 -25 180q-55 -61 -116 -200zM648 1429l-104 11l-151 152l159 77z" />
    <glyph glyph-name="agrave.5" horiz-adv-x="529" 
d="M208 713q-41 -119 -46 -178l-176 -39q8 136 80.5 333.5t299.5 550.5l124 4q55 -232 67 -363t12 -189q0 -106 -12 -211l-158 -36q5 99 8 172zM279 900l130 19v10q-5 77 -22 160q-51 -58 -108 -189zM651 1435l-96 12l-139 145l147 72z" />
    <glyph glyph-name="agrave.6" horiz-adv-x="499" 
d="M206 756q-39 -113 -44 -169l-167 -37q8 129 77 316.5t284 523.5l118 4q52 -221 63.5 -345.5t11.5 -179.5q0 -101 -11 -200l-150 -34q4 94 7 163zM273 934l123 18v9q-5 73 -21 152q-48 -55 -102 -179zM639 1442l-91 11l-132 138l140 69z" />
    <glyph glyph-name="aacute" unicode="&#xe1;" horiz-adv-x="720" 
d="M217 424q-54 -157 -61 -234l-237 -72q10 175 106.5 437.5t400.5 743.5l168 22q79 -301 94.5 -465t15.5 -245q0 -129 -15 -260l-213 -66q6 128 9 222zM312 673l175 41q-7 111 -31 215q-68 -80 -144 -256zM686 1699l170 -112l-230 -168l-131 -3z" />
    <glyph glyph-name="aacute.3" horiz-adv-x="612" 
d="M211 577q-47 -138 -53 -205l-204 -58q9 154 92.5 383t346.5 646l144 15q66 -242 79.5 -397.5t13.5 -224.5q0 -116 -13 -233l-183 -54q6 113 8 196zM294 794l150 32q-6 98 -26 190q-59 -69 -124 -222zM685 1681l146 -102l-198 -143h-112z" />
    <glyph glyph-name="aacute.4" horiz-adv-x="571" 
d="M213 667q-44 -126 -50 -188l-189 -42q8 143 85.5 351.5t322.5 580.5l134 6q61 -246 74 -383t13 -200q0 -109 -13 -219l-170 -39q5 105 8 182zM289 864l141 20q-6 93 -25 180q-55 -61 -116 -200zM705 1670l136 -104l-185 -121l-105 7z" />
    <glyph glyph-name="aacute.5" horiz-adv-x="529" 
d="M208 713q-41 -119 -46 -178l-176 -39q8 136 80.5 333.5t299.5 550.5l124 4q55 -232 67 -363t12 -189q0 -106 -12 -211l-158 -36q5 99 8 172zM279 900l130 19v10q-5 77 -22 160q-51 -58 -108 -189zM696 1660l125 -100l-171 -114l-97 7z" />
    <glyph glyph-name="aacute.6" horiz-adv-x="499" 
d="M206 756q-39 -113 -44 -169l-167 -37q8 129 77 316.5t284 523.5l118 4q52 -221 63.5 -345.5t11.5 -179.5q0 -101 -11 -200l-150 -34q4 94 7 163zM273 934l123 18v9q-5 73 -21 152q-48 -55 -102 -179zM691 1656l118 -95l-162 -109l-92 7z" />
    <glyph glyph-name="acircumflex" unicode="&#xe2;" horiz-adv-x="720" 
d="M217 424q-54 -157 -61 -234l-237 -72q10 175 106.5 437.5t400.5 743.5l168 22q79 -301 94.5 -465t15.5 -245q0 -129 -15 -260l-213 -66q6 128 9 222zM312 673l175 41q-7 111 -31 215q-68 -80 -144 -256zM808 1453l-102 -39l-108 112l-161 -112l-100 32l195 216l182 7z
" />
    <glyph glyph-name="acircumflex.3" horiz-adv-x="612" 
d="M211 577q-47 -138 -53 -205l-204 -58q9 154 92.5 383t346.5 646l144 15q66 -242 79.5 -397.5t13.5 -224.5q0 -116 -13 -233l-183 -54q6 113 8 196zM294 794l150 32q-6 98 -26 190q-59 -69 -124 -222zM766 1459l-87 -32l-93 101l-139 -96l-86 31l168 186l157 2z" />
    <glyph glyph-name="acircumflex.4" horiz-adv-x="571" 
d="M213 667q-44 -126 -50 -188l-189 -42q8 143 85.5 351.5t322.5 580.5l134 6q61 -246 74 -383t13 -200q0 -109 -13 -219l-170 -39q5 105 8 182zM289 864l141 20q-6 93 -25 180q-55 -61 -116 -200zM758 1438l-81 -25l-87 100l-129 -80l-80 33l157 163l146 -7z" />
    <glyph glyph-name="acircumflex.5" horiz-adv-x="529" 
d="M208 713q-41 -119 -46 -178l-176 -39q8 136 80.5 333.5t299.5 550.5l124 4q55 -232 67 -363t12 -189q0 -106 -12 -211l-158 -36q5 99 8 172zM279 900l130 19v10q-5 77 -22 160q-51 -58 -108 -189zM741 1452l-75 -22l-80 95l-119 -76l-74 33l145 154l135 -8z" />
    <glyph glyph-name="acircumflex.6" horiz-adv-x="499" 
d="M206 756q-39 -113 -44 -169l-167 -37q8 129 77 316.5t284 523.5l118 4q52 -221 63.5 -345.5t11.5 -179.5q0 -101 -11 -200l-150 -34q4 94 7 163zM273 934l123 18v9q-5 73 -21 152q-48 -55 -102 -179zM726 1456l-72 -21l-76 90l-113 -72l-70 31l138 146l128 -7z" />
    <glyph glyph-name="atilde" unicode="&#xe3;" horiz-adv-x="720" 
d="M217 424q-54 -157 -61 -234l-237 -72q10 175 106.5 437.5t400.5 743.5l168 22q79 -301 94.5 -465t15.5 -245q0 -129 -15 -260l-213 -66q6 128 9 222zM312 673l175 41q-7 111 -31 215q-68 -80 -144 -256zM604.5 1658.5q45.5 -43.5 81.5 -43.5q37 0 137 94l100 -32
q-165 -216 -266 -216q-71 0 -116.5 44t-80.5 44q-38 0 -138 -95l-100 32q165 216 266 216q71 0 116.5 -43.5z" />
    <glyph glyph-name="atilde.3" horiz-adv-x="612" 
d="M211 577q-47 -138 -53 -205l-204 -58q9 154 92.5 383t346.5 646l144 15q66 -242 79.5 -397.5t13.5 -224.5q0 -116 -13 -233l-183 -54q6 113 8 196zM294 794l150 32q-6 98 -26 190q-59 -69 -124 -222zM601 1636.5q39 -39.5 70 -40.5q32 0 118 80l86 -30
q-143 -185 -230 -185q-61 2 -100 41.5t-69 40.5q-32 0 -119 -81l-86 31q143 184 230 184q61 -1 100 -40.5z" />
    <glyph glyph-name="atilde.4" horiz-adv-x="571" 
d="M213 667q-44 -126 -50 -188l-189 -42q8 143 85.5 351.5t322.5 580.5l134 6q61 -246 74 -383t13 -200q0 -109 -13 -219l-170 -39q5 105 8 182zM289 864l141 20q-6 93 -25 180q-55 -61 -116 -200zM588 1620q36 -39 65 -41q30 0 110 67l80 -34q-123 -158 -214 -158
q-56 5 -92.5 44.5t-64.5 42.5q-30 0 -111 -68l-80 33q123 158 214 158q57 -5 93 -44z" />
    <glyph glyph-name="atilde.5" horiz-adv-x="529" 
d="M208 713q-41 -119 -46 -178l-176 -39q8 136 80.5 333.5t299.5 550.5l124 4q55 -232 67 -363t12 -189q0 -106 -12 -211l-158 -36q5 99 8 172zM279 900l130 19v10q-5 77 -22 160q-51 -58 -108 -189zM577.5 1618q33.5 -37 59.5 -40q28 0 102 63l74 -32q-113 -149 -198 -149
q-52 5 -85.5 43t-59.5 40q-28 0 -103 -64l-73 33q112 149 197 149q53 -6 86.5 -43z" />
    <glyph glyph-name="atilde.6" horiz-adv-x="499" 
d="M206 756q-39 -113 -44 -169l-167 -37q8 129 77 316.5t284 523.5l118 4q52 -221 63.5 -345.5t11.5 -179.5q0 -101 -11 -200l-150 -34q4 94 7 163zM273 934l123 18v9q-5 73 -21 152q-48 -55 -102 -179zM556 1611.5q32 -35.5 57 -37.5q26 0 97 60l70 -31
q-107 -141 -188 -141q-50 5 -81.5 40.5t-56.5 38.5q-27 0 -97 -61l-71 31q107 141 188 141q50 -5 82 -40.5z" />
    <glyph glyph-name="adieresis" unicode="&#xe4;" horiz-adv-x="720" 
d="M217 424q-54 -157 -61 -234l-237 -72q10 175 106.5 437.5t400.5 743.5l168 22q79 -301 94.5 -465t15.5 -245q0 -129 -15 -260l-213 -66q6 128 9 222zM312 673l175 41q-7 111 -31 215q-68 -80 -144 -256zM516.5 1626.5q27.5 -27.5 27.5 -73.5q0 -45 -37.5 -82.5
t-82.5 -37.5q-46 0 -73.5 27.5t-27.5 72.5q0 46 37.5 83.5t83.5 37.5q45 0 72.5 -27.5zM817 1619q25 -25 25 -66q0 -40 -34 -74t-74 -34q-41 0 -66 25t-25 65q0 41 34 75t75 34q40 0 65 -25z" />
    <glyph glyph-name="adieresis.3" horiz-adv-x="612" 
d="M211 577q-47 -138 -53 -205l-204 -58q9 154 92.5 383t346.5 646l144 15q66 -242 79.5 -397.5t13.5 -224.5q0 -116 -13 -233l-183 -54q6 113 8 196zM294 794l150 32q-6 98 -26 190q-59 -69 -124 -222zM510.5 1618q23.5 -25 23.5 -66q0 -39 -32.5 -71t-71.5 -32t-62.5 25.5
t-23.5 64.5q0 41 32 72.5t72 31.5q39 0 62.5 -25zM768.5 1607.5q21.5 -22.5 21.5 -58.5t-29.5 -64.5t-63.5 -28.5q-35 0 -56.5 23t-21.5 58q0 36 29 65t65 29q34 -1 55.5 -23.5z" />
    <glyph glyph-name="adieresis.4" horiz-adv-x="571" 
d="M213 667q-44 -126 -50 -188l-189 -42q8 143 85.5 351.5t322.5 580.5l134 6q61 -246 74 -383t13 -200q0 -109 -13 -219l-170 -39q5 105 8 182zM289 864l141 20q-6 93 -25 180q-55 -61 -116 -200zM517 1612q23 -26 23 -64q0 -37 -28.5 -63t-64.5 -26q-37 0 -60.5 26
t-23.5 63t29 63.5t66 26.5q36 0 59 -26zM755.5 1602q21.5 -24 21.5 -57t-24.5 -57t-56.5 -24q-33 0 -55 24t-22 56q0 34 25 58t58 24q32 0 53.5 -24z" />
    <glyph glyph-name="adieresis.5" horiz-adv-x="529" 
d="M208 713q-41 -119 -46 -178l-176 -39q8 136 80.5 333.5t299.5 550.5l124 4q55 -232 67 -363t12 -189q0 -106 -12 -211l-158 -36q5 99 8 172zM279 900l130 19v10q-5 77 -22 160q-51 -58 -108 -189zM516.5 1606.5q21.5 -23.5 21.5 -58.5q0 -33 -23.5 -56t-57.5 -23
t-54.5 23.5t-20.5 56.5q0 34 25 57.5t57 23.5q31 0 52.5 -23.5zM730 1595q17 -20 17 -50q0 -31 -20.5 -52.5t-51.5 -21.5q-29 0 -48.5 22t-19.5 52t22.5 51.5t54.5 21.5q29 -3 46 -23z" />
    <glyph glyph-name="adieresis.6" horiz-adv-x="499" 
d="M206 756q-39 -113 -44 -169l-167 -37q8 129 77 316.5t284 523.5l118 4q52 -221 63.5 -345.5t11.5 -179.5q0 -101 -11 -200l-150 -34q4 94 7 163zM273 934l123 18v9q-5 73 -21 152q-48 -55 -102 -179zM490.5 1606.5q21.5 -23.5 21.5 -58.5q0 -33 -23.5 -56t-57.5 -23
t-54.5 23.5t-20.5 56.5q0 34 25 57.5t57 23.5q31 0 52.5 -23.5zM704 1595q17 -20 17 -50q0 -31 -20.5 -52.5t-51.5 -21.5q-29 0 -48.5 22t-19.5 52t22.5 51.5t54.5 21.5q29 -3 46 -23z" />
    <glyph glyph-name="aring" unicode="&#xe5;" horiz-adv-x="720" 
d="M217 424q-54 -157 -61 -234l-237 -72q10 175 106.5 437.5t400.5 743.5l168 22q79 -301 94.5 -465t15.5 -245q0 -129 -15 -260l-213 -66q6 128 9 222zM312 673l175 41q-7 111 -31 215q-68 -80 -144 -256zM598 1609q-23 0 -42 -19t-19 -42q0 -22 14 -36t37 -14q22 0 41 19
t19 41q0 23 -14 37t-36 14zM717 1678q41 -41 41 -110q0 -68 -56 -124t-124 -56q-69 0 -110 41t-41 109q0 69 56 125t125 56q68 0 109 -41z" />
    <glyph glyph-name="aring.3" horiz-adv-x="612" 
d="M211 577q-47 -138 -53 -205l-204 -58q9 154 92.5 383t346.5 646l144 15q66 -242 79.5 -397.5t13.5 -224.5q0 -116 -13 -233l-183 -54q6 113 8 196zM294 794l150 32q-6 98 -26 190q-59 -69 -124 -222zM576 1599q-20 0 -36.5 -16t-16.5 -37q0 -19 12 -31.5t32 -13.5
q19 0 35 16t16 36t-12 32.5t-30 13.5zM678 1657q35 -37 35 -98q0 -60 -48 -107t-107 -47q-59 1 -94.5 38t-35.5 97q0 61 48 108t108 47q59 -1 94 -38z" />
    <glyph glyph-name="aring.4" horiz-adv-x="571" 
d="M213 667q-44 -126 -50 -188l-189 -42q8 143 85.5 351.5t322.5 580.5l134 6q61 -246 74 -383t13 -200q0 -109 -13 -219l-170 -39q5 105 8 182zM289 864l141 20q-6 93 -25 180q-55 -61 -116 -200zM565 1589q-19 0 -34 -13t-15 -32q0 -18 11.5 -30.5t29.5 -14.5
q19 0 33.5 13.5t14.5 31.5q0 19 -11 31.5t-29 13.5zM660.5 1637.5q32.5 -36.5 32.5 -93.5q0 -56 -43.5 -95t-100.5 -39q-55 5 -88 41.5t-33 91.5q0 57 43.5 96.5t101.5 39.5q55 -5 87.5 -41.5z" />
    <glyph glyph-name="aring.5" horiz-adv-x="529" 
d="M208 713q-41 -119 -46 -178l-176 -39q8 136 80.5 333.5t299.5 550.5l124 4q55 -232 67 -363t12 -189q0 -106 -12 -211l-158 -36q5 99 8 172zM279 900l130 19v10q-5 77 -22 160q-51 -58 -108 -189zM546 1585q-18 0 -31.5 -12.5t-13.5 -30.5q0 -17 10.5 -29t27.5 -13
q17 0 30.5 12.5t13.5 29.5q0 18 -10 30t-27 13zM635 1630.5q30 -35.5 30 -88.5q-1 -53 -37.5 -90t-96.5 -37q-51 5 -81 40t-30 88q0 54 36.5 91t97.5 37q51 -5 81 -40.5z" />
    <glyph glyph-name="aring.6" horiz-adv-x="499" 
d="M206 756q-39 -113 -44 -169l-167 -37q8 129 77 316.5t284 523.5l118 4q52 -221 63.5 -345.5t11.5 -179.5q0 -101 -11 -200l-150 -34q4 94 7 163zM273 934l123 18v9q-5 73 -21 152q-48 -55 -102 -179zM522 1581q-17 0 -30 -12t-13 -29q0 -16 10 -27.5t26 -12.5q16 0 29 12
t13 28q0 17 -9.5 28.5t-25.5 12.5zM606 1624q29 -33 29 -84q-1 -51 -35.5 -86t-92.5 -35q-48 5 -76.5 38t-28.5 84t35 86t93 35q47 -5 76 -38z" />
    <glyph glyph-name="ae" unicode="&#xe6;" horiz-adv-x="1035" 
d="M237 424q-54 -157 -61 -234l-237 -72q10 175 106.5 437.5t380.5 743.5l168 22l6 -24q134 33 595 80l-50 -182l-295 -40q-29 -117 -56 -232l201 44l-35 -186l-211 -54q-24 -111 -46 -219l354 111l-38 -189l-578 -184q20 108 42 206q1 29 2 55zM332 673l156 41q-1 7 -1 13
q-7 98 -31 202q-68 -80 -124 -256z" />
    <glyph glyph-name="ae.3" horiz-adv-x="892" 
d="M231 577q-46 -137 -53 -205l-204 -58q9 154 92.5 383t329.5 646l144 16q3 -11 5 -22q116 27 512 58l-43 -159l-254 -29q-25 -102 -49 -203l173 35l-30 -163l-182 -43q-21 -97 -40 -192l305 90l-33 -165l-498 -150q18 95 37 180q1 26 2 49zM314 794l133 32v12
q-6 87 -26 179q-59 -70 -107 -223z" />
    <glyph glyph-name="ae.4" horiz-adv-x="833" 
d="M233 667q-44 -125 -50 -188l-189 -42q8 143 85.5 351.5t306.5 582.5l134 6q2 -11 5 -21q107 18 476 23l-40 -145l-236 -12q-24 -94 -46 -186l161 21l-28 -150l-169 -29q-20 -89 -37 -176l283 66l-31 -153l-463 -109q17 87 34 166q1 24 2 45zM309 864l125 22q0 6 -1 11
q-5 81 -24 168q-55 -61 -100 -201z" />
    <glyph glyph-name="ae.5" horiz-adv-x="773" 
d="M228 713q-41 -119 -46 -178l-176 -39q8 136 80.5 333.5t284.5 551.5l124 5q3 -10 5 -19q99 15 440 18l-37 -138l-219 -10q-22 -89 -42 -176l149 19l-27 -142l-156 -27q-18 -85 -35 -167l262 60l-29 -145l-428 -100q15 82 32 157q1 23 2 43zM299 900l115 20v10
q-5 77 -22 160q-51 -57 -93 -190z" />
    <glyph glyph-name="ae.6" horiz-adv-x="727" 
d="M219 756q-39 -113 -44 -169l-167 -37q8 129 77 316.5t270 524.5l118 4q3 -9 5 -18q94 15 418 18l-36 -132l-208 -9q-21 -85 -40 -167l142 18l-26 -135l-148 -26q-17 -81 -33 -158l249 57l-28 -138l-406 -95q14 78 30 149q1 22 2 41zM287 934l109 19v9q-5 73 -21 152
q-48 -54 -88 -180z" />
    <glyph glyph-name="ccedilla" unicode="&#xe7;" horiz-adv-x="815" 
d="M701 357q-159 -148 -345 -122.5t-266 221.5t-13 451t245.5 358t329.5 67.5t296 -228.5l-210 -193q-57 198 -145 227t-183.5 -59.5t-131 -220t-6 -261t117.5 -153.5t157.5 42t101.5 145l150 -159q-41 -62 -98 -115zM251 -76q74 24 104 48t30 54q0 16 -13.5 33t-47.5 17
q-28 0 -49 -8l80 123l160 49l-59 -70q20 -13 41 -41.5t21 -71.5q0 -75 -45.5 -116t-113.5 -41q-24 0 -51 4t-57 20z" />
    <glyph glyph-name="ccedilla.3" horiz-adv-x="706" 
d="M629 510q-137 -127 -297.5 -101t-228 200.5t-9.5 397.5t212 310t283.5 52.5t253.5 -207.5l-181 -166q-48 176 -123.5 203.5t-158 -48.5t-113.5 -191t-6 -229.5t101 -137.5t136 33.5t87 125.5l129 -143q-35 -54 -85 -99zM276 141q63 20 89 40.5t26 46.5q0 14 -11.5 29
t-40.5 16q-24 0 -42 -6l69 107l137 39l-50 -60q17 -12 35 -37.5t18 -63.5q-1 -66 -40 -100t-97 -34q-21 0 -44.5 4t-48.5 19z" />
    <glyph glyph-name="ccedilla.4" horiz-adv-x="657" 
d="M608 583q-127 -109 -277 -75.5t-212.5 200.5t-8.5 371.5t197 276t264 31.5t236 -209l-168 -143q-45 167 -115.5 197t-147 -36t-105.5 -171t-5.5 -213.5t94 -134.5t126 23t81.5 112l120 -141q-33 -48 -79 -88zM286 265q60 14 84 31.5t24 42.5q0 13 -11 27.5t-38 17.5
q-22 0 -39 -3l64 95l128 29l-47 -53q16 -13 32.5 -37.5t16.5 -60.5q0 -56 -34 -86.5t-93 -30.5q-19 2 -41 7t-46 21z" />
    <glyph glyph-name="ccedilla.5" horiz-adv-x="605" 
d="M569 631q-118 -103 -257 -70t-196 192t-6.5 353t183 261.5t244 28.5t218.5 -200l-156 -135q-42 158 -107 187.5t-136 -32.5t-97.5 -162t-5.5 -203.5t86 -128.5t117 21.5t76 105.5l110 -135q-30 -46 -73 -83zM288 330q55 13 77.5 29.5t22.5 40.5q0 12 -10 26.5t-35 16.5
q-21 0 -36 -2l59 90l119 26l-44 -50q15 -12 30 -35.5t15 -57.5q0 -38 -29 -74t-89 -36q-18 1 -38 6.5t-42 19.5z" />
    <glyph glyph-name="ccedilla.6" horiz-adv-x="567" 
d="M545 678q-112 -98 -244 -66.5t-186 182.5t-6 335.5t173.5 248.5t231.5 27t208 -190l-148 -128q-40 150 -102 178t-129.5 -31t-92.5 -154t-5 -193.5t81.5 -122t111 20.5t72.5 100l105 -128q-29 -44 -70 -79zM280 391q52 13 73 28.5t21 37.5q0 12 -9.5 25.5t-32.5 15.5
q-20 0 -35 -2l57 86l112 25l-41 -48q14 -11 28.5 -33.5t14.5 -54.5q0 -36 -27.5 -70.5t-85.5 -34.5q-16 1 -35 6t-40 19z" />
    <glyph glyph-name="egrave" unicode="&#xe8;" horiz-adv-x="728" 
d="M277 413l461 137l-41 -205l-704 -221q90 485 223 969q-7 -1 -14 -3l-59 179q153 42 352 54l393 29l-54 -198l-398 -39q-31 -124 -60 -246l284 48l-38 -201l-294 -59q-27 -123 -51 -244zM656 1416l-130 3l-189 168l198 112z" />
    <glyph glyph-name="egrave.3" horiz-adv-x="626" 
d="M452 1364l338 17l-46 -173l-343 -26q-27 -108 -52 -215l244 36l-33 -176l-253 -46q-24 -108 -45 -213l398 110l-36 -179l-606 -180q79 425 194 848l-12 -2l-50 159q131 33 302 40zM677 1430l-112 5l-162 152l171 94z" />
    <glyph glyph-name="egrave.4" horiz-adv-x="589" 
d="M757 1385l-44 -159l-319 -3q-25 -100 -48 -198l227 19l-31 -162l-235 -27q-21 -99 -41 -196l369 79l-33 -165l-564 -131q74 391 181 778q-6 0 -12 -1l-47 151q102 20 228 20q27 0 369 -5zM708 1429l-104 11l-151 152l159 77z" />
    <glyph glyph-name="egrave.5" horiz-adv-x="550" 
d="M717 1392l-41 -150l-294 -1q-24 -95 -46 -188l211 17l-29 -154l-218 -25q-21 -94 -39 -186l342 73l-31 -157l-522 -120q69 371 169 739q-6 0 -11 -1l-43 144q92 17 206 17q27 0 346 -8zM731 1435l-96 12l-139 145l147 72z" />
    <glyph glyph-name="egrave.6" horiz-adv-x="517" 
d="M686 1401l-39 -142l-279 -1q-23 -91 -44 -179l201 16l-28 -146l-207 -24q-20 -89 -37 -176l325 69l-30 -149l-496 -114q66 352 161 702q-6 0 -10 -1l-41 137q87 16 195 16q26 0 329 -8zM731 1442l-91 11l-132 138l140 69z" />
    <glyph glyph-name="eacute" unicode="&#xe9;" horiz-adv-x="728" 
d="M277 413l461 137l-41 -205l-704 -221q90 485 223 969q-7 -1 -14 -3l-59 179q153 42 352 54l393 29l-54 -198l-398 -39q-31 -124 -60 -246l284 48l-38 -201l-294 -59q-27 -123 -51 -244zM620 1699l170 -112l-230 -168l-131 -3z" />
    <glyph glyph-name="eacute.3" horiz-adv-x="626" 
d="M452 1364l338 17l-46 -173l-343 -26q-27 -108 -52 -215l244 36l-33 -176l-253 -46q-24 -108 -45 -213l398 110l-36 -179l-606 -180q79 425 194 848l-12 -2l-50 159q131 33 302 40zM625 1681l146 -102l-198 -143h-112z" />
    <glyph glyph-name="eacute.4" horiz-adv-x="589" 
d="M757 1385l-44 -159l-319 -3q-25 -100 -48 -198l227 19l-31 -162l-235 -27q-21 -99 -41 -196l369 79l-33 -165l-564 -131q74 391 181 778q-6 0 -12 -1l-47 151q102 20 228 20q27 0 369 -5zM635 1670l136 -104l-185 -121l-105 7z" />
    <glyph glyph-name="eacute.5" horiz-adv-x="550" 
d="M717 1392l-41 -150l-294 -1q-24 -95 -46 -188l211 17l-29 -154l-218 -25q-21 -94 -39 -186l342 73l-31 -157l-522 -120q69 371 169 739q-6 0 -11 -1l-43 144q92 17 206 17q27 0 346 -8zM646 1660l125 -100l-171 -114l-97 7z" />
    <glyph glyph-name="eacute.6" horiz-adv-x="517" 
d="M686 1401l-39 -142l-279 -1q-23 -91 -44 -179l201 16l-28 -146l-207 -24q-20 -89 -37 -176l325 69l-30 -149l-496 -114q66 352 161 702q-6 0 -10 -1l-41 137q87 16 195 16q26 0 329 -8zM641 1656l118 -95l-162 -109l-92 7z" />
    <glyph glyph-name="ecircumflex" unicode="&#xea;" horiz-adv-x="728" 
d="M277 413l461 137l-41 -205l-704 -221q90 485 223 969q-7 -1 -14 -3l-59 179q153 42 352 54l393 29l-54 -198l-398 -39q-31 -124 -60 -246l284 48l-38 -201l-294 -59q-27 -123 -51 -244zM782 1453l-102 -39l-108 112l-161 -112l-100 32l195 216l182 7z" />
    <glyph glyph-name="ecircumflex.3" horiz-adv-x="626" 
d="M452 1364l338 17l-46 -173l-343 -26q-27 -108 -52 -215l244 36l-33 -176l-253 -46q-24 -108 -45 -213l398 110l-36 -179l-606 -180q79 425 194 848l-12 -2l-50 159q131 33 302 40zM786 1454l-87 -32l-93 101l-139 -96l-86 31l168 186l157 2z" />
    <glyph glyph-name="ecircumflex.4" horiz-adv-x="589" 
d="M757 1385l-44 -159l-319 -3q-25 -100 -48 -198l227 19l-31 -162l-235 -27q-21 -99 -41 -196l369 79l-33 -165l-564 -131q74 391 181 778q-6 0 -12 -1l-47 151q102 20 228 20q27 0 369 -5zM778 1448l-81 -25l-87 100l-129 -80l-80 33l157 163l146 -7z" />
    <glyph glyph-name="ecircumflex.5" horiz-adv-x="550" 
d="M717 1392l-41 -150l-294 -1q-24 -95 -46 -188l211 17l-29 -154l-218 -25q-21 -94 -39 -186l342 73l-31 -157l-522 -120q69 371 169 739q-6 0 -11 -1l-43 144q92 17 206 17q27 0 346 -8zM761 1452l-75 -22l-80 95l-119 -76l-74 33l145 154l135 -8z" />
    <glyph glyph-name="ecircumflex.6" horiz-adv-x="517" 
d="M686 1401l-39 -142l-279 -1q-23 -91 -44 -179l201 16l-28 -146l-207 -24q-20 -89 -37 -176l325 69l-30 -149l-496 -114q66 352 161 702q-6 0 -10 -1l-41 137q87 16 195 16q26 0 329 -8zM746 1456l-72 -21l-76 90l-113 -72l-70 31l138 146l128 -7z" />
    <glyph glyph-name="edieresis" unicode="&#xeb;" horiz-adv-x="728" 
d="M277 413l461 137l-41 -205l-704 -221q90 485 223 969q-7 -1 -14 -3l-59 179q153 42 352 54l393 29l-54 -198l-398 -39q-31 -124 -60 -246l284 48l-38 -201l-294 -59q-27 -123 -51 -244zM530.5 1626.5q27.5 -27.5 27.5 -73.5q0 -45 -37.5 -82.5t-82.5 -37.5
q-46 0 -73.5 27.5t-27.5 72.5q0 46 37.5 83.5t83.5 37.5q45 0 72.5 -27.5zM831 1619q25 -25 25 -66q0 -40 -34 -74t-74 -34q-41 0 -66 25t-25 65q0 41 34 75t75 34q40 0 65 -25z" />
    <glyph glyph-name="edieresis.3" horiz-adv-x="626" 
d="M452 1364l338 17l-46 -173l-343 -26q-27 -108 -52 -215l244 36l-33 -176l-253 -46q-24 -108 -45 -213l398 110l-36 -179l-606 -180q79 425 194 848l-12 -2l-50 159q131 33 302 40zM530.5 1618q23.5 -25 23.5 -66q0 -39 -32.5 -71t-71.5 -32t-62.5 25.5t-23.5 64.5
q0 41 32 72.5t72 31.5q39 0 62.5 -25zM788.5 1607.5q21.5 -22.5 21.5 -58.5t-29.5 -64.5t-63.5 -28.5q-35 0 -56.5 23t-21.5 58q0 36 29 65t65 29q34 -1 55.5 -23.5z" />
    <glyph glyph-name="edieresis.4" horiz-adv-x="589" 
d="M757 1385l-44 -159l-319 -3q-25 -100 -48 -198l227 19l-31 -162l-235 -27q-21 -99 -41 -196l369 79l-33 -165l-564 -131q74 391 181 778q-6 0 -12 -1l-47 151q102 20 228 20q27 0 369 -5zM527 1612q23 -26 23 -64q0 -37 -28.5 -63t-64.5 -26q-37 0 -60.5 26t-23.5 63
t29 63.5t66 26.5q36 0 59 -26zM765.5 1602q21.5 -24 21.5 -57t-24.5 -57t-56.5 -24q-33 0 -55 24t-22 56q0 34 25 58t58 24q32 0 53.5 -24z" />
    <glyph glyph-name="edieresis.5" horiz-adv-x="550" 
d="M717 1392l-41 -150l-294 -1q-24 -95 -46 -188l211 17l-29 -154l-218 -25q-21 -94 -39 -186l342 73l-31 -157l-522 -120q69 371 169 739q-6 0 -11 -1l-43 144q92 17 206 17q27 0 346 -8zM536.5 1610q22.5 -25 22.5 -61q0 -35 -24.5 -59.5t-60.5 -24.5t-57.5 25t-21.5 60
q0 36 26 60.5t60 24.5q33 0 55.5 -25zM761 1598q18 -21 18 -53t-21.5 -54.5t-54.5 -22.5q-30 0 -50.5 23t-20.5 54q0 32 23.5 54.5t57.5 22.5q30 -3 48 -24z" />
    <glyph glyph-name="edieresis.6" horiz-adv-x="517" 
d="M686 1401l-39 -142l-279 -1q-23 -91 -44 -179l201 16l-28 -146l-207 -24q-20 -89 -37 -176l325 69l-30 -149l-496 -114q66 352 161 702q-6 0 -10 -1l-41 137q87 16 195 16q26 0 329 -8zM531.5 1606.5q21.5 -23.5 21.5 -58.5q0 -33 -23.5 -56t-57.5 -23t-54.5 23.5
t-20.5 56.5q0 34 25 57.5t57 23.5q31 0 52.5 -23.5zM745 1595q17 -20 17 -50q0 -31 -20.5 -52.5t-51.5 -21.5q-29 0 -48.5 22t-19.5 52t22.5 51.5t54.5 21.5q29 -3 46 -23z" />
    <glyph glyph-name="igrave" unicode="&#xec;" horiz-adv-x="395" 
d="M254 263l-242 -75q97 567 232 1099l231 21q-136 -542 -221 -1045zM494 1416l-130 3l-189 168l198 112z" />
    <glyph glyph-name="igrave.3" horiz-adv-x="357" 
d="M255 437l-208 -61q84 497 202 962l198 13q-118 -474 -192 -914zM537 1430l-112 5l-162 152l171 94z" />
    <glyph glyph-name="igrave.4" horiz-adv-x="337" 
d="M261 539l-194 -44q79 458 188 884l185 1q-110 -435 -179 -841zM558 1429l-104 11l-151 152l159 77z" />
    <glyph glyph-name="igrave.5" horiz-adv-x="325" 
d="M259 591l-180 -40q74 435 176 840l171 -1q-103 -413 -167 -799zM571 1435l-96 12l-139 145l147 72z" />
    <glyph glyph-name="igrave.6" horiz-adv-x="308" 
d="M252 640l-171 -38q71 413 168 798l162 -1q-98 -392 -159 -759zM571 1442l-91 11l-132 138l140 69z" />
    <glyph glyph-name="iacute" unicode="&#xed;" horiz-adv-x="395" 
d="M254 263l-242 -75q97 567 232 1099l231 21q-136 -542 -221 -1045zM458 1699l170 -112l-230 -168l-131 -3z" />
    <glyph glyph-name="iacute.3" horiz-adv-x="357" 
d="M255 437l-208 -61q84 497 202 962l198 13q-118 -474 -192 -914zM505 1681l146 -102l-198 -143h-112z" />
    <glyph glyph-name="iacute.4" horiz-adv-x="337" 
d="M261 539l-194 -44q79 458 188 884l185 1q-110 -435 -179 -841zM525 1670l136 -104l-185 -121l-105 7z" />
    <glyph glyph-name="iacute.5" horiz-adv-x="325" 
d="M259 591l-180 -40q74 435 176 840l171 -1q-103 -413 -167 -799zM543 1660l125 -100l-171 -114l-97 7z" />
    <glyph glyph-name="iacute.6" horiz-adv-x="308" 
d="M252 640l-171 -38q71 413 168 798l162 -1q-98 -392 -159 -759zM541 1656l118 -95l-162 -109l-92 7z" />
    <glyph glyph-name="icircumflex" unicode="&#xee;" horiz-adv-x="395" 
d="M254 263l-242 -75q97 567 232 1099l231 21q-136 -542 -221 -1045zM620 1453l-102 -39l-108 112l-161 -112l-100 32l195 216l182 7z" />
    <glyph glyph-name="icircumflex.3" horiz-adv-x="357" 
d="M255 437l-208 -61q84 497 202 962l198 13q-118 -474 -192 -914zM626 1459l-87 -32l-93 101l-139 -96l-86 31l168 186l157 2z" />
    <glyph glyph-name="icircumflex.4" horiz-adv-x="337" 
d="M261 539l-194 -44q79 458 188 884l185 1q-110 -435 -179 -841zM618 1448l-81 -25l-87 100l-129 -80l-80 33l157 163l146 -7z" />
    <glyph glyph-name="icircumflex.5" horiz-adv-x="325" 
d="M259 591l-180 -40q74 435 176 840l171 -1q-103 -413 -167 -799zM616 1452l-75 -22l-80 95l-119 -76l-74 33l145 154l135 -8z" />
    <glyph glyph-name="icircumflex.6" horiz-adv-x="308" 
d="M252 640l-171 -38q71 413 168 798l162 -1q-98 -392 -159 -759zM606 1456l-72 -21l-76 90l-113 -72l-70 31l138 146l128 -7z" />
    <glyph glyph-name="idieresis" unicode="&#xef;" horiz-adv-x="395" 
d="M254 263l-242 -75q97 567 232 1099l231 21q-136 -542 -221 -1045zM348.5 1626.5q27.5 -27.5 27.5 -73.5q0 -45 -37.5 -82.5t-82.5 -37.5q-46 0 -73.5 27.5t-27.5 72.5q0 46 37.5 83.5t83.5 37.5q45 0 72.5 -27.5zM649 1619q25 -25 25 -66q0 -40 -34 -74t-74 -34
q-41 0 -66 25t-25 65q0 41 34 75t75 34q40 0 65 -25z" />
    <glyph glyph-name="idieresis.3" horiz-adv-x="357" 
d="M255 437l-208 -61q84 497 202 962l198 13q-118 -474 -192 -914zM370.5 1618q23.5 -25 23.5 -66q0 -39 -32.5 -71t-71.5 -32t-62.5 25.5t-23.5 64.5q0 41 32 72.5t72 31.5q39 0 62.5 -25zM628.5 1607.5q21.5 -22.5 21.5 -58.5t-29.5 -64.5t-63.5 -28.5q-35 0 -56.5 23
t-21.5 58q0 36 29 65t65 29q34 -1 55.5 -23.5z" />
    <glyph glyph-name="idieresis.4" horiz-adv-x="337" 
d="M261 539l-194 -44q79 458 188 884l185 1q-110 -435 -179 -841zM377 1612q23 -26 23 -64q0 -37 -28.5 -63t-64.5 -26q-37 0 -60.5 26t-23.5 63t29 63.5t66 26.5q36 0 59 -26zM615.5 1602q21.5 -24 21.5 -57t-24.5 -57t-56.5 -24q-33 0 -55 24t-22 56q0 34 25 58t58 24
q32 0 53.5 -24z" />
    <glyph glyph-name="idieresis.5" horiz-adv-x="337" 
d="M261 539l-194 -44q79 458 188 884l185 1q-110 -435 -179 -841zM401.5 1610q22.5 -25 22.5 -61q0 -35 -24.5 -59.5t-60.5 -24.5t-57.5 25t-21.5 60q0 36 26 60.5t60 24.5q33 0 55.5 -25zM626 1598q18 -21 18 -53t-21.5 -54.5t-54.5 -22.5q-30 0 -50.5 23t-20.5 54
q0 32 23.5 54.5t57.5 22.5q30 -3 48 -24z" />
    <glyph glyph-name="idieresis.6" horiz-adv-x="308" 
d="M252 640l-171 -38q71 413 168 798l162 -1q-98 -392 -159 -759zM391.5 1606.5q21.5 -23.5 21.5 -58.5q0 -33 -23.5 -56t-57.5 -23t-54.5 23.5t-20.5 56.5q0 34 25 57.5t57 23.5q31 0 52.5 -23.5zM605 1595q17 -20 17 -50q0 -31 -20.5 -52.5t-51.5 -21.5q-29 0 -48.5 22
t-19.5 52t22.5 51.5t54.5 21.5q29 -3 46 -23z" />
    <glyph glyph-name="eth" unicode="&#xf0;" 
d="M323 644q-39 -134 -66 -270q222 106 307 294t85 291q-3 94 -54.5 125t-202.5 31l89 -39q-49 -111 -90 -223l99 18l-38 -201zM154 810q44 140 95 281q-23 -5 -47 -11l-69 189q153 42 310 49q219 -1 321.5 -100t102.5 -226q0 -149 -70.5 -322t-175 -280t-252 -174
t-386.5 -92q44 237 109 473l-94 -19l48 212z" />
    <glyph glyph-name="eth.3" horiz-adv-x="695" 
d="M312 770q-34 -117 -58 -236q191 88 264.5 251.5t74.5 254.5q-3 83 -47 111t-174 32l76 -37q-42 -96 -77 -194l77 13l-33 -176zM166 919q39 123 83 246q-20 -4 -41 -9l-58 168q131 33 266 36q189 -5 276.5 -94.5t87.5 -201.5q0 -131 -61 -281.5t-151 -242.5t-217 -148
t-333 -73q38 208 94 414l-73 -13l42 185z" />
    <glyph glyph-name="eth.4" horiz-adv-x="652" 
d="M311 844q-31 -107 -53 -217q178 71 246 219t69 233q-3 77 -44 106t-162 40l71 -38q-39 -87 -72 -177l73 7l-31 -162zM655.5 1291.5q91.5 -97.5 91.5 -201.5q0 -122 -57 -258.5t-140.5 -217t-202 -125t-309.5 -47.5q36 191 88 380l-69 -8l39 171l80 7q36 112 77 224
q-19 -2 -38 -6l-55 160q99 19 198 19q206 0 297.5 -97.5z" />
    <glyph glyph-name="eth.5" horiz-adv-x="613" 
d="M304 881q-29 -102 -50 -206q164 67 228 207t64 221q-2 73 -40 101t-149 39l65 -37q-36 -83 -67 -167l68 6l-29 -154zM622.5 1315q85.5 -84 85.5 -203q-1 -116 -54 -245.5t-130.5 -205.5t-187 -117.5t-286.5 -42.5q33 181 82 360l-64 -7l36 162l75 7q33 106 72 212
q-17 -2 -35 -5l-51 153q90 16 182 16q190 0 275.5 -84z" />
    <glyph glyph-name="eth.6" horiz-adv-x="578" 
d="M294 916q-28 -97 -48 -196q156 64 217 197t61 210q-2 69 -38 95.5t-142 37.5l62 -36q-34 -78 -64 -158l65 6l-28 -147zM596.5 1328q81.5 -80 81.5 -193q-1 -110 -51.5 -233t-124 -195t-177.5 -111.5t-273 -40.5q32 172 78 342l-60 -7l34 154l71 7q31 100 68 201
q-16 -2 -33 -5l-48 146q85 15 173 15q180 0 261.5 -80z" />
    <glyph glyph-name="ntilde" unicode="&#xf1;" 
d="M320 673q-50 -220 -97 -474l-242 -75q87 467 213 933l-54 165l194 87l202 -595q59 297 131 594l227 28q-123 -537 -198 -994l-243 -76zM617.5 1658.5q45.5 -43.5 81.5 -43.5q37 0 137 94l100 -32q-165 -216 -266 -216q-71 0 -116.5 44t-80.5 44q-38 0 -138 -95l-100 32
q165 216 266 216q71 0 116.5 -43.5z" />
    <glyph glyph-name="ntilde.3" horiz-adv-x="702" 
d="M308 795q-43 -192 -84 -415l-208 -61q76 409 185 816l-46 147l167 73l173 -528q51 260 114 520l195 19q-107 -470 -173 -870l-209 -62zM611 1636.5q39 -39.5 70 -40.5q32 0 118 80l86 -30q-143 -185 -230 -185q-61 2 -100 41.5t-69 40.5q-32 0 -119 -81l-86 31
q143 184 230 184q61 -1 100 -40.5z" />
    <glyph glyph-name="ntilde.4" horiz-adv-x="654" 
d="M308 867q-40 -176 -78 -381l-194 -44q71 376 173 748l-44 141l156 57l160 -502q48 240 106 478l182 6q-100 -431 -161 -801l-194 -44zM608 1620q36 -39 65 -41q30 0 110 67l80 -34q-123 -158 -214 -158q-56 5 -92.5 44.5t-64.5 42.5q-30 0 -111 -68l-80 33
q123 158 214 158q57 -5 93 -44z" />
    <glyph glyph-name="ntilde.5" horiz-adv-x="605" 
d="M301 904q-38 -168 -74 -363l-179 -40q66 357 161 711l-39 133l144 54l147 -479q45 227 99 453l168 5q-93 -409 -150 -760l-178 -41l-2 -1zM600.5 1618q33.5 -37 59.5 -40q28 0 102 63l74 -32q-113 -149 -198 -149q-52 5 -85.5 43t-59.5 40q-28 0 -103 -64l-73 33
q112 149 197 149q53 -6 86.5 -43z" />
    <glyph glyph-name="ntilde.6" horiz-adv-x="571" 
d="M291 938q-36 -160 -71 -345l-170 -38q63 339 153 675l-37 127l137 51l140 -455q43 215 94 430l159 5q-88 -389 -142 -722l-169 -39l-2 -1zM586 1611.5q32 -35.5 57 -37.5q26 0 97 60l70 -31q-107 -141 -188 -141q-50 5 -81.5 40.5t-56.5 38.5q-27 0 -97 -61l-71 31
q107 141 188 141q50 -5 82 -40.5z" />
    <glyph glyph-name="ograve" unicode="&#xf2;" horiz-adv-x="873" 
d="M728 965q-63 150 -142.5 166.5t-175 -66.5t-131 -233.5t-6 -266.5t112.5 -133.5t173.5 65.5t123 217t16.5 243zM788 981l101 26q47 -116 9 -320t-211.5 -347.5t-354.5 -110t-251 207t-3 450t250.5 378t329.5 68.5t291 -214zM687 1416l-130 3l-189 168l198 112z" />
    <glyph glyph-name="ograve.3" horiz-adv-x="754" 
d="M654 1044q-54 133 -119 149q-71 17 -153.5 -54t-113.5 -202.5t-6 -235t96.5 -120.5t149.5 54.5t106.5 188.5t14.5 214zM706 1057l87 21q40 -103 7 -282t-183 -302t-305.5 -89.5t-215 188t-1.5 396.5t216 327.5t283.5 53t249.5 -194.5zM677 1430l-112 5l-162 152l171 94z
" />
    <glyph glyph-name="ograve.4" horiz-adv-x="703" 
d="M626 1080q-50 128 -111 146q-66 20 -142.5 -41t-105.5 -182t-5.5 -219t90 -118.5t139 42t98.5 170t14 198.5zM675 1089l80 14q37 -98 6.5 -263t-170 -271t-284 -65.5t-200 189t-1.5 370t201 292t263.5 32.5t232.5 -196zM668 1429l-104 11l-151 152l159 77z" />
    <glyph glyph-name="ograve.5" horiz-adv-x="652" 
d="M593 1103q-46 122 -102 141q-62 19 -133 -39t-98 -172.5t-5.5 -208.5t83 -113.5t128.5 39.5t91.5 161t13.5 188zM636 1110l76 14q34 -94 5 -250t-158 -256.5t-262.5 -60.5t-185 181.5t-0.5 352t187 276t244 29t215 -188.5zM652 1435l-96 12l-139 145l147 72z" />
    <glyph glyph-name="ograve.6" horiz-adv-x="612" 
d="M566 1127q-44 116 -97 134q-59 18 -126.5 -37.5t-93 -164t-5 -198t79 -108t122 37.5t87 153t12.5 179zM607 1133l72 14q32 -90 4.5 -238t-150 -243.5t-249 -57.5t-175.5 172.5t-0.5 334.5t177.5 262t231.5 27.5t204.5 -179.5zM650 1442l-91 11l-132 138l140 69z" />
    <glyph glyph-name="oacute" unicode="&#xf3;" horiz-adv-x="873" 
d="M728 965q-63 150 -142.5 166.5t-175 -66.5t-131 -233.5t-6 -266.5t112.5 -133.5t173.5 65.5t123 217t16.5 243zM788 981l101 26q47 -116 9 -320t-211.5 -347.5t-354.5 -110t-251 207t-3 450t250.5 378t329.5 68.5t291 -214zM682 1699l170 -112l-230 -168l-131 -3z" />
    <glyph glyph-name="oacute.3" horiz-adv-x="754" 
d="M654 1044q-54 133 -119 149q-71 17 -153.5 -54t-113.5 -202.5t-6 -235t96.5 -120.5t149.5 54.5t106.5 188.5t14.5 214zM706 1057l87 21q40 -103 7 -282t-183 -302t-305.5 -89.5t-215 188t-1.5 396.5t216 327.5t283.5 53t249.5 -194.5zM665 1681l146 -102l-198 -143h-112z
" />
    <glyph glyph-name="oacute.4" horiz-adv-x="703" 
d="M626 1080q-50 128 -111 146q-66 20 -142.5 -41t-105.5 -182t-5.5 -219t90 -118.5t139 42t98.5 170t14 198.5zM675 1089l80 14q37 -98 6.5 -263t-170 -271t-284 -65.5t-200 189t-1.5 370t201 292t263.5 32.5t232.5 -196zM665 1670l136 -104l-185 -121l-105 7z" />
    <glyph glyph-name="oacute.5" horiz-adv-x="652" 
d="M593 1103q-46 122 -102 141q-62 19 -133 -39t-98 -172.5t-5.5 -208.5t83 -113.5t128.5 39.5t91.5 161t13.5 188zM636 1110l76 14q34 -94 5 -250t-158 -256.5t-262.5 -60.5t-185 181.5t-0.5 352t187 276t244 29t215 -188.5zM637 1660l125 -100l-171 -114l-97 7z" />
    <glyph glyph-name="oacute.6" horiz-adv-x="612" 
d="M566 1127q-44 116 -97 134q-59 18 -126.5 -37.5t-93 -164t-5 -198t79 -108t122 37.5t87 153t12.5 179zM607 1133l72 14q32 -90 4.5 -238t-150 -243.5t-249 -57.5t-175.5 172.5t-0.5 334.5t177.5 262t231.5 27.5t204.5 -179.5zM630 1656l118 -95l-162 -109l-92 7z" />
    <glyph glyph-name="ocircumflex" unicode="&#xf4;" horiz-adv-x="873" 
d="M728 965q-63 150 -142.5 166.5t-175 -66.5t-131 -233.5t-6 -266.5t112.5 -133.5t173.5 65.5t123 217t16.5 243zM788 981l101 26q47 -116 9 -320t-211.5 -347.5t-354.5 -110t-251 207t-3 450t250.5 378t329.5 68.5t291 -214zM813 1453l-102 -39l-108 112l-161 -112
l-100 32l195 216l182 7z" />
    <glyph glyph-name="ocircumflex.3" horiz-adv-x="754" 
d="M654 1044q-54 133 -119 149q-71 17 -153.5 -54t-113.5 -202.5t-6 -235t96.5 -120.5t149.5 54.5t106.5 188.5t14.5 214zM706 1057l87 21q40 -103 7 -282t-183 -302t-305.5 -89.5t-215 188t-1.5 396.5t216 327.5t283.5 53t249.5 -194.5zM746 1459l-87 -32l-93 101l-139 -96
l-86 31l168 186l157 2z" />
    <glyph glyph-name="ocircumflex.4" horiz-adv-x="703" 
d="M626 1080q-50 128 -111 146q-66 20 -142.5 -41t-105.5 -182t-5.5 -219t90 -118.5t139 42t98.5 170t14 198.5zM675 1089l80 14q37 -98 6.5 -263t-170 -271t-284 -65.5t-200 189t-1.5 370t201 292t263.5 32.5t232.5 -196zM728 1448l-81 -25l-87 100l-129 -80l-80 33
l157 163l146 -7z" />
    <glyph glyph-name="ocircumflex.5" horiz-adv-x="652" 
d="M593 1103q-46 122 -102 141q-62 19 -133 -39t-98 -172.5t-5.5 -208.5t83 -113.5t128.5 39.5t91.5 161t13.5 188zM636 1110l76 14q34 -94 5 -250t-158 -256.5t-262.5 -60.5t-185 181.5t-0.5 352t187 276t244 29t215 -188.5zM692 1452l-75 -22l-80 95l-119 -76l-74 33
l145 154l135 -8z" />
    <glyph glyph-name="ocircumflex.6" horiz-adv-x="612" 
d="M566 1127q-44 116 -97 134q-59 18 -126.5 -37.5t-93 -164t-5 -198t79 -108t122 37.5t87 153t12.5 179zM607 1133l72 14q32 -90 4.5 -238t-150 -243.5t-249 -57.5t-175.5 172.5t-0.5 334.5t177.5 262t231.5 27.5t204.5 -179.5zM675 1456l-72 -21l-76 90l-113 -72l-70 31
l138 146l128 -7z" />
    <glyph glyph-name="otilde" unicode="&#xf5;" horiz-adv-x="873" 
d="M728 965q-63 150 -142.5 166.5t-175 -66.5t-131 -233.5t-6 -266.5t112.5 -133.5t173.5 65.5t123 217t16.5 243zM788 981l101 26q47 -116 9 -320t-211.5 -347.5t-354.5 -110t-251 207t-3 450t250.5 378t329.5 68.5t291 -214zM609.5 1658.5q45.5 -43.5 81.5 -43.5
q37 0 137 94l100 -32q-165 -216 -266 -216q-71 0 -116.5 44t-80.5 44q-38 0 -138 -95l-100 32q165 216 266 216q71 0 116.5 -43.5z" />
    <glyph glyph-name="otilde.3" horiz-adv-x="754" 
d="M654 1044q-54 133 -119 149q-71 17 -153.5 -54t-113.5 -202.5t-6 -235t96.5 -120.5t149.5 54.5t106.5 188.5t14.5 214zM706 1057l87 21q40 -103 7 -282t-183 -302t-305.5 -89.5t-215 188t-1.5 396.5t216 327.5t283.5 53t249.5 -194.5zM591 1636.5q39 -39.5 70 -40.5
q32 0 118 80l86 -30q-143 -185 -230 -185q-61 2 -100 41.5t-69 40.5q-32 0 -119 -81l-86 31q143 184 230 184q61 -1 100 -40.5z" />
    <glyph glyph-name="otilde.4" horiz-adv-x="703" 
d="M626 1080q-50 128 -111 146q-66 20 -142.5 -41t-105.5 -182t-5.5 -219t90 -118.5t139 42t98.5 170t14 198.5zM675 1089l80 14q37 -98 6.5 -263t-170 -271t-284 -65.5t-200 189t-1.5 370t201 292t263.5 32.5t232.5 -196zM588 1620q36 -39 65 -41q30 0 110 67l80 -34
q-123 -158 -214 -158q-56 5 -92.5 44.5t-64.5 42.5q-30 0 -111 -68l-80 33q123 158 214 158q57 -5 93 -44z" />
    <glyph glyph-name="otilde.5" horiz-adv-x="652" 
d="M593 1103q-46 122 -102 141q-62 19 -133 -39t-98 -172.5t-5.5 -208.5t83 -113.5t128.5 39.5t91.5 161t13.5 188zM636 1110l76 14q34 -94 5 -250t-158 -256.5t-262.5 -60.5t-185 181.5t-0.5 352t187 276t244 29t215 -188.5zM568.5 1618q33.5 -37 59.5 -40q28 0 102 63
l74 -32q-113 -149 -198 -149q-52 5 -85.5 43t-59.5 40q-28 0 -103 -64l-73 33q112 149 197 149q53 -6 86.5 -43z" />
    <glyph glyph-name="otilde.6" horiz-adv-x="612" 
d="M566 1127q-44 116 -97 134q-59 18 -126.5 -37.5t-93 -164t-5 -198t79 -108t122 37.5t87 153t12.5 179zM607 1133l72 14q32 -90 4.5 -238t-150 -243.5t-249 -57.5t-175.5 172.5t-0.5 334.5t177.5 262t231.5 27.5t204.5 -179.5zM555 1611.5q32 -35.5 57 -37.5q26 0 97 60
l70 -31q-107 -141 -188 -141q-50 5 -81.5 40.5t-56.5 38.5q-27 0 -97 -61l-71 31q107 141 188 141q50 -5 82 -40.5z" />
    <glyph glyph-name="odieresis" unicode="&#xf6;" horiz-adv-x="873" 
d="M728 965q-63 150 -142.5 166.5t-175 -66.5t-131 -233.5t-6 -266.5t112.5 -133.5t173.5 65.5t123 217t16.5 243zM788 981l101 26q47 -116 9 -320t-211.5 -347.5t-354.5 -110t-251 207t-3 450t250.5 378t329.5 68.5t291 -214zM521.5 1626.5q27.5 -27.5 27.5 -73.5
q0 -45 -37.5 -82.5t-82.5 -37.5q-46 0 -73.5 27.5t-27.5 72.5q0 46 37.5 83.5t83.5 37.5q45 0 72.5 -27.5zM822 1619q25 -25 25 -66q0 -40 -34 -74t-74 -34q-41 0 -66 25t-25 65q0 41 34 75t75 34q40 0 65 -25z" />
    <glyph glyph-name="odieresis.3" horiz-adv-x="754" 
d="M654 1044q-54 133 -119 149q-71 17 -153.5 -54t-113.5 -202.5t-6 -235t96.5 -120.5t149.5 54.5t106.5 188.5t14.5 214zM706 1057l87 21q40 -103 7 -282t-183 -302t-305.5 -89.5t-215 188t-1.5 396.5t216 327.5t283.5 53t249.5 -194.5zM480.5 1618q23.5 -25 23.5 -66
q0 -39 -32.5 -71t-71.5 -32t-62.5 25.5t-23.5 64.5q0 41 32 72.5t72 31.5q39 0 62.5 -25zM738.5 1607.5q21.5 -22.5 21.5 -58.5t-29.5 -64.5t-63.5 -28.5q-35 0 -56.5 23t-21.5 58q0 36 29 65t65 29q34 -1 55.5 -23.5z" />
    <glyph glyph-name="odieresis.4" horiz-adv-x="703" 
d="M626 1080q-50 128 -111 146q-66 20 -142.5 -41t-105.5 -182t-5.5 -219t90 -118.5t139 42t98.5 170t14 198.5zM675 1089l80 14q37 -98 6.5 -263t-170 -271t-284 -65.5t-200 189t-1.5 370t201 292t263.5 32.5t232.5 -196zM487 1612q23 -26 23 -64q0 -37 -28.5 -63
t-64.5 -26q-37 0 -60.5 26t-23.5 63t29 63.5t66 26.5q36 0 59 -26zM725.5 1602q21.5 -24 21.5 -57t-24.5 -57t-56.5 -24q-33 0 -55 24t-22 56q0 34 25 58t58 24q32 0 53.5 -24z" />
    <glyph glyph-name="odieresis.5" horiz-adv-x="652" 
d="M593 1103q-46 122 -102 141q-62 19 -133 -39t-98 -172.5t-5.5 -208.5t83 -113.5t128.5 39.5t91.5 161t13.5 188zM636 1110l76 14q34 -94 5 -250t-158 -256.5t-262.5 -60.5t-185 181.5t-0.5 352t187 276t244 29t215 -188.5zM467.5 1610q22.5 -25 22.5 -61
q0 -35 -24.5 -59.5t-60.5 -24.5t-57.5 25t-21.5 60q0 36 26 60.5t60 24.5q33 0 55.5 -25zM692 1598q18 -21 18 -53t-21.5 -54.5t-54.5 -22.5q-30 0 -50.5 23t-20.5 54q0 32 23.5 54.5t57.5 22.5q30 -3 48 -24z" />
    <glyph glyph-name="odieresis.6" horiz-adv-x="612" 
d="M566 1127q-44 116 -97 134q-59 18 -126.5 -37.5t-93 -164t-5 -198t79 -108t122 37.5t87 153t12.5 179zM607 1133l72 14q32 -90 4.5 -238t-150 -243.5t-249 -57.5t-175.5 172.5t-0.5 334.5t177.5 262t231.5 27.5t204.5 -179.5zM460.5 1606.5q21.5 -23.5 21.5 -58.5
q0 -33 -23.5 -56t-57.5 -23t-54.5 23.5t-20.5 56.5q0 34 25 57.5t57 23.5q31 0 52.5 -23.5zM674 1595q17 -20 17 -50q0 -31 -20.5 -52.5t-51.5 -21.5q-29 0 -48.5 22t-19.5 52t22.5 51.5t54.5 21.5q29 -3 46 -23z" />
    <glyph glyph-name="divide" unicode="&#xf7;" 
d="M795 908l-38 -201l-644 -127l48 212zM472.5 497.5q27.5 -27.5 27.5 -73.5q0 -45 -37.5 -82.5t-82.5 -37.5q-46 0 -73.5 27.5t-27.5 72.5q0 46 37.5 83.5t83.5 37.5q45 0 72.5 -27.5zM602.5 1156.5q27.5 -27.5 27.5 -73.5q0 -45 -37.5 -82.5t-82.5 -37.5q-46 0 -73.5 27.5
t-27.5 72.5q0 46 37.5 83.5t83.5 37.5q45 0 72.5 -27.5z" />
    <glyph glyph-name="divide.3" horiz-adv-x="713" 
d="M726 993l-33 -176l-554 -98l41 186zM447.5 639q23.5 -25 23.5 -65t-32.5 -72t-70.5 -31q-40 1 -63.5 25.5t-23.5 64.5t32.5 72.5t71.5 31.5t62.5 -26zM561 1216q24 -25 23 -65q0 -40 -32 -72t-71 -31q-40 1 -63.5 25.5t-23.5 64.5t32.5 72.5t72.5 31.5q38 -1 62 -26z" />
    <glyph glyph-name="divide.4" horiz-adv-x="680" 
d="M700 1031l-31 -162l-515 -58l39 170zM441 717.5q22 -24.5 22 -62.5q0 -37 -30 -65t-66 -25q-37 4 -59 28.5t-22 61.5t30.5 65t66.5 25t58 -27.5zM547 1248.5q22 -24.5 22 -62.5q-1 -37 -31 -65t-66 -25q-37 4 -58.5 28.5t-21.5 61.5t30 65t67 25q36 -3 58 -27.5z" />
    <glyph glyph-name="divide.5" horiz-adv-x="645" 
d="M669 1056l-29 -154l-477 -51l36 162zM428.5 759.5q20.5 -23.5 20.5 -58.5q-1 -35 -28.5 -61.5t-61.5 -23.5t-54 26.5t-20 58.5q0 36 28 62.5t62 23.5q33 -4 53.5 -27.5zM527.5 1264.5q20.5 -23.5 19.5 -59.5q0 -35 -28 -61.5t-61 -23.5q-34 4 -54 27.5t-20 58.5
q0 36 28 62.5t62 22.5q33 -3 53.5 -26.5z" />
    <glyph glyph-name="divide.6" horiz-adv-x="619" 
d="M645 1082l-27 -146l-453 -49l34 154zM416.5 800.5q19.5 -22.5 19.5 -55.5q-1 -34 -27 -59t-58 -22q-33 3 -52 25t-19 56t27 59t59 22q31 -3 50.5 -25.5zM510.5 1280q19.5 -22 18.5 -56q0 -34 -26.5 -59t-57.5 -22q-33 4 -52 26t-19 55q0 35 27 60t59 21q31 -3 50.5 -25z
" />
    <glyph glyph-name="oslash" unicode="&#xf8;" horiz-adv-x="873" 
d="M728 965q-63 150 -142.5 166.5t-175 -66.5t-131 -233.5t-6 -266.5t112.5 -133.5t173.5 65.5t123 217t16.5 243zM788 981l101 26q47 -116 9 -320t-211.5 -347.5t-354.5 -110t-251 207t-3 450t250.5 378t329.5 68.5t291 -214zM831 1429l157 -97q-335 -423 -893 -1229
l-177 117q571 793 913 1209z" />
    <glyph glyph-name="oslash.3" horiz-adv-x="754" 
d="M654 1044q-54 133 -119 149q-71 17 -153.5 -54t-113.5 -202.5t-6 -235t96.5 -120.5t149.5 54.5t106.5 188.5t14.5 214zM706 1057l87 21q40 -103 7 -282t-183 -302t-305.5 -89.5t-215 188t-1.5 396.5t216 327.5t283.5 53t249.5 -194.5zM707 1443l135 -89
q-289 -365 -771 -1062l-152 107q493 685 788 1044z" />
    <glyph glyph-name="oslash.4" horiz-adv-x="703" 
d="M626 1080q-50 128 -111 146q-66 20 -142.5 -41t-105.5 -182t-5.5 -219t90 -118.5t139 42t98.5 170t14 198.5zM675 1089l80 14q37 -98 6.5 -263t-170 -271t-284 -65.5t-200 189t-1.5 370t201 292t263.5 32.5t232.5 -196zM673 1444l125 -91q-269 -323 -717 -944l-141 109
q458 609 733 926z" />
    <glyph glyph-name="oslash.5" horiz-adv-x="652" 
d="M593 1103q-46 122 -102 141q-62 19 -133 -39t-98 -172.5t-5.5 -208.5t83 -113.5t128.5 39.5t91.5 161t13.5 188zM636 1110l76 14q34 -94 5 -250t-158 -256.5t-262.5 -60.5t-185 181.5t-0.5 352t187 276t244 29t215 -188.5zM623 1460l115 -87q-249 -306 -665 -893
l-131 104q426 577 681 876z" />
    <glyph glyph-name="oslash.6" horiz-adv-x="612" 
d="M566 1127q-44 116 -97 134q-59 18 -126.5 -37.5t-93 -164t-5 -198t79 -108t122 37.5t87 153t12.5 179zM607 1133l72 14q32 -90 4.5 -238t-150 -243.5t-249 -57.5t-175.5 172.5t-0.5 334.5t177.5 262t231.5 27.5t204.5 -179.5zM575 1453l109 -83q-236 -291 -632 -848
l-124 99q405 548 647 832z" />
    <glyph glyph-name="ugrave" unicode="&#xf9;" horiz-adv-x="768" 
d="M463.5 478.5q55.5 52.5 88.5 289.5t107 542l227 25q-72 -311 -95.5 -470t-75.5 -341t-170 -238t-219 -56q-120 0 -195.5 56t-76.5 206q0 86 24 263.5t108 509.5l227 25q-81 -337 -106 -506t-25 -231q0 -76 20.5 -101.5t59.5 -25.5q46 0 101.5 52.5zM679 1416l-130 3
l-189 168l198 112z" />
    <glyph glyph-name="ugrave.3" horiz-adv-x="673" 
d="M436 628q43 50 72 252.5t93 469.5l196 17q-63 -272 -83.5 -411.5t-65.5 -293.5t-142 -204.5t-183 -50.5q-114 0 -178.5 52t-65.5 184q0 76 21.5 231.5t93.5 446.5l196 17q-71 -295 -92.5 -443t-22.5 -203q0 -67 17.5 -90.5t51.5 -23.5q49 0 92 50zM693 1430l-112 5
l-162 152l171 94z" />
    <glyph glyph-name="ugrave.4" horiz-adv-x="637" 
d="M348 667q45 0 83 42.5t65 229.5t87 432l182 4q-59 -250 -78 -378.5t-58.5 -264t-123 -179.5t-167.5 -44q-100 0 -170 56t-71 179q1 70 20.5 214t87.5 410l181 4q-65 -270 -85.5 -407t-20.5 -187q0 -63 16 -85.5t52 -25.5zM706 1429l-104 11l-151 152l159 77z" />
    <glyph glyph-name="ugrave.5" horiz-adv-x="595" 
d="M340 712q44 0 78.5 36t60 218.5t80.5 414.5l169 3q-55 -238 -73 -360t-54.5 -250t-113.5 -169.5t-154 -41.5q-113 0 -168.5 54t-55.5 171q0 67 18.5 203.5t81.5 389.5l168 3q-61 -257 -80 -387t-19 -179q0 -59 15 -81t47 -25zM708 1435l-96 12l-139 145l147 72z" />
    <glyph glyph-name="ugrave.6" horiz-adv-x="564" 
d="M330 755q42 0 75 34.5t57 207.5t76 394l161 3q-52 -227 -69.5 -342.5t-52 -237.5t-107.5 -161t-146 -39q-108 0 -160.5 51t-52.5 162q0 64 17.5 193.5t77.5 370.5l159 3q-57 -245 -75.5 -368.5t-18.5 -169.5q0 -56 14.5 -77t44.5 -24zM701 1442l-91 11l-132 138l140 69z
" />
    <glyph glyph-name="uacute" unicode="&#xfa;" horiz-adv-x="768" 
d="M463.5 478.5q55.5 52.5 88.5 289.5t107 542l227 25q-72 -311 -95.5 -470t-75.5 -341t-170 -238t-219 -56q-120 0 -195.5 56t-76.5 206q0 86 24 263.5t108 509.5l227 25q-81 -337 -106 -506t-25 -231q0 -76 20.5 -101.5t59.5 -25.5q46 0 101.5 52.5zM653 1699l170 -112
l-230 -168l-131 -3z" />
    <glyph glyph-name="uacute.3" horiz-adv-x="673" 
d="M436 628q43 50 72 252.5t93 469.5l196 17q-63 -272 -83.5 -411.5t-65.5 -293.5t-142 -204.5t-183 -50.5q-114 0 -178.5 52t-65.5 184q0 76 21.5 231.5t93.5 446.5l196 17q-71 -295 -92.5 -443t-22.5 -203q0 -67 17.5 -90.5t51.5 -23.5q49 0 92 50zM664 1681l146 -102
l-198 -143h-112z" />
    <glyph glyph-name="uacute.4" horiz-adv-x="637" 
d="M348 667q45 0 83 42.5t65 229.5t87 432l182 4q-59 -250 -78 -378.5t-58.5 -264t-123 -179.5t-167.5 -44q-100 0 -170 56t-71 179q1 70 20.5 214t87.5 410l181 4q-65 -270 -85.5 -407t-20.5 -187q0 -63 16 -85.5t52 -25.5zM673 1670l136 -104l-185 -121l-105 7z" />
    <glyph glyph-name="uacute.5" horiz-adv-x="595" 
d="M340 712q44 0 78.5 36t60 218.5t80.5 414.5l169 3q-55 -238 -73 -360t-54.5 -250t-113.5 -169.5t-154 -41.5q-113 0 -168.5 54t-55.5 171q0 67 18.5 203.5t81.5 389.5l168 3q-61 -257 -80 -387t-19 -179q0 -59 15 -81t47 -25zM683 1660l125 -100l-171 -114l-97 7z" />
    <glyph glyph-name="uacute.6" horiz-adv-x="564" 
d="M330 755q42 0 75 34.5t57 207.5t76 394l161 3q-52 -227 -69.5 -342.5t-52 -237.5t-107.5 -161t-146 -39q-108 0 -160.5 51t-52.5 162q0 64 17.5 193.5t77.5 370.5l159 3q-57 -245 -75.5 -368.5t-18.5 -169.5q0 -56 14.5 -77t44.5 -24zM681 1656l118 -95l-162 -109l-92 7z
" />
    <glyph glyph-name="ucircumflex" unicode="&#xfb;" horiz-adv-x="768" 
d="M463.5 478.5q55.5 52.5 88.5 289.5t107 542l227 25q-72 -311 -95.5 -470t-75.5 -341t-170 -238t-219 -56q-120 0 -195.5 56t-76.5 206q0 86 24 263.5t108 509.5l227 25q-81 -337 -106 -506t-25 -231q0 -76 20.5 -101.5t59.5 -25.5q46 0 101.5 52.5zM802 1453l-102 -39
l-108 112l-161 -112l-100 32l195 216l182 7z" />
    <glyph glyph-name="ucircumflex.3" horiz-adv-x="673" 
d="M436 628q43 50 72 252.5t93 469.5l196 17q-63 -272 -83.5 -411.5t-65.5 -293.5t-142 -204.5t-183 -50.5q-114 0 -178.5 52t-65.5 184q0 76 21.5 231.5t93.5 446.5l196 17q-71 -295 -92.5 -443t-22.5 -203q0 -67 17.5 -90.5t51.5 -23.5q49 0 92 50zM788 1459l-87 -32
l-93 101l-139 -96l-86 31l168 186l157 2z" />
    <glyph glyph-name="ucircumflex.4" horiz-adv-x="637" 
d="M348 667q45 0 83 42.5t65 229.5t87 432l182 4q-59 -250 -78 -378.5t-58.5 -264t-123 -179.5t-167.5 -44q-100 0 -170 56t-71 179q1 70 20.5 214t87.5 410l181 4q-65 -270 -85.5 -407t-20.5 -187q0 -63 16 -85.5t52 -25.5zM792 1448l-81 -25l-87 100l-129 -80l-80 33
l157 163l146 -7z" />
    <glyph glyph-name="ucircumflex.5" horiz-adv-x="595" 
d="M340 712q44 0 78.5 36t60 218.5t80.5 414.5l169 3q-55 -238 -73 -360t-54.5 -250t-113.5 -169.5t-154 -41.5q-113 0 -168.5 54t-55.5 171q0 67 18.5 203.5t81.5 389.5l168 3q-61 -257 -80 -387t-19 -179q0 -59 15 -81t47 -25zM781 1452l-75 -22l-80 95l-119 -76l-74 33
l145 154l135 -8z" />
    <glyph glyph-name="ucircumflex.6" horiz-adv-x="564" 
d="M330 755q42 0 75 34.5t57 207.5t76 394l161 3q-52 -227 -69.5 -342.5t-52 -237.5t-107.5 -161t-146 -39q-108 0 -160.5 51t-52.5 162q0 64 17.5 193.5t77.5 370.5l159 3q-57 -245 -75.5 -368.5t-18.5 -169.5q0 -56 14.5 -77t44.5 -24zM756 1456l-72 -21l-76 90l-113 -72
l-70 31l138 146l128 -7z" />
    <glyph glyph-name="udieresis" unicode="&#xfc;" horiz-adv-x="768" 
d="M463.5 478.5q55.5 52.5 88.5 289.5t107 542l227 25q-72 -311 -95.5 -470t-75.5 -341t-170 -238t-219 -56q-120 0 -195.5 56t-76.5 206q0 86 24 263.5t108 509.5l227 25q-81 -337 -106 -506t-25 -231q0 -76 20.5 -101.5t59.5 -25.5q46 0 101.5 52.5zM523.5 1626.5
q27.5 -27.5 27.5 -73.5q0 -45 -37.5 -82.5t-82.5 -37.5q-46 0 -73.5 27.5t-27.5 72.5q0 46 37.5 83.5t83.5 37.5q45 0 72.5 -27.5zM824 1619q25 -25 25 -66q0 -40 -34 -74t-74 -34q-41 0 -66 25t-25 65q0 41 34 75t75 34q40 0 65 -25z" />
    <glyph glyph-name="udieresis.3" horiz-adv-x="673" 
d="M436 628q43 50 72 252.5t93 469.5l196 17q-63 -272 -83.5 -411.5t-65.5 -293.5t-142 -204.5t-183 -50.5q-114 0 -178.5 52t-65.5 184q0 76 21.5 231.5t93.5 446.5l196 17q-71 -295 -92.5 -443t-22.5 -203q0 -67 17.5 -90.5t51.5 -23.5q49 0 92 50zM540.5 1618
q23.5 -25 23.5 -66q0 -39 -32.5 -71t-71.5 -32t-62.5 25.5t-23.5 64.5q0 41 32 72.5t72 31.5q39 0 62.5 -25zM798.5 1607.5q21.5 -22.5 21.5 -58.5t-29.5 -64.5t-63.5 -28.5q-35 0 -56.5 23t-21.5 58q0 36 29 65t65 29q34 -1 55.5 -23.5z" />
    <glyph glyph-name="udieresis.4" horiz-adv-x="637" 
d="M348 667q45 0 83 42.5t65 229.5t87 432l182 4q-59 -250 -78 -378.5t-58.5 -264t-123 -179.5t-167.5 -44q-100 0 -170 56t-71 179q1 70 20.5 214t87.5 410l181 4q-65 -270 -85.5 -407t-20.5 -187q0 -63 16 -85.5t52 -25.5zM547 1612q23 -26 23 -64q0 -37 -28.5 -63
t-64.5 -26q-37 0 -60.5 26t-23.5 63t29 63.5t66 26.5q36 0 59 -26zM785.5 1602q21.5 -24 21.5 -57t-24.5 -57t-56.5 -24q-33 0 -55 24t-22 56q0 34 25 58t58 24q32 0 53.5 -24z" />
    <glyph glyph-name="udieresis.5" horiz-adv-x="595" 
d="M340 712q44 0 78.5 36t60 218.5t80.5 414.5l169 3q-55 -238 -73 -360t-54.5 -250t-113.5 -169.5t-154 -41.5q-113 0 -168.5 54t-55.5 171q0 67 18.5 203.5t81.5 389.5l168 3q-61 -257 -80 -387t-19 -179q0 -59 15 -81t47 -25zM556.5 1610q22.5 -25 22.5 -61
q0 -35 -24.5 -59.5t-60.5 -24.5t-57.5 25t-21.5 60q0 36 26 60.5t60 24.5q33 0 55.5 -25zM781 1598q18 -21 18 -53t-21.5 -54.5t-54.5 -22.5q-30 0 -50.5 23t-20.5 54q0 32 23.5 54.5t57.5 22.5q30 -3 48 -24z" />
    <glyph glyph-name="udieresis.6" horiz-adv-x="564" 
d="M330 755q42 0 75 34.5t57 207.5t76 394l161 3q-52 -227 -69.5 -342.5t-52 -237.5t-107.5 -161t-146 -39q-108 0 -160.5 51t-52.5 162q0 64 17.5 193.5t77.5 370.5l159 3q-57 -245 -75.5 -368.5t-18.5 -169.5q0 -56 14.5 -77t44.5 -24zM541.5 1606.5
q21.5 -23.5 21.5 -58.5q0 -33 -23.5 -56t-57.5 -23t-54.5 23.5t-20.5 56.5q0 34 25 57.5t57 23.5q31 0 52.5 -23.5zM755 1595q17 -20 17 -50q0 -31 -20.5 -52.5t-51.5 -21.5q-29 0 -48.5 22t-19.5 52t22.5 51.5t54.5 21.5q29 -3 46 -23z" />
    <glyph glyph-name="yacute" unicode="&#xfd;" horiz-adv-x="710" 
d="M289 618q-102 277 -125.5 394t-33.5 241l220 26q6 -95 20 -194t60 -217q73 78 139 211t77 229l234 27q-12 -90 -70.5 -250t-290.5 -453q-43 -200 -75 -373l-242 -75q39 209 87 434zM614 1699l170 -112l-230 -168l-131 -3z" />
    <glyph glyph-name="yacute.3" horiz-adv-x="598" 
d="M273 751q-88 246 -108 349.5t-28 212.5l189 18q5 -84 17 -171t51 -192q63 67 120 182.5t67 199.5l201 19q-10 -79 -60.5 -218.5t-251.5 -391.5q-36 -175 -65 -328l-208 -60q34 183 76 380zM615 1681l146 -102l-198 -143h-112z" />
    <glyph glyph-name="yacute.4" horiz-adv-x="550" 
d="M269 835q-82 235 -100.5 333t-25.5 200l176 5q4 -78 15 -160t48 -182q58 58 111.5 162.5t62.5 182.5l187 5q-10 -73 -57 -200t-234 -351q-34 -160 -60 -300l-194 -44q32 169 71 349zM625 1670l136 -104l-185 -121l-105 7z" />
    <glyph glyph-name="yacute.5" horiz-adv-x="510" 
d="M263 875q-75 223 -92 316t-24 190l163 4q4 -74 14 -152.5t44 -173.5q54 55 103.5 154t57.5 173l174 4q-10 -70 -53.5 -190.5t-217.5 -331.5q-32 -153 -56 -285l-180 -41q30 161 67 333zM626 1660l125 -100l-171 -114l-97 7z" />
    <glyph glyph-name="yacute.6" horiz-adv-x="472" 
d="M253 910q-71 212 -87 300.5t-23 180.5l155 4q4 -71 13.5 -145.5t41.5 -164.5q51 52 98 146t55 164l165 4q-9 -66 -50.5 -180.5t-206.5 -315.5q-31 -145 -53 -270l-171 -39q28 153 63 316zM621 1656l118 -95l-162 -109l-92 7z" />
    <glyph glyph-name="thorn" unicode="&#xfe;" horiz-adv-x="777" 
d="M263 347q-14 -70 -28 -148l-242 -75q70 375 170 801l-60 164q53 17 106 28q18 73 37 148l227 25q-19 -79 -36 -152q104 -3 182.5 -30t133 -92.5t54.5 -184.5q0 -129 -47.5 -231.5t-139 -154t-357.5 -98.5zM390 934q-12 -51 -34.5 -151.5t-46.5 -214.5q160 24 225 74.5
t65 187.5q0 62 -58 83.5t-129 21.5q-10 0 -22 -1z" />
    <glyph glyph-name="thorn.3" horiz-adv-x="670" 
d="M261 510q-13 -61 -25 -130l-208 -61q61 329 148 702l-51 145q45 14 91 23q16 63 32 129l195 17q-16 -69 -31 -133q90 -5 157 -30.5t114 -84t47 -163.5q-1 -113 -42 -202.5t-119.5 -132.5t-307.5 -79zM371 1024q-10 -45 -29.5 -133t-40.5 -188q137 18 193 61t57 164
q0 54 -50 74.5t-130 21.5z" />
    <glyph glyph-name="thorn.4" horiz-adv-x="631" 
d="M264 606q-11 -57 -22 -120l-194 -44q57 303 138 645l-48 139q42 10 85 15q14 58 30 119l181 4q-15 -64 -29 -122q83 -10 146 -38t106.5 -85.5t43.5 -155.5q-1 -105 -39 -186t-111.5 -116.5t-286.5 -54.5zM367 1078q-9 -41 -27.5 -122t-37.5 -173q128 9 180 45.5t52 148.5
q0 51 -46 73t-121 28z" />
    <glyph glyph-name="thorn.5" horiz-adv-x="586" 
d="M261 655q-11 -54 -22 -114l-179 -40q53 287 129 612l-44 132q39 10 79 14q13 56 28 113l168 3q-15 -61 -27 -116q76 -10 134 -37t98.5 -82t39.5 -148q0 -101 -35.5 -177.5t-103.5 -109.5t-265 -50zM357 1103q-9 -39 -26 -115.5t-35 -163.5q118 6 166.5 41t48.5 141
q0 49 -42.5 70t-111.5 27z" />
    <glyph glyph-name="thorn.6" horiz-adv-x="548" 
d="M253 701q-10 -51 -21 -108l-170 -38q51 272 123 581l-42 126q37 9 75 13q13 53 27 107l159 3q-14 -58 -25 -110q72 -10 127 -35.5t93.5 -77.5t37.5 -141q0 -96 -33.5 -168.5t-98 -104t-252.5 -47.5zM345 1127q-9 -37 -25 -110t-33 -155q112 5 158 38.5t46 133.5
q0 47 -40.5 67t-105.5 26z" />
    <glyph glyph-name="ydieresis" unicode="&#xff;" horiz-adv-x="710" 
d="M289 618q-102 277 -125.5 394t-33.5 241l220 26q6 -95 20 -194t60 -217q73 78 139 211t77 229l234 27q-12 -90 -70.5 -250t-290.5 -453q-43 -200 -75 -373l-242 -75q39 209 87 434zM484.5 1626.5q27.5 -27.5 27.5 -73.5q0 -45 -37.5 -82.5t-82.5 -37.5q-46 0 -73.5 27.5
t-27.5 72.5q0 46 37.5 83.5t83.5 37.5q45 0 72.5 -27.5zM785 1619q25 -25 25 -66q0 -40 -34 -74t-74 -34q-41 0 -66 25t-25 65q0 41 34 75t75 34q40 0 65 -25z" />
    <glyph glyph-name="ydieresis.3" horiz-adv-x="598" 
d="M273 751q-88 246 -108 349.5t-28 212.5l189 18q5 -84 17 -171t51 -192q63 67 120 182.5t67 199.5l201 19q-10 -79 -60.5 -218.5t-251.5 -391.5q-36 -175 -65 -328l-208 -60q34 183 76 380zM490.5 1617q23.5 -25 23.5 -66q0 -39 -32.5 -71t-71.5 -32t-62.5 25.5
t-23.5 64.5q0 41 32 72.5t72 31.5q39 0 62.5 -25zM748.5 1606.5q21.5 -22.5 21.5 -58.5t-29.5 -64.5t-63.5 -28.5q-35 0 -56.5 23t-21.5 58q0 36 29 65t65 29q34 -1 55.5 -23.5z" />
    <glyph glyph-name="ydieresis.4" horiz-adv-x="550" 
d="M269 835q-82 235 -100.5 333t-25.5 200l176 5q4 -78 15 -160t48 -182q58 58 111.5 162.5t62.5 182.5l187 5q-10 -73 -57 -200t-234 -351q-34 -160 -60 -300l-194 -44q32 169 71 349zM477 1608q23 -26 23 -64q0 -37 -28.5 -63t-64.5 -26q-37 0 -60.5 26t-23.5 63t29 63.5
t66 26.5q36 0 59 -26zM715.5 1598q21.5 -24 21.5 -57t-24.5 -57t-56.5 -24q-33 0 -55 24t-22 56q0 34 25 58t58 24q32 0 53.5 -24z" />
    <glyph glyph-name="ydieresis.5" horiz-adv-x="510" 
d="M263 875q-75 223 -92 316t-24 190l163 4q4 -74 14 -152.5t44 -173.5q54 55 103.5 154t57.5 173l174 4q-10 -70 -53.5 -190.5t-217.5 -331.5q-32 -153 -56 -285l-180 -41q30 161 67 333zM467.5 1610q22.5 -25 22.5 -61q0 -35 -24.5 -59.5t-60.5 -24.5t-57.5 25t-21.5 60
q0 36 26 60.5t60 24.5q33 0 55.5 -25zM692 1598q18 -21 18 -53t-21.5 -54.5t-54.5 -22.5q-30 0 -50.5 23t-20.5 54q0 32 23.5 54.5t57.5 22.5q30 -3 48 -24z" />
    <glyph glyph-name="ydieresis.6" horiz-adv-x="472" 
d="M253 910q-71 212 -87 300.5t-23 180.5l155 4q4 -71 13.5 -145.5t41.5 -164.5q51 52 98 146t55 164l165 4q-9 -66 -50.5 -180.5t-206.5 -315.5q-31 -145 -53 -270l-171 -39q28 153 63 316zM451.5 1606.5q21.5 -23.5 21.5 -58.5q0 -33 -23.5 -56t-57.5 -23t-54.5 23.5
t-20.5 56.5q0 34 25 57.5t57 23.5q31 0 52.5 -23.5zM665 1595q17 -20 17 -50q0 -31 -20.5 -52.5t-51.5 -21.5q-29 0 -48.5 22t-19.5 52t22.5 51.5t54.5 21.5q29 -3 46 -23z" />
    <glyph glyph-name="dotlessi" unicode="&#x131;" horiz-adv-x="395" 
d="M254 263l-242 -75q97 567 232 1099l231 21q-136 -542 -221 -1045z" />
    <glyph glyph-name="dotlessi.3" horiz-adv-x="357" 
d="M255 437l-208 -61q84 497 202 962l198 13q-118 -474 -192 -914z" />
    <glyph glyph-name="dotlessi.4" horiz-adv-x="337" 
d="M261 539l-194 -44q79 458 188 884l185 1q-110 -435 -179 -841z" />
    <glyph glyph-name="dotlessi.5" horiz-adv-x="325" 
d="M259 591l-180 -40q74 435 176 840l171 -1q-103 -413 -167 -799z" />
    <glyph glyph-name="dotlessi.6" horiz-adv-x="308" 
d="M252 640l-171 -38q71 413 168 798l162 -1q-98 -392 -159 -759z" />
    <glyph glyph-name="i.alt" horiz-adv-x="779" 
d="M498 468l233 67l-33 -194l-662 -201l40 206l186 54q65 395 167 718q-159 -14 -238 -38l30 210q64 21 249 34l407 28l-34 -190l-252 -27l71 -40q-108 -325 -164 -627z" />
    <glyph glyph-name="circumflex" unicode="&#x2c6;" horiz-adv-x="718" 
d="M817 1453l-102 -39l-108 112l-161 -112l-100 32l195 216l182 7z" />
    <glyph glyph-name="circumflex.3" horiz-adv-x="685" 
d="M786 1459l-87 -32l-93 101l-139 -96l-86 31l168 186l157 2z" />
    <glyph glyph-name="circumflex.4" horiz-adv-x="674" 
d="M778 1448l-81 -25l-87 100l-129 -80l-80 33l157 163l146 -7z" />
    <glyph glyph-name="circumflex.5" horiz-adv-x="660" 
d="M761 1452l-75 -22l-80 95l-119 -76l-74 33l145 154l135 -8z" />
    <glyph glyph-name="circumflex.6" horiz-adv-x="643" 
d="M746 1456l-72 -21l-76 90l-113 -72l-70 31l138 146l128 -7z" />
    <glyph glyph-name="caron" unicode="&#x2c7;" horiz-adv-x="718" 
d="M346 1630l102 39l108 -112l161 112l100 -32l-195 -216l-182 -7z" />
    <glyph glyph-name="caron.3" horiz-adv-x="685" 
d="M382 1622l87 32l93 -101l139 95l86 -30l-168 -186l-157 -2z" />
    <glyph glyph-name="caron.4" horiz-adv-x="674" 
d="M402 1627l82 25l86 -100l129 80l80 -33l-157 -163l-145 7z" />
    <glyph glyph-name="caron.5" horiz-adv-x="660" 
d="M413 1625l76 23l80 -95l119 75l74 -32l-145 -154l-135 8z" />
    <glyph glyph-name="caron.6" horiz-adv-x="642" 
d="M415 1620l72 22l76 -90l113 71l71 -31l-138 -146l-128 8z" />
    <glyph glyph-name="uni02C9" unicode="&#x2c9;" horiz-adv-x="687" 
d="M328 1438l30 159l442 9l-23 -143z" />
    <glyph glyph-name="uni02C9.3" horiz-adv-x="654" 
d="M363 1446l26 139l380 -2l-20 -125z" />
    <glyph glyph-name="uni02C9.4" horiz-adv-x="643" 
d="M383 1460l24 128l354 -25l-19 -115z" />
    <glyph glyph-name="uni02C9.5" horiz-adv-x="629" 
d="M395 1466l23 121l327 -25l-18 -110z" />
    <glyph glyph-name="uni02C9.6" horiz-adv-x="611" 
d="M397 1468l22 115l311 -23l-18 -105z" />
    <glyph glyph-name="breve" unicode="&#x2d8;" horiz-adv-x="718" 
d="M346 1610l102 39q24 -92 118 -92q81 0 151 92l100 -32q-115 -199 -276 -199q-141 0 -195 192z" />
    <glyph glyph-name="breve.3" horiz-adv-x="634" 
d="M341 1611l88 32q21 -82 102 -84q69 0 130 78l85 -30q-99 -170 -232 -170q-127 3 -173 174z" />
    <glyph glyph-name="breve.4" horiz-adv-x="601" 
d="M343 1609l82 24q19 -77 97 -84q62 0 118 65l80 -34q-92 -143 -209 -143q-135 10 -168 172z" />
    <glyph glyph-name="breve.5" horiz-adv-x="566" 
d="M339 1607l76 23q17 -74 87 -81q69 0 112 61l74 -32q-86 -136 -195 -136q-124 11 -154 165z" />
    <glyph glyph-name="breve.6" horiz-adv-x="548" 
d="M341 1604l72 22q16 -71 83 -77q66 0 106 58l70 -31q-81 -129 -184 -129q-119 11 -147 157z" />
    <glyph glyph-name="dotaccent" unicode="&#x2d9;" horiz-adv-x="394" 
d="M491.5 1627.5q27.5 -27.5 27.5 -73.5q0 -45 -37.5 -82.5t-82.5 -37.5q-46 0 -73.5 27.5t-27.5 72.5q0 46 37.5 83.5t83.5 37.5q45 0 72.5 -27.5z" />
    <glyph glyph-name="dotaccent.3" horiz-adv-x="394" 
d="M445.5 1609.5q23.5 -24.5 23.5 -64.5q0 -41 -32 -72t-72 -31q-39 0 -62.5 25t-23.5 65q1 40 33 71t71 31t62.5 -24.5z" />
    <glyph glyph-name="dotaccent.4" horiz-adv-x="394" 
d="M428 1592.5q22 -24.5 22 -61.5q0 -38 -30 -62.5t-67 -24.5q-36 0 -58 24.5t-22 61.5q1 37 30.5 62t66.5 25q36 0 58 -24.5z" />
    <glyph glyph-name="dotaccent.5" horiz-adv-x="394" 
d="M411 1588q20 -23 20 -59t-28 -58.5t-62 -22.5q-33 0 -53 23t-20 59q0 35 27.5 58t61.5 23t54 -23z" />
    <glyph glyph-name="dotaccent.6" horiz-adv-x="394" 
d="M392 1585q19 -22 19 -56t-26.5 -55.5t-59.5 -21.5q-31 0 -50 22t-19 56q0 33 26 55t59 22q32 0 51 -22z" />
    <glyph glyph-name="ring" unicode="&#x2da;" horiz-adv-x="394" 
d="M414 1609q-23 0 -42 -19t-19 -42q0 -22 14 -36t37 -14q22 0 41 19t19 41q0 23 -14 37t-36 14zM533 1678q41 -41 41 -110q0 -68 -56 -124t-124 -56q-69 0 -110 41t-41 109q0 69 56 125t125 56q68 0 109 -41z" />
    <glyph glyph-name="ring.3" horiz-adv-x="381" 
d="M426 1599q-20 0 -36.5 -16t-16.5 -37q0 -19 12 -31.5t32 -13.5q19 0 35 16t16 36t-12 32.5t-30 13.5zM528 1657q35 -37 35 -98q0 -60 -48 -107t-107 -47q-59 1 -94.5 38t-35.5 97q0 61 48 108t108 47q59 -1 94 -38z" />
    <glyph glyph-name="ring.4" horiz-adv-x="378" 
d="M435 1589q-19 0 -34 -13t-15 -32q0 -18 11.5 -30.5t29.5 -14.5q19 0 33.5 13.5t14.5 31.5q0 19 -11 31.5t-29 13.5zM530.5 1637.5q32.5 -36.5 32.5 -93.5q0 -56 -43.5 -95t-100.5 -39q-55 5 -88 41.5t-33 91.5q0 57 43.5 96.5t101.5 39.5q55 -5 87.5 -41.5z" />
    <glyph glyph-name="ring.5" horiz-adv-x="373" 
d="M436 1585q-18 0 -31.5 -12.5t-13.5 -30.5q0 -17 10.5 -29t27.5 -13q17 0 30.5 12.5t13.5 29.5q0 18 -10 30t-27 13zM525 1630.5q30 -35.5 30 -88.5q-1 -53 -37.5 -90t-96.5 -37q-51 5 -81 40t-30 88q0 54 36.5 91t97.5 37q51 -5 81 -40.5z" />
    <glyph glyph-name="ring.6" horiz-adv-x="361" 
d="M432 1581q-17 0 -30 -12t-13 -29q0 -16 10 -27.5t26 -12.5q16 0 29 12t13 28q0 17 -9.5 28.5t-25.5 12.5zM516 1624q29 -33 29 -84q-1 -51 -35.5 -86t-92.5 -35q-48 5 -76.5 38t-28.5 84t35 86t93 35q47 -5 76 -38z" />
    <glyph glyph-name="ogonek" unicode="&#x2db;" horiz-adv-x="394" 
d="M274 -82q-69 0 -105 36t-36 90q0 53 72 155l129 40q-61 -138 -61 -161q0 -12 6 -19.5t22 -7.5q19 0 44 16l73 -93q-56 -56 -144 -56z" />
    <glyph glyph-name="ogonek.3" horiz-adv-x="387" 
d="M290 135q-60 2 -90.5 34.5t-30.5 79.5t62 135l111 32q-53 -120 -53 -140q0 -11 5 -17.5t19 -6.5q17 0 38 13l63 -84q-48 -46 -124 -46z" />
    <glyph glyph-name="ogonek.4" horiz-adv-x="387" 
d="M304 263q-58 5 -87 37t-29 77q0 43 58 121l103 24q-49 -109 -49 -128q0 -9 5 -16t18 -8q15 0 35 10l58 -81q-42 -36 -112 -36z" />
    <glyph glyph-name="ogonek.5" horiz-adv-x="384" 
d="M309 330q-56 5 -82.5 35.5t-26.5 72.5t54 116l96 21q-46 -103 -46 -121q0 -9 4.5 -15.5t15.5 -7.5q14 0 33 9l54 -77q-32 -33 -102 -33z" />
    <glyph glyph-name="ogonek.6" horiz-adv-x="373" 
d="M306 392q-54 5 -79 34t-25 69q0 39 51 110l91 20q-43 -98 -43 -115q0 -8 4 -14t15 -8q14 0 31 9l51 -74q-30 -31 -96 -31z" />
    <glyph glyph-name="tilde" unicode="&#x2dc;" horiz-adv-x="718" 
d="M648.5 1658.5q45.5 -43.5 81.5 -43.5q37 0 137 94l100 -32q-165 -216 -266 -216q-71 0 -116.5 44t-80.5 44q-38 0 -138 -95l-100 32q165 216 266 216q71 0 116.5 -43.5z" />
    <glyph glyph-name="tilde.3" horiz-adv-x="653" 
d="M631 1636.5q39 -39.5 70 -40.5q32 0 118 80l86 -30q-143 -185 -230 -185q-61 2 -100 41.5t-69 40.5q-32 0 -119 -81l-86 31q143 184 230 184q61 -1 100 -40.5z" />
    <glyph glyph-name="tilde.4" horiz-adv-x="628" 
d="M628 1620q36 -39 65 -41q30 0 110 67l80 -34q-123 -158 -214 -158q-56 5 -92.5 44.5t-64.5 42.5q-30 0 -111 -68l-80 33q123 158 214 158q57 -5 93 -44z" />
    <glyph glyph-name="tilde.5" horiz-adv-x="601" 
d="M617.5 1618q33.5 -37 59.5 -40q28 0 102 63l74 -32q-113 -149 -198 -149q-52 5 -85.5 43t-59.5 40q-28 0 -103 -64l-73 33q112 149 197 149q53 -6 86.5 -43z" />
    <glyph glyph-name="tilde.6" horiz-adv-x="576" 
d="M606 1611.5q32 -35.5 57 -37.5q26 0 97 60l70 -31q-107 -141 -188 -141q-50 5 -81.5 40.5t-56.5 38.5q-27 0 -97 -61l-71 31q107 141 188 141q50 -5 82 -40.5z" />
    <glyph glyph-name="hungarumlaut" unicode="&#x2dd;" horiz-adv-x="1024" 
d="M496 1699l170 -112l-230 -168l-131 -3zM789.316 1689.14l153.004 -100.803l-207.005 -151.204l-117.903 -2.7002z" />
    <glyph glyph-name="hungarumlaut.3" horiz-adv-x="966" 
d="M484 1701l146 -102l-198 -143h-113zM746 1686l132 -92l-179 -129l-101 1z" />
    <glyph glyph-name="hungarumlaut.4" horiz-adv-x="944" 
d="M492 1710l136 -104l-185 -121l-104 7zM736 1680l122 -94l-165 -109l-95 6z" />
    <glyph glyph-name="hungarumlaut.5" horiz-adv-x="921" 
d="M494 1705l125 -100l-171 -114l-97 7zM720 1675l113 -90l-154 -103l-88 7z" />
    <glyph glyph-name="hungarumlaut.6" horiz-adv-x="896" 
d="M487 1699l119 -95l-162 -109l-92 7zM702 1670l107 -85l-146 -98l-83 6z" />
    <glyph glyph-name="endash" unicode="&#x2013;" horiz-adv-x="963" 
d="M103 550l48 212l834 176l-32 -171z" />
    <glyph glyph-name="emdash" unicode="&#x2014;" horiz-adv-x="1163" 
d="M103 550l48 212l1034 214l-36 -161z" />
    <glyph glyph-name="quoteleft" unicode="&#x2018;" horiz-adv-x="362" 
d="M209 998q0 238 200 386l91 9q-79 -126 -79 -222q0 -74 28 -149z" />
    <glyph glyph-name="quoteleft.3" horiz-adv-x="344" 
d="M234 1089q1 209 173 335l78 6q-68 -109 -68 -194q0 -65 24 -131z" />
    <glyph glyph-name="quoteleft.4" horiz-adv-x="333" 
d="M244 1159q1 195 161 302l73 1q-64 -98 -64 -177q0 -60 22 -124z" />
    <glyph glyph-name="quoteleft.5" horiz-adv-x="322" 
d="M246 1182q0 186 149 287h67q-59 -93 -59 -167q0 -58 20 -119z" />
    <glyph glyph-name="quoteleft.6" horiz-adv-x="311" 
d="M248 1202q0 176 141 272h64q-56 -88 -56 -158q0 -55 19 -113z" />
    <glyph glyph-name="quoteright" unicode="&#x2019;" horiz-adv-x="360" 
d="M450 1373q0 -238 -200 -386l-91 -9q79 126 79 222q0 74 -28 149z" />
    <glyph glyph-name="quoteright.3" horiz-adv-x="342" 
d="M446 1412q-1 -209 -173 -335l-79 -6q69 109 69 194q0 65 -24 131z" />
    <glyph glyph-name="quoteright.4" horiz-adv-x="331" 
d="M438 1445q0 -195 -161 -302l-73 -1q64 98 64 177q0 60 -22 124z" />
    <glyph glyph-name="quoteright.5" horiz-adv-x="320" 
d="M423 1453q-1 -185 -149 -286h-68q59 92 60 167q0 58 -20 118z" />
    <glyph glyph-name="quoteright.6" horiz-adv-x="309" 
d="M414 1459q0 -176 -141 -272h-65q56 88 57 159q0 55 -19 112z" />
    <glyph glyph-name="quotesinglbase" unicode="&#x201a;" horiz-adv-x="360" 
d="M260 393q0 -238 -200 -386l-91 -9q79 126 79 222q0 74 -28 149z" />
    <glyph glyph-name="quotesinglbase.3" horiz-adv-x="373" 
d="M285 546q-1 -209 -173 -335l-79 -6q69 109 69 194q0 65 -24 131z" />
    <glyph glyph-name="quotesinglbase.4" horiz-adv-x="361" 
d="M284 641q0 -195 -161 -302l-73 -1q64 98 64 177q0 60 -22 124z" />
    <glyph glyph-name="quotesinglbase.5" horiz-adv-x="360" 
d="M280 690q-1 -185 -149 -286h-68q59 92 60 167q0 58 -20 118z" />
    <glyph glyph-name="quotesinglbase.6" horiz-adv-x="350" 
d="M255 734q-1 -175 -142 -271h-65q57 87 57 158q0 55 -19 112z" />
    <glyph glyph-name="quotedblleft" unicode="&#x201c;" horiz-adv-x="627" 
d="M209 998q0 238 200 386l91 9q-79 -126 -79 -222q0 -74 28 -149zM474.553 1029.11q0 226.103 190.002 366.704l86.4512 8.55078q-75.0508 -119.701 -75.0508 -210.902q0 -70.3018 26.6006 -141.553z" />
    <glyph glyph-name="quotedblleft.3" horiz-adv-x="572" 
d="M234 1089q1 209 173 335l78 6q-68 -109 -68 -194q0 -65 24 -131zM461.303 1112.56q0.950195 198.553 164.353 318.254l74.1006 5.7002q-64.6006 -103.552 -64.6006 -184.303q0 -61.75 22.7998 -124.451z" />
    <glyph glyph-name="quotedblleft.4" horiz-adv-x="547" 
d="M244 1159q1 195 161 302l73 1q-64 -98 -64 -177q0 -60 22 -124zM452.803 1163.06q0.950195 185.252 152.952 286.903l69.3506 0.950195q-60.8008 -93.1016 -60.8008 -168.152q0 -57.001 20.9004 -117.802z" />
    <glyph glyph-name="quotedblleft.5" horiz-adv-x="519" 
d="M246 1182q0 186 149 287h67q-59 -93 -59 -167q0 -58 20 -119zM439.703 1185.91q0 176.703 141.552 272.654h63.6504q-56.0508 -88.3516 -56.0508 -158.652q0 -55.1006 19.001 -113.052z" />
    <glyph glyph-name="quotedblleft.6" horiz-adv-x="499" 
d="M217 1202q0 176 141 272h64q-56 -88 -56 -158q0 -55 19 -113zM410 1205q0 168 134 259h61q-54 -84 -54 -150q0 -53 19 -108z" />
    <glyph glyph-name="quotedblright" unicode="&#x201d;" horiz-adv-x="560" 
d="M450 1373q0 -238 -200 -386l-91 -9q79 126 79 222q0 74 -28 149zM716.506 1397.37q0 -226.104 -190.003 -366.705l-86.4512 -8.5498q75.0508 119.701 75.0508 210.902q0 70.3008 -26.5996 141.552z" />
    <glyph glyph-name="quotedblright.3" horiz-adv-x="509" 
d="M446 1412q-1 -209 -173 -335l-79 -6q69 109 69 194q0 65 -24 131zM673.705 1430.42q-0.949219 -198.552 -164.352 -318.254l-75.0508 -5.7002q65.5508 103.552 65.5508 184.303q0 61.751 -22.8008 124.451z" />
    <glyph glyph-name="quotedblright.4" horiz-adv-x="486" 
d="M438 1445q0 -195 -161 -302l-73 -1q64 98 64 177q0 60 -22 124zM650.105 1445.77q0 -185.252 -152.952 -286.903l-69.3506 -0.950195q60.8008 93.1016 60.8008 168.152q0 57 -20.9004 117.801z" />
    <glyph glyph-name="quotedblright.5" horiz-adv-x="448" 
d="M423 1453q-1 -185 -149 -286h-68q59 92 60 167q0 58 -20 118zM610.855 1451.37q-0.950195 -175.752 -141.552 -271.703h-64.6016q56.0508 87.4014 57.001 158.652q0 55.1006 -19 112.102z" />
    <glyph glyph-name="quotedblright.6" horiz-adv-x="437" 
d="M393 1459q0 -176 -141 -272h-65q56 88 57 159q0 55 -19 112zM579 1458q-1 -167 -134 -259h-62q54 83 55 151q0 52 -18 107z" />
    <glyph glyph-name="quotedblbase" unicode="&#x201e;" horiz-adv-x="560" 
d="M260 395q0 -238 -200 -386l-91 -9q79 126 79 222q0 74 -28 149zM526.506 419.367q0 -226.104 -190.003 -366.705l-86.4512 -8.5498q75.0508 119.701 75.0508 210.902q0 70.3008 -26.5996 141.552z" />
    <glyph glyph-name="quotedblbase.3" horiz-adv-x="584" 
d="M264 552q-1 -210 -173 -336l-78 -6q68 110 68 194q0 65 -24 132zM497 567q0 -199 -164 -318l-75 -6q65 104 65 184q1 62 -22 125z" />
    <glyph glyph-name="quotedblbase.4" horiz-adv-x="567" 
d="M266 643q0 -195 -160 -302l-73 -1q63 98 63 177q1 61 -22 124zM483 644q0 -186 -152 -287l-70 -1q61 93 61 168q0 57 -21 118z" />
    <glyph glyph-name="quotedblbase.5" horiz-adv-x="549" 
d="M262 690q-1 -185 -150 -286h-67q59 92 59 167q0 58 -20 119h178zM462 689q0 -176 -142 -272h-64q56 88 57 159q0 55 -19 113h168z" />
    <glyph glyph-name="quotedblbase.6" horiz-adv-x="528" 
d="M253 734q-1 -175 -143 -271h-63q56 87 56 158q0 55 -19 113h169zM443 733q0 -167 -135 -258h-61q53 84 54 151q0 52 -18 107h160z" />
    <glyph glyph-name="dagger" unicode="&#x2020;" 
d="M679 1322q-76 -322 -132 -631l-201 -497l-40 431q62 337 138 661zM837 1138l-38 -201l-644 -127l48 212z" />
    <glyph glyph-name="daggerdbl" unicode="&#x2021;" 
d="M679 1322q-76 -322 -132 -631l-201 -497l-40 431q62 337 138 661zM857 1238l-38 -201l-644 -127l48 212zM797 928l-38 -201l-644 -127l48 212z" />
    <glyph glyph-name="bullet" unicode="&#x2022;" horiz-adv-x="563" 
d="M529 908q16 -78 -16.5 -173.5t-123 -151t-173.5 -43t-112.5 91.5t6 186.5t131 166.5t175 47.5t142.5 -118.5z" />
    <glyph glyph-name="ellipsis" unicode="&#x2026;" horiz-adv-x="1118" 
d="M245.5 337.5q27.5 -27.5 27.5 -73.5q0 -45 -37.5 -82.5t-82.5 -37.5q-46 0 -73.5 27.5t-27.5 72.5q0 46 37.5 83.5t83.5 37.5q45 0 72.5 -27.5zM628.5 337.5q27.5 -27.5 27.5 -73.5q0 -45 -37.5 -82.5t-82.5 -37.5q-46 0 -73.5 27.5t-27.5 72.5q0 46 37.5 83.5t83.5 37.5
q45 0 72.5 -27.5zM1011.5 337.5q27.5 -27.5 27.5 -73.5q0 -45 -37.5 -82.5t-82.5 -37.5q-46 0 -73.5 27.5t-27.5 72.5q0 46 37.5 83.5t83.5 37.5q45 0 72.5 -27.5z" />
    <glyph glyph-name="ellipsis.3" horiz-adv-x="1013" 
d="M222.5 503q23.5 -25 23.5 -65t-32.5 -72t-70.5 -31q-40 1 -63.5 25.5t-23.5 64.5q0 41 32.5 73t71.5 31t62.5 -26zM534 585.5q22 -24.5 22 -62.5q0 -36 -30.5 -64.5t-66.5 -24.5q-36 3 -58 27.5t-22 61.5q0 38 30 66t67 24q36 -3 58 -27.5zM789 637q20 -23 20 -59
t-28 -62t-62 -23q-33 4 -53.5 27t-19.5 59q0 35 27.5 61.5t61.5 23.5q34 -4 54 -27z" />
    <glyph glyph-name="ellipsis.4" horiz-adv-x="971" 
d="M231 603.5q22 -24.5 22 -62.5q0 -37 -30 -65t-66 -25q-37 4 -59 28.5t-22 61.5t30.5 65t66.5 25t58 -27.5zM514.5 652.5q20.5 -23.5 20.5 -59.5q-1 -35 -28.5 -61.5t-61.5 -22.5q-34 3 -54 26.5t-20 58.5q0 36 28 62.5t62 23.5q33 -4 53.5 -27.5zM794.5 662.5
q20.5 -23.5 20.5 -59.5q-1 -35 -28.5 -61.5t-61.5 -22.5q-34 3 -54 26.5t-20 58.5q0 36 28 62.5t62 23.5q33 -4 53.5 -27.5z" />
    <glyph glyph-name="ellipsis.5" horiz-adv-x="926" 
d="M231.5 652.5q20.5 -23.5 20.5 -59.5q-1 -35 -28.5 -61.5t-61.5 -22.5q-34 3 -54 26.5t-20 58.5q0 36 28 62.5t62 23.5q33 -4 53.5 -27.5zM517.5 652.5q20.5 -23.5 20.5 -59.5q-1 -35 -28.5 -61.5t-61.5 -22.5q-34 3 -54 26.5t-20 58.5q0 36 28 62.5t62 23.5
q33 -4 53.5 -27.5zM797.5 652.5q20.5 -23.5 20.5 -59.5q-1 -35 -28.5 -61.5t-61.5 -22.5q-34 3 -54 26.5t-20 58.5q0 36 28 62.5t62 23.5q33 -4 53.5 -27.5z" />
    <glyph glyph-name="ellipsis.6" horiz-adv-x="890" 
d="M226.5 698.5q19.5 -22.5 19.5 -56.5q-1 -33 -27 -58t-58 -22q-33 3 -52 25.5t-19 55.5q0 34 26.5 59.5t59.5 22.5q31 -4 50.5 -26.5zM498.5 698.5q19.5 -22.5 19.5 -56.5q-1 -33 -27 -58t-59 -22q-32 3 -51 25.5t-19 55.5q0 34 26.5 59.5t58.5 22.5q32 -4 51.5 -26.5z
M764.5 698.5q19.5 -22.5 19.5 -56.5q-1 -33 -27 -58t-59 -22q-32 3 -51 25.5t-19 55.5q0 34 26.5 59.5t58.5 22.5q32 -4 51.5 -26.5z" />
    <glyph glyph-name="guilsinglleft" unicode="&#x2039;" horiz-adv-x="555" 
d="M595 1036l-37 -51l-197 -268l108 -155l39 -56l-132 -186l-50 75l-36 54l-35 54l-143 214l233 326l116 163l11 16l28 -43l36 -54z" />
    <glyph glyph-name="guilsinglleft.3" horiz-adv-x="471" 
d="M534 1110l-32 -44l-170 -232l93 -138l33 -51l-114 -160l-43 67l-31 48l-30 48l-122 192l201 282l100 141l10 13l24 -38l30 -48z" />
    <glyph glyph-name="guilsinglleft.4" horiz-adv-x="438" 
d="M510 1150l-30 -39l-158 -206l86 -135l31 -48l-106 -143l-39 65l-29 47l-28 46l-114 186l187 251l93 125l9 12l22 -37l29 -47z" />
    <glyph glyph-name="guilsinglleft.5" horiz-adv-x="403" 
d="M501 1171l-28 -37l-147 -195l80 -129l28 -46l-98 -135l-37 62l-26 44l-26 45l-105 178l174 237l86 118l9 12l20 -36l27 -44z" />
    <glyph glyph-name="guilsinglleft.6" horiz-adv-x="385" 
d="M486 1191l-27 -35l-140 -185l76 -123l27 -43l-93 -129l-35 59l-25 42l-25 43l-100 169l166 225l81 112l9 12l19 -35l26 -41z" />
    <glyph glyph-name="guilsinglright" unicode="&#x203a;" horiz-adv-x="555" 
d="M92 536l37 51l197 268l-108 155l-39 56l132 186l50 -75l36 -54l35 -54l143 -214l-233 -326l-116 -163l-11 -16l-28 43l-36 54z" />
    <glyph glyph-name="guilsinglright.3" horiz-adv-x="471" 
d="M120 681l32 44l170 232l-92 138l-34 50l114 161l43 -67l31 -48l30 -48l122 -192l-201 -282l-100 -141l-9 -13l-24 38l-31 48z" />
    <glyph glyph-name="guilsinglright.4" horiz-adv-x="438" 
d="M137 776l29 39l158 206l-86 135l-31 48l106 143l40 -65l29 -47l28 -46l114 -186l-187 -251l-94 -125l-8 -12l-23 37l-28 47z" />
    <glyph glyph-name="guilsinglright.5" horiz-adv-x="403" 
d="M146 818l27 37l147 195l-79 128l-29 47l99 135l36 -62l27 -45l25 -44l105 -178l-173 -237l-87 -119l-8 -11l-21 35l-26 45z" />
    <glyph glyph-name="guilsinglright.6" horiz-adv-x="385" 
d="M148 856l26 35l140 185l-76 122l-27 45l94 128l34 -59l26 -43l24 -42l99 -169l-164 -225l-83 -113l-7 -10l-20 33l-25 43z" />
    <glyph glyph-name="fraction" unicode="&#x2044;" horiz-adv-x="894" 
d="M837 1329l157 -97q-255 -323 -743 -1029l-177 117q501 693 763 1009z" />
    <glyph glyph-name="fraction" unicode="&#x2215;" horiz-adv-x="894" 
d="M837 1329l157 -97q-255 -323 -743 -1029l-177 117q501 693 763 1009z" />
    <glyph glyph-name="lira" unicode="&#x20a4;" horiz-adv-x="803" 
d="M50 124q97 521 166 785.5t242 356.5t279 46.5t131 -208.5l-177 -40q-36 123 -128.5 36.5t-133.5 -239.5t-60 -258.5t-32 -170.5l475 138l-38 -220l-482 -150v-1zM742 1058l-38 -181l-644 -147l48 212zM692 788l-38 -181l-654 -187l48 212z" />
    <glyph glyph-name="Euro" unicode="&#x20ac;" horiz-adv-x="935" 
d="M811 357q-159 -148 -340 -122.5t-266 221.5t-18 451t245.5 358t329.5 67.5t296 -228.5l-210 -193q-57 198 -145 227t-183.5 -59.5t-131 -220t-6 -261t117.5 -153.5t157.5 42t101.5 145l150 -159q-41 -62 -98 -115zM362 873l393 29l-54 -198l-605 -59q-13 -2 -27 -5
l-59 179q153 42 352 54z" />
    <glyph glyph-name="uni2116" unicode="&#x2116;" horiz-adv-x="1539" 
d="M339 495q-68 -313 -135 -674l-293 -106q123 663 292 1325l-58 234l236 124l219 -845q82 422 180 843l274 40q-169 -763 -276 -1411l-295 -108zM1444 1115q-22 46 -58.5 53t-86 -32.5t-69 -114t-4.5 -125t52.5 -57.5t84 29.5t64.5 103t6 140.5zM1606 1154l-22 -5
q38 -86 14 -204t-134.5 -198.5t-228.5 -60.5t-163.5 120t-3.5 258t159 217t211 39.5t201 -140.5zM980 377q22 88 48 193q263 84 519 148l-42 -183q-212 -54 -525 -158z" />
    <glyph glyph-name="trademark" unicode="&#x2122;" horiz-adv-x="860" 
d="M389.507 1283.23l31.9512 -12.4014l-11.7002 -44.002q-46.8018 -174.411 -100.803 -426.026l-131.854 -42.4023q56.7012 266.816 121.503 516.432q-44.1006 -6.00098 -112.053 -21.2021l-33.751 113.207q83.252 23.6016 153.454 30.002t250.207 17.2012
l-22.0508 -119.607q-88.6523 -6.40039 -144.904 -11.2002zM606.004 1035.61q-26.1006 -109.607 -52.2012 -235.215l-131.854 -42.4023q51.3008 247.215 121.053 493.63l-27.9004 96.0059l96.3027 83.6055l94.502 -313.22l191.256 324.42l123.303 16.001
q-79.2021 -316.419 -121.053 -547.633l-132.304 -42.8027q19.3506 104.406 43.6514 214.413l-147.154 -243.615z" />
    <glyph glyph-name="trademark.3" horiz-adv-x="727" 
d="M360 1302l27 -12l-10 -38q-41 -152 -88 -373l-113 -34q49 233 105 452q-37 -5 -96 -17l-29 101q72 19 132.5 23t215.5 10l-20 -105q-76 -4 -124 -7zM549 1079q-22 -95 -45 -205l-114 -35q45 217 106 432l-24 85l83 71l80 -277l166 281l106 12q-69 -277 -106 -480
l-113 -35q16 92 38 188l-128 -211z" />
    <glyph glyph-name="trademark.4" horiz-adv-x="678" 
d="M349 1322l26 -12l-10 -36q-38 -139 -81 -342l-106 -25q46 215 98 415q-35 -2 -89 -10l-27 96q66 13 122.5 13t200.5 -4l-18 -96q-71 1 -116 1zM526 1103q-22 -88 -43 -189l-105 -25q41 199 98 396l-23 81l78 61l75 -264l153 253l99 4q-64 -254 -98 -440l-106 -26
q16 84 35 173l-118 -189z" />
    <glyph glyph-name="trademark.5" horiz-adv-x="627" 
d="M335 1333l24 -12l-9 -34q-35 -132 -76 -324l-98 -24q43 204 92 394q-32 -1 -83 -8l-24 91q61 12 113 11.5t186 -4.5l-17 -92q-66 2 -108 2zM498 1123q-19 -83 -39 -179l-98 -24q39 190 91 377l-20 77l72 58l68 -252l143 239l92 4q-60 -241 -92 -419l-98 -23q15 80 33 164
l-110 -179z" />
    <glyph glyph-name="trademark.6" horiz-adv-x="585" 
d="M327 1345l23 -11l-9 -33q-33 -125 -72 -307l-93 -23q41 194 87 374q-30 -1 -78 -7l-23 86q58 11 107.5 10.5t176.5 -3.5l-16 -88q-63 2 -103 2zM482 1146q-18 -79 -37 -170l-93 -23q37 180 86 358l-19 73l69 55l64 -239l136 227l87 4q-57 -229 -87 -398l-93 -22
q14 76 31 156l-104 -171z" />
    <glyph glyph-name="minus" unicode="&#x2212;" 
d="M775 878l-38 -201l-644 -127l48 212z" />
    <glyph glyph-name="approxequal" unicode="&#x2248;" horiz-adv-x="718" 
d="M458.5 954.5q45.5 -43.5 81.5 -43.5q37 0 137 94l100 -32q-165 -216 -266 -216q-71 0 -116.5 44t-80.5 44q-38 0 -138 -95l-100 32q165 216 266 216q71 0 116.5 -43.5zM408.5 659.5q45.5 -43.5 81.5 -43.5q37 0 137 94l100 -32q-165 -216 -266 -216q-71 0 -116.5 44
t-80.5 44q-38 0 -138 -95l-100 32q165 216 266 216q71 0 116.5 -43.5z" />
    <glyph glyph-name="lessequal" unicode="&#x2264;" 
d="M171 912l674 371l-38 -181l-393 -231l351 -58l-38 -181l-604 68zM723 608l-38 -201l-664 -207l48 212z" />
    <glyph glyph-name="greaterequal" unicode="&#x2265;" 
d="M579 957l-376 55l48 212l589 -119l-38 -181l-699 -422l48 212zM743 608l-38 -201l-664 -207l48 212z" />
    <glyph glyph-name="ecaron" unicode="&#x11b;" horiz-adv-x="728" 
d="M277 413l461 137l-41 -205l-704 -221q90 485 223 969q-7 -1 -14 -3l-59 179q153 42 352 54l393 29l-54 -198l-398 -39q-31 -124 -60 -246l284 48l-38 -201l-294 -59q-27 -123 -51 -244zM361 1630l102 39l108 -112l161 112l100 -32l-195 -216l-182 -7z" />
    <glyph glyph-name="ecaron.3" horiz-adv-x="626" 
d="M452 1364l338 17l-46 -173l-343 -26q-27 -108 -52 -215l244 36l-33 -176l-253 -46q-24 -108 -45 -213l398 110l-36 -179l-606 -180q79 425 194 848l-12 -2l-50 159q131 33 302 40zM392 1622l87 32l93 -101l139 95l86 -30l-168 -186l-157 -2z" />
    <glyph glyph-name="ecaron.4" horiz-adv-x="589" 
d="M757 1385l-44 -159l-319 -3q-25 -100 -48 -198l227 19l-31 -162l-235 -27q-21 -99 -41 -196l369 79l-33 -165l-564 -131q74 391 181 778q-6 0 -12 -1l-47 151q102 20 228 20q27 0 369 -5zM422 1627l82 25l86 -100l129 80l80 -33l-157 -163l-145 7z" />
    <glyph glyph-name="ecaron.5" horiz-adv-x="550" 
d="M717 1392l-41 -150l-294 -1q-24 -95 -46 -188l211 17l-29 -154l-218 -25q-21 -94 -39 -186l342 73l-31 -157l-522 -120q69 371 169 739q-6 0 -11 -1l-43 144q92 17 206 17q27 0 346 -8zM433 1625l76 23l80 -95l119 75l74 -32l-145 -154l-135 8z" />
    <glyph glyph-name="ecaron.6" horiz-adv-x="517" 
d="M686 1401l-39 -142l-279 -1q-23 -91 -44 -179l201 16l-28 -146l-207 -24q-20 -89 -37 -176l325 69l-30 -149l-496 -114q66 352 161 702q-6 0 -10 -1l-41 137q87 16 195 16q26 0 329 -8zM435 1620l72 22l76 -90l113 71l71 -31l-138 -146l-128 8z" />
    <glyph glyph-name="ccaron" unicode="&#x10d;" horiz-adv-x="815" 
d="M701 357q-159 -148 -345 -122.5t-266 221.5t-13 451t245.5 358t329.5 67.5t296 -228.5l-210 -193q-57 198 -145 227t-183.5 -59.5t-131 -220t-6 -261t117.5 -153.5t157.5 42t101.5 145l150 -159q-41 -62 -98 -115zM373 1630l102 39l108 -112l161 112l100 -32l-195 -216
l-182 -7z" />
    <glyph glyph-name="ccaron.3" horiz-adv-x="706" 
d="M629 510q-137 -127 -297.5 -101t-228 200.5t-9.5 397.5t212 310t283.5 52.5t253.5 -207.5l-181 -166q-48 176 -123.5 203.5t-158 -48.5t-113.5 -191t-6 -229.5t101 -137.5t136 33.5t87 125.5l129 -143q-35 -54 -85 -99zM402 1622l87 32l93 -101l139 95l86 -30l-168 -186
l-157 -2z" />
    <glyph glyph-name="ccaron.4" horiz-adv-x="657" 
d="M608 583q-127 -109 -277 -75.5t-212.5 200.5t-8.5 371.5t197 276t264 31.5t236 -209l-168 -143q-45 167 -115.5 197t-147 -36t-105.5 -171t-5.5 -213.5t94 -134.5t126 23t81.5 112l120 -141q-33 -48 -79 -88zM422 1627l82 25l86 -100l129 80l80 -33l-157 -163l-145 7z
" />
    <glyph glyph-name="ccaron.5" horiz-adv-x="605" 
d="M569 631q-118 -103 -257 -70t-196 192t-6.5 353t183 261.5t244 28.5t218.5 -200l-156 -135q-42 158 -107 187.5t-136 -32.5t-97.5 -162t-5.5 -203.5t86 -128.5t117 21.5t76 105.5l110 -135q-30 -46 -73 -83zM423 1625l76 23l80 -95l119 75l74 -32l-145 -154l-135 8z" />
    <glyph glyph-name="ccaron.6" horiz-adv-x="567" 
d="M545 678q-112 -98 -244 -66.5t-186 182.5t-6 335.5t173.5 248.5t231.5 27t208 -190l-148 -128q-40 150 -102 178t-129.5 -31t-92.5 -154t-5 -193.5t81.5 -122t111 20.5t72.5 100l105 -128q-29 -44 -70 -79zM425 1620l72 22l76 -90l113 71l71 -31l-138 -146l-128 8z" />
    <glyph glyph-name="Ecaron" unicode="&#x11a;" horiz-adv-x="857" 
d="M562 1418l473 41l-73 -281l-479 -56q-42 -176 -81 -349l342 68l-53 -285l-355 -85q-38 -174 -72 -346l560 195l-58 -291l-853 -314q127 689 305 1376l-16 -4l-64 254q185 60 424 77zM415 1730l102 39l108 -112l161 112l100 -32l-195 -216l-182 -7z" />
    <glyph glyph-name="Ccaron" unicode="&#x10c;" horiz-adv-x="983" 
d="M795 46q-197 -210 -413 -174t-310.5 314.5t-4 640.5t308.5 508t398 96t347 -324l-260 -274q-61 281 -165.5 322t-222.5 -84.5t-165.5 -312.5t-17 -371t135 -218t190.5 60t127 206l174 -226q-52 -88 -122 -163zM538 1730l102 39l108 -112l161 112l100 -32l-195 -216
l-182 -7z" />
    <glyph glyph-name="Dcaron" unicode="&#x10e;" horiz-adv-x="943" 
d="M893.5 1256.5q109.5 -128.5 104.5 -308.5q-6 -212 -97.5 -457.5t-221 -397.5t-309 -247.5t-467.5 -130.5q127 687 356 1373q-27 -7 -56 -16l-75 269q145 47 250.5 58t136.5 9q269 -23 378.5 -151.5zM242 70q270 150 379.5 417t113.5 414q0 133 -60.5 177t-241.5 43
l105 -54q-196 -489 -296 -997zM450 1730l102 39l108 -112l161 112l100 -32l-195 -216l-182 -7z" />
    <glyph glyph-name="Nacute" unicode="&#x143;" horiz-adv-x="940" 
d="M339 495q-68 -313 -135 -674l-293 -106q123 663 292 1325l-58 234l236 124l219 -845q82 422 180 843l274 40q-169 -763 -276 -1411l-295 -108zM744 1799l170 -112l-230 -168l-131 -3z" />
    <glyph glyph-name="Rcaron" unicode="&#x158;" horiz-adv-x="898" 
d="M387 606q175 34 249 101q81 72 87 266q2 88 -66.5 118.5t-154.5 30.5q-20 0 -49 -3l89 -45q-83 -216 -155 -468zM731 422q32 -58 46 -91q26 -61 38 -270l-248 -146q0 158 -17 256.5t-47 147.5q-4 6 -11 12q-82 -22 -188 -43q-52 -222 -98 -467l-293 -106
q127 686 355 1370q-26 -6 -55 -13l-75 269q185 69 374 69q144 0 241.5 -40t160.5 -133.5t58 -261.5q-5 -184 -66 -329.5t-167 -218.5q-4 -3 -8 -5zM480 1730l102 39l108 -112l161 112l100 -32l-195 -216l-182 -7z" />
    <glyph glyph-name="Sacute" unicode="&#x15a;" horiz-adv-x="799" 
d="M919 1222q-152 -17 -352.5 -73.5t-200.5 -190.5q0 -120 182 -240t182 -370q0 -295 -218.5 -433.5t-505.5 -191.5l-131 263q122 30 357 122.5t235 231.5q0 123 -189.5 237t-189.5 352q0 261 171 379t521 193zM734 1799l170 -112l-230 -168l-131 -3z" />
    <glyph glyph-name="Racute" unicode="&#x154;" horiz-adv-x="898" 
d="M387 606q175 34 249 101q81 72 87 266q2 88 -66.5 118.5t-154.5 30.5q-20 0 -49 -3l89 -45q-83 -216 -155 -468zM731 422q32 -58 46 -91q26 -61 38 -270l-248 -146q0 158 -17 256.5t-47 147.5q-4 6 -11 12q-82 -22 -188 -43q-52 -222 -98 -467l-293 -106
q127 686 355 1370q-26 -6 -55 -13l-75 269q185 69 374 69q144 0 241.5 -40t160.5 -133.5t58 -261.5q-5 -184 -66 -329.5t-167 -218.5q-4 -3 -8 -5zM739 1799l170 -112l-230 -168l-131 -3z" />
    <glyph glyph-name="Lacute" unicode="&#x139;" horiz-adv-x="660" 
d="M270 153l454 153l-55 -313l-463 -170v-2l-293 -106q137 740 348 1620l274 36q-158 -681 -265 -1218zM577 1799l170 -112l-230 -168l-131 -3z" />
    <glyph glyph-name="Ncaron" unicode="&#x147;" horiz-adv-x="940" 
d="M339 495q-68 -313 -135 -674l-293 -106q123 663 292 1325l-58 234l236 124l219 -845q82 422 180 843l274 40q-169 -763 -276 -1411l-295 -108zM435 1730l102 39l108 -112l161 112l100 -32l-195 -216l-182 -7z" />
    <glyph glyph-name="Cacute" unicode="&#x106;" horiz-adv-x="983" 
d="M795 46q-197 -210 -413 -174t-310.5 314.5t-4 640.5t308.5 508t398 96t347 -324l-260 -274q-61 281 -165.5 322t-222.5 -84.5t-165.5 -312.5t-17 -371t135 -218t190.5 60t127 206l174 -226q-52 -88 -122 -163zM808 1799l170 -112l-230 -168l-131 -3z" />
    <glyph glyph-name="Scaron" unicode="&#x160;" horiz-adv-x="799" 
d="M919 1222q-152 -17 -352.5 -73.5t-200.5 -190.5q0 -120 182 -240t182 -370q0 -295 -218.5 -433.5t-505.5 -191.5l-131 263q122 30 357 122.5t235 231.5q0 123 -189.5 237t-189.5 352q0 261 171 379t521 193zM475 1730l102 39l108 -112l161 112l100 -32l-195 -216l-182 -7
z" />
    <glyph glyph-name="Tcaron" unicode="&#x164;" horiz-adv-x="778" 
d="M590 1118l71 -31l-26 -110q-104 -436 -224 -1065l-293 -106q126 667 270 1291q-98 -15 -249 -53l-75 283q185 59 341 75t556 43l-49 -299q-197 -16 -322 -28zM429 1730l102 39l108 -112l161 112l100 -32l-195 -216l-182 -7z" />
    <glyph glyph-name="Zacute" unicode="&#x179;" horiz-adv-x="871" 
d="M418 203l424 157l-58 -327l-818 -292l63 318l622 1061q-156 -14 -211 -21q-102 -14 -264 -55l-75 283q185 59 341 75t604 43l-73 -299q-86 -7 -160 -13l110 -36zM702 1799l170 -112l-230 -168l-131 -3z" />
    <glyph glyph-name="Zcaron" unicode="&#x17d;" horiz-adv-x="871" 
d="M418 203l424 157l-58 -327l-818 -292l63 318l622 1061q-156 -14 -211 -21q-102 -14 -264 -55l-75 283q185 59 341 75t604 43l-73 -299q-86 -7 -160 -13l110 -36zM443 1730l102 39l108 -112l161 112l100 -32l-195 -216l-182 -7z" />
    <glyph glyph-name="cacute" unicode="&#x107;" horiz-adv-x="815" 
d="M701 357q-159 -148 -345 -122.5t-266 221.5t-13 451t245.5 358t329.5 67.5t296 -228.5l-210 -193q-57 198 -145 227t-183.5 -59.5t-131 -220t-6 -261t117.5 -153.5t157.5 42t101.5 145l150 -159q-41 -62 -98 -115zM682 1699l170 -112l-230 -168l-131 -3z" />
    <glyph glyph-name="cacute.3" horiz-adv-x="706" 
d="M629 510q-137 -127 -297.5 -101t-228 200.5t-9.5 397.5t212 310t283.5 52.5t253.5 -207.5l-181 -166q-48 176 -123.5 203.5t-158 -48.5t-113.5 -191t-6 -229.5t101 -137.5t136 33.5t87 125.5l129 -143q-35 -54 -85 -99zM695 1681l146 -102l-198 -143h-112z" />
    <glyph glyph-name="cacute.4" horiz-adv-x="657" 
d="M608 583q-127 -109 -277 -75.5t-212.5 200.5t-8.5 371.5t197 276t264 31.5t236 -209l-168 -143q-45 167 -115.5 197t-147 -36t-105.5 -171t-5.5 -213.5t94 -134.5t126 23t81.5 112l120 -141q-33 -48 -79 -88zM655 1670l136 -104l-185 -121l-105 7z" />
    <glyph glyph-name="cacute.5" horiz-adv-x="605" 
d="M569 631q-118 -103 -257 -70t-196 192t-6.5 353t183 261.5t244 28.5t218.5 -200l-156 -135q-42 158 -107 187.5t-136 -32.5t-97.5 -162t-5.5 -203.5t86 -128.5t117 21.5t76 105.5l110 -135q-30 -46 -73 -83zM656 1660l125 -100l-171 -114l-97 7z" />
    <glyph glyph-name="cacute.6" horiz-adv-x="567" 
d="M545 678q-112 -98 -244 -66.5t-186 182.5t-6 335.5t173.5 248.5t231.5 27t208 -190l-148 -128q-40 150 -102 178t-129.5 -31t-92.5 -154t-5 -193.5t81.5 -122t111 20.5t72.5 100l105 -128q-29 -44 -70 -79zM651 1656l118 -95l-162 -109l-92 7z" />
    <glyph glyph-name="nacute" unicode="&#x144;" 
d="M320 673q-50 -220 -97 -474l-242 -75q87 467 213 933l-54 165l194 87l202 -595q59 297 131 594l227 28q-123 -537 -198 -994l-243 -76zM639 1699l170 -112l-230 -168l-131 -3z" />
    <glyph glyph-name="nacute.3" horiz-adv-x="702" 
d="M308 795q-43 -192 -84 -415l-208 -61q76 409 185 816l-46 147l167 73l173 -528q51 260 114 520l195 19q-107 -470 -173 -870l-209 -62zM685 1681l146 -102l-198 -143h-112z" />
    <glyph glyph-name="nacute.4" horiz-adv-x="654" 
d="M308 867q-40 -176 -78 -381l-194 -44q71 376 173 748l-44 141l156 57l160 -502q48 240 106 478l182 6q-100 -431 -161 -801l-194 -44zM695 1670l136 -104l-185 -121l-105 7z" />
    <glyph glyph-name="nacute.5" horiz-adv-x="605" 
d="M301 904q-38 -168 -74 -363l-179 -40q66 357 161 711l-39 133l144 54l147 -479q45 227 99 453l168 5q-93 -409 -150 -760l-178 -41l-2 -1zM696 1660l125 -100l-171 -114l-97 7z" />
    <glyph glyph-name="nacute.6" horiz-adv-x="571" 
d="M291 938q-36 -160 -71 -345l-170 -38q63 339 153 675l-37 127l137 51l140 -455q43 215 94 430l159 5q-88 -389 -142 -722l-169 -39l-2 -1zM691 1656l118 -95l-162 -109l-92 7z" />
    <glyph glyph-name="rcaron" unicode="&#x159;" horiz-adv-x="767" 
d="M357 751q145 24 208.5 73t63.5 186q0 62 -58 83.5t-129 21.5q-17 0 -41 -2l75 -32q-64 -152 -119 -330zM648 622q29 -41 46.5 -74t32.5 -180l-204 -103q-3 111 -19.5 180.5t-51.5 112.5q-69 -16 -156 -31q-39 -156 -71 -328l-242 -75q90 483 265 965q-22 -4 -46 -9
l-69 189q153 49 310 49q120 0 202.5 -28.5t137 -94t54.5 -184.5q0 -129 -47.5 -231.5t-141.5 -157.5zM325 1630l102 39l108 -112l161 112l100 -32l-195 -216l-182 -7z" />
    <glyph glyph-name="rcaron.3" horiz-adv-x="680" 
d="M341 863q125 19 179.5 60.5t55.5 161.5q0 55 -50 75t-111 22q-15 0 -36 -1l65 -30q-56 -132 -103 -288zM591 743q24 -36 39.5 -65.5t27.5 -159.5l-175 -86q-3 98 -17 159.5t-44 100.5q-59 -13 -134 -24q-34 -137 -62 -288l-208 -61q79 424 230 844q-19 -3 -40 -7l-58 168
q122 37 250 37q119 -3 190 -30t118 -85.5t47 -168.5q-1 -109 -42 -198t-122 -136zM392 1622l87 32l93 -101l139 95l86 -30l-168 -186l-157 -2z" />
    <glyph glyph-name="rcaron.4" horiz-adv-x="638" 
d="M339 929q116 10 166.5 45.5t51.5 147.5q0 51 -46.5 73t-82 25t-55.5 3l61 -32q-51 -120 -95 -262zM571 802q23 -35 33 -55q18 -37 30 -158l-164 -70q-2 91 -15 149t-41 96q-55 -7 -124 -14q-32 -125 -58 -264l-194 -44q73 389 214 772q-18 -2 -37 -4l-55 160
q112 23 201 23q25 0 89 -5t125 -36t104.5 -88.5t43.5 -155.5q0 -106 -38.5 -186.5t-113.5 -119.5zM412 1627l82 25l86 -100l129 80l80 -33l-157 -163l-145 7z" />
    <glyph glyph-name="rcaron.5" horiz-adv-x="598" 
d="M329 962q108 8 155 41.5t48 111.5v1q0 76 -43 97t-75.5 24.5t-50.5 3.5l56 -30q-49 -114 -90 -249zM544 839q21 -33 30 -52q17 -35 28 -151l-152 -65q-2 86 -14 141.5t-38 91.5q-50 -7 -115 -12q-30 -118 -54 -251l-179 -40q69 370 200 733q-16 -2 -34 -4l-51 153
q82 19 158 19q30 0 95.5 -6.5t126.5 -35t104 -83.5q39 -51 39 -151q-3 -97 -38.5 -173.5t-105.5 -113.5zM433 1625l76 23l80 -95l119 75l74 -32l-145 -154l-135 8z" />
    <glyph glyph-name="rcaron.6" horiz-adv-x="559" 
d="M317 993q103 7 147.5 39t45.5 106v1q0 72 -40.5 92t-71.5 23.5t-48 3.5l53 -29q-47 -108 -86 -236zM522 876q20 -32 28 -50q16 -33 27 -143l-145 -62q-1 82 -12.5 134.5t-36.5 87.5q-47 -7 -109 -12q-29 -112 -52 -238l-170 -38q66 351 190 696q-15 -2 -32 -4l-48 146
q78 18 150 18q28 0 90.5 -6.5t120.5 -33.5t98 -79q38 -49 38 -144q-3 -92 -37 -164.5t-100 -107.5zM435 1620l72 22l76 -90l113 71l71 -31l-138 -146l-128 8z" />
    <glyph glyph-name="sacute" unicode="&#x15b;" horiz-adv-x="659" 
d="M739 1179q-126 -12 -270.5 -48.5t-144.5 -152.5q0 -63 159.5 -144t159.5 -264q-19 -208 -185.5 -305.5t-354.5 -132.5l-115 185q101 21 268 85t167 169q0 87 -160.5 146t-160.5 255q0 184 132.5 270.5t382.5 133.5zM626 1699l170 -112l-230 -168l-131 -3z" />
    <glyph glyph-name="sacute.3" horiz-adv-x="561" 
d="M698 1235q-108 -8 -249.5 -39t-142.5 -133q0 -56 137 -130.5t137 -235.5q-17 -183 -160.5 -265t-347.5 -110l-99 166q87 16 252 69t166 145q0 77 -137.5 132.5t-137.5 227.5q0 162 114 235.5t364 113.5zM685 1681l146 -102l-198 -143h-112z" />
    <glyph glyph-name="sacute.4" horiz-adv-x="521" 
d="M668 1252q-101 -1 -232.5 -21.5t-132.5 -115.5q0 -52 127.5 -130t127.5 -228q-16 -169 -149.5 -237t-323.5 -81l-92 160q81 10 234.5 49.5t154.5 125.5q0 71 -128 131t-128 221q0 151 106 212t339 84zM700 1670l136 -104l-185 -121l-105 7z" />
    <glyph glyph-name="sacute.5" horiz-adv-x="475" 
d="M621 1266q-93 0 -215 -18.5t-122 -109.5q0 -49 117 -124t117 -208q0 -160 -131 -229t-307 -80l-84 153q74 9 216.5 45.5t143.5 117.5q0 68 -118 126t-118 211q0 143 98.5 201t313.5 78zM701 1660l125 -100l-171 -114l-97 7z" />
    <glyph glyph-name="sacute.6" horiz-adv-x="443" 
d="M591 1281q-88 0 -204 -17.5t-116 -103.5q0 -47 111.5 -118t111.5 -198q0 -152 -124.5 -217.5t-291.5 -75.5l-80 145q70 9 205.5 43.5t136.5 111.5q0 65 -112 120t-112 200q0 136 93.5 191t297.5 74zM691 1656l118 -95l-162 -109l-92 7z" />
    <glyph glyph-name="scaron" unicode="&#x161;" horiz-adv-x="659" 
d="M739 1179q-126 -12 -270.5 -48.5t-144.5 -152.5q0 -63 159.5 -144t159.5 -264q-19 -208 -185.5 -305.5t-354.5 -132.5l-115 185q101 21 268 85t167 169q0 87 -160.5 146t-160.5 255q0 184 132.5 270.5t382.5 133.5zM339 1630l102 39l108 -112l161 112l100 -32l-195 -216
l-182 -7z" />
    <glyph glyph-name="scaron.3" horiz-adv-x="561" 
d="M698 1235q-108 -8 -249.5 -39t-142.5 -133q0 -56 137 -130.5t137 -235.5q-17 -183 -160.5 -265t-347.5 -110l-99 166q87 16 252 69t166 145q0 77 -137.5 132.5t-137.5 227.5q0 162 114 235.5t364 113.5zM392 1622l87 32l93 -101l139 95l86 -30l-168 -186l-157 -2z" />
    <glyph glyph-name="scaron.4" horiz-adv-x="521" 
d="M668 1252q-101 -1 -232.5 -21.5t-132.5 -115.5q0 -52 127.5 -130t127.5 -228q-16 -169 -149.5 -237t-323.5 -81l-92 160q81 10 234.5 49.5t154.5 125.5q0 71 -128 131t-128 221q0 151 106 212t339 84zM412 1627l82 25l86 -100l129 80l80 -33l-157 -163l-145 7z" />
    <glyph glyph-name="scaron.5" horiz-adv-x="475" 
d="M621 1266q-93 0 -215 -18.5t-122 -109.5q0 -49 117 -124t117 -208q0 -160 -131 -229t-307 -80l-84 153q74 9 216.5 45.5t143.5 117.5q0 68 -118 126t-118 211q0 143 98.5 201t313.5 78zM413 1625l76 23l80 -95l119 75l74 -32l-145 -154l-135 8z" />
    <glyph glyph-name="scaron.6" horiz-adv-x="443" 
d="M591 1281q-88 0 -204 -17.5t-116 -103.5q0 -47 111.5 -118t111.5 -198q0 -152 -124.5 -217.5t-291.5 -75.5l-80 145q70 9 205.5 43.5t136.5 111.5q0 65 -112 120t-112 200q0 136 93.5 191t297.5 74zM415 1620l72 22l76 -90l113 71l71 -31l-138 -146l-128 8z" />
    <glyph glyph-name="zacute" unicode="&#x17a;" horiz-adv-x="749" 
d="M392 467l350 111l-41 -230l-675 -206l45 224l495 747q-130 -9 -195.5 -16.5t-199.5 -36.5l-69 199q153 42 282.5 53t502.5 30l-54 -210q-72 -5 -133 -9l93 -26zM632 1699l170 -112l-230 -168l-131 -3z" />
    <glyph glyph-name="zacute.3" horiz-adv-x="642" 
d="M367 614l301 90l-36 -202l-581 -167l40 196l426 648q-111 -6 -151 -9q-73 -7 -188 -30l-59 177q132 33 243.5 40t432.5 16l-47 -184q-62 -3 -115 -5l80 -25zM675 1681l146 -102l-198 -143h-112z" />
    <glyph glyph-name="zacute.4" horiz-adv-x="597" 
d="M351 1391q103 -1 401 -12l-43 -168q-58 1 -107 2l75 -28l-323 -488l281 66l-33 -186l-541 -120l37 180l397 578h-141q-68 -2 -175 -16l-55 168q117 23 227 24zM675 1670l136 -104l-185 -121l-105 7z" />
    <glyph glyph-name="zacute.5" horiz-adv-x="550" 
d="M715 1387l-41 -160q-53 2 -98 3l68 -27l-299 -462l260 61l-32 -177l-500 -110l34 171l370 546q-77 2 -131 2q-63 -1 -162 -14l-50 160q109 21 202 21q103 -1 379 -14zM686 1660l125 -100l-171 -114l-97 7z" />
    <glyph glyph-name="zacute.6" horiz-adv-x="508" 
d="M675 1396l-39 -152q-50 2 -93 3l64 -25l-284 -439l247 58l-30 -168l-475 -105l32 162l352 519q-72 2 -125 2q-60 -1 -154 -13l-47 152q102 20 191 20q99 -1 361 -14zM651 1656l118 -95l-162 -109l-92 7z" />
    <glyph glyph-name="zcaron" unicode="&#x17e;" horiz-adv-x="749" 
d="M392 467l350 111l-41 -230l-675 -206l45 224l495 747q-130 -9 -195.5 -16.5t-199.5 -36.5l-69 199q153 42 282.5 53t502.5 30l-54 -210q-72 -5 -133 -9l93 -26zM313 1630l102 39l108 -112l161 112l100 -32l-195 -216l-182 -7z" />
    <glyph glyph-name="zcaron.3" horiz-adv-x="642" 
d="M367 614l301 90l-36 -202l-581 -167l40 196l426 648q-111 -6 -151 -9q-73 -7 -188 -30l-59 177q132 33 243.5 40t432.5 16l-47 -184q-62 -3 -115 -5l80 -25zM382 1622l87 32l93 -101l139 95l86 -30l-168 -186l-157 -2z" />
    <glyph glyph-name="zcaron.4" horiz-adv-x="597" 
d="M351 1391q103 -1 401 -12l-43 -168q-58 1 -107 2l75 -28l-323 -488l281 66l-33 -186l-541 -120l37 180l397 578h-141q-68 -2 -175 -16l-55 168q117 23 227 24zM402 1627l82 25l86 -100l129 80l80 -33l-157 -163l-145 7z" />
    <glyph glyph-name="zcaron.5" horiz-adv-x="550" 
d="M715 1387l-41 -160q-53 2 -98 3l68 -27l-299 -462l260 61l-32 -177l-500 -110l34 171l370 546q-77 2 -131 2q-63 -1 -162 -14l-50 160q109 21 202 21q103 -1 379 -14zM413 1625l76 23l80 -95l119 75l74 -32l-145 -154l-135 8z" />
    </font>
</defs>
</svg>
